<svg xmlns="http://www.w3.org/2000/svg" version="1.1" width="256" height="256">
  <rect x="0" y="0" width="256" height="256" style="fill:#ffffff;shape-rendering:crispEdges;"/>
  <path x="0" y="0" style="fill:#000000;shape-rendering:crispEdges;" d="M22.76,22.76 V28.44 H28.44 V22.76 H22.76 Z M28.44,22.76 V28.44 H34.13 V22.76 H28.44 Z M34.13,22.76 V28.44 H39.82 V22.76 H34.13 Z M39.82,22.76 V28.44 H45.51 V22.76 H39.82 Z M45.51,22.76 V28.44 H51.20 V22.76 H45.51 Z M51.20,22.76 V28.44 H56.89 V22.76 H51.20 Z M56.89,22.76 V28.44 H62.58 V22.76 H56.89 Z M68.27,22.76 V28.44 H73.96 V22.76 H68.27 Z M73.96,22.76 V28.44 H79.64 V22.76 H73.96 Z M79.64,22.76 V28.44 H85.33 V22.76 H79.64 Z M85.33,22.76 V28.44 H91.02 V22.76 H85.33 Z M91.02,22.76 V28.44 H96.71 V22.76 H91.02 Z M96.71,22.76 V28.44 H102.40 V22.76 H96.71 Z M113.78,22.76 V28.44 H119.47 V22.76 H113.78 Z M125.16,22.76 V28.44 H130.84 V22.76 H125.16 Z M130.84,22.76 V28.44 H136.53 V22.76 H130.84 Z M142.22,22.76 V28.44 H147.91 V22.76 H142.22 Z M159.29,22.76 V28.44 H164.98 V22.76 H159.29 Z M170.67,22.76 V28.44 H176.36 V22.76 H170.67 Z M182.04,22.76 V28.44 H187.73 V22.76 H182.04 Z M193.42,22.76 V28.44 H199.11 V22.76 H193.42 Z M199.11,22.76 V28.44 H204.80 V22.76 H199.11 Z M204.80,22.76 V28.44 H210.49 V22.76 H204.80 Z M210.49,22.76 V28.44 H216.18 V22.76 H210.49 Z M216.18,22.76 V28.44 H221.87 V22.76 H216.18 Z M221.87,22.76 V28.44 H227.56 V22.76 H221.87 Z M227.56,22.76 V28.44 H233.24 V22.76 H227.56 Z M22.76,28.44 V34.13 H28.44 V28.44 H22.76 Z M56.89,28.44 V34.13 H62.58 V28.44 H56.89 Z M85.33,28.44 V34.13 H91.02 V28.44 H85.33 Z M108.09,28.44 V34.13 H113.78 V28.44 H108.09 Z M119.47,28.44 V34.13 H125.16 V28.44 H119.47 Z M125.16,28.44 V34.13 H130.84 V28.44 H125.16 Z M130.84,28.44 V34.13 H136.53 V28.44 H130.84 Z M136.53,28.44 V34.13 H142.22 V28.44 H136.53 Z M142.22,28.44 V34.13 H147.91 V28.44 H142.22 Z M153.60,28.44 V34.13 H159.29 V28.44 H153.60 Z M159.29,28.44 V34.13 H164.98 V28.44 H159.29 Z M164.98,28.44 V34.13 H170.67 V28.44 H164.98 Z M176.36,28.44 V34.13 H182.04 V28.44 H176.36 Z M182.04,28.44 V34.13 H187.73 V28.44 H182.04 Z M193.42,28.44 V34.13 H199.11 V28.44 H193.42 Z M227.56,28.44 V34.13 H233.24 V28.44 H227.56 Z M22.76,34.13 V39.82 H28.44 V34.13 H22.76 Z M34.13,34.13 V39.82 H39.82 V34.13 H34.13 Z M39.82,34.13 V39.82 H45.51 V34.13 H39.82 Z M45.51,34.13 V39.82 H51.20 V34.13 H45.51 Z M56.89,34.13 V39.82 H62.58 V34.13 H56.89 Z M73.96,34.13 V39.82 H79.64 V34.13 H73.96 Z M79.64,34.13 V39.82 H85.33 V34.13 H79.64 Z M85.33,34.13 V39.82 H91.02 V34.13 H85.33 Z M96.71,34.13 V39.82 H102.40 V34.13 H96.71 Z M108.09,34.13 V39.82 H113.78 V34.13 H108.09 Z M113.78,34.13 V39.82 H119.47 V34.13 H113.78 Z M142.22,34.13 V39.82 H147.91 V34.13 H142.22 Z M170.67,34.13 V39.82 H176.36 V34.13 H170.67 Z M176.36,34.13 V39.82 H182.04 V34.13 H176.36 Z M193.42,34.13 V39.82 H199.11 V34.13 H193.42 Z M204.80,34.13 V39.82 H210.49 V34.13 H204.80 Z M210.49,34.13 V39.82 H216.18 V34.13 H210.49 Z M216.18,34.13 V39.82 H221.87 V34.13 H216.18 Z M227.56,34.13 V39.82 H233.24 V34.13 H227.56 Z M22.76,39.82 V45.51 H28.44 V39.82 H22.76 Z M34.13,39.82 V45.51 H39.82 V39.82 H34.13 Z M39.82,39.82 V45.51 H45.51 V39.82 H39.82 Z M45.51,39.82 V45.51 H51.20 V39.82 H45.51 Z M56.89,39.82 V45.51 H62.58 V39.82 H56.89 Z M68.27,39.82 V45.51 H73.96 V39.82 H68.27 Z M85.33,39.82 V45.51 H91.02 V39.82 H85.33 Z M91.02,39.82 V45.51 H96.71 V39.82 H91.02 Z M102.40,39.82 V45.51 H108.09 V39.82 H102.40 Z M119.47,39.82 V45.51 H125.16 V39.82 H119.47 Z M136.53,39.82 V45.51 H142.22 V39.82 H136.53 Z M147.91,39.82 V45.51 H153.60 V39.82 H147.91 Z M164.98,39.82 V45.51 H170.67 V39.82 H164.98 Z M193.42,39.82 V45.51 H199.11 V39.82 H193.42 Z M204.80,39.82 V45.51 H210.49 V39.82 H204.80 Z M210.49,39.82 V45.51 H216.18 V39.82 H210.49 Z M216.18,39.82 V45.51 H221.87 V39.82 H216.18 Z M227.56,39.82 V45.51 H233.24 V39.82 H227.56 Z M22.76,45.51 V51.20 H28.44 V45.51 H22.76 Z M34.13,45.51 V51.20 H39.82 V45.51 H34.13 Z M39.82,45.51 V51.20 H45.51 V45.51 H39.82 Z M45.51,45.51 V51.20 H51.20 V45.51 H45.51 Z M56.89,45.51 V51.20 H62.58 V45.51 H56.89 Z M73.96,45.51 V51.20 H79.64 V45.51 H73.96 Z M85.33,45.51 V51.20 H91.02 V45.51 H85.33 Z M91.02,45.51 V51.20 H96.71 V45.51 H91.02 Z M96.71,45.51 V51.20 H102.40 V45.51 H96.71 Z M102.40,45.51 V51.20 H108.09 V45.51 H102.40 Z M136.53,45.51 V51.20 H142.22 V45.51 H136.53 Z M147.91,45.51 V51.20 H153.60 V45.51 H147.91 Z M153.60,45.51 V51.20 H159.29 V45.51 H153.60 Z M164.98,45.51 V51.20 H170.67 V45.51 H164.98 Z M170.67,45.51 V51.20 H176.36 V45.51 H170.67 Z M193.42,45.51 V51.20 H199.11 V45.51 H193.42 Z M204.80,45.51 V51.20 H210.49 V45.51 H204.80 Z M210.49,45.51 V51.20 H216.18 V45.51 H210.49 Z M216.18,45.51 V51.20 H221.87 V45.51 H216.18 Z M227.56,45.51 V51.20 H233.24 V45.51 H227.56 Z M22.76,51.20 V56.89 H28.44 V51.20 H22.76 Z M56.89,51.20 V56.89 H62.58 V51.20 H56.89 Z M68.27,51.20 V56.89 H73.96 V51.20 H68.27 Z M73.96,51.20 V56.89 H79.64 V51.20 H73.96 Z M96.71,51.20 V56.89 H102.40 V51.20 H96.71 Z M102.40,51.20 V56.89 H108.09 V51.20 H102.40 Z M108.09,51.20 V56.89 H113.78 V51.20 H108.09 Z M125.16,51.20 V56.89 H130.84 V51.20 H125.16 Z M130.84,51.20 V56.89 H136.53 V51.20 H130.84 Z M142.22,51.20 V56.89 H147.91 V51.20 H142.22 Z M153.60,51.20 V56.89 H159.29 V51.20 H153.60 Z M159.29,51.20 V56.89 H164.98 V51.20 H159.29 Z M164.98,51.20 V56.89 H170.67 V51.20 H164.98 Z M176.36,51.20 V56.89 H182.04 V51.20 H176.36 Z M193.42,51.20 V56.89 H199.11 V51.20 H193.42 Z M227.56,51.20 V56.89 H233.24 V51.20 H227.56 Z M22.76,56.89 V62.58 H28.44 V56.89 H22.76 Z M28.44,56.89 V62.58 H34.13 V56.89 H28.44 Z M34.13,56.89 V62.58 H39.82 V56.89 H34.13 Z M39.82,56.89 V62.58 H45.51 V56.89 H39.82 Z M45.51,56.89 V62.58 H51.20 V56.89 H45.51 Z M51.20,56.89 V62.58 H56.89 V56.89 H51.20 Z M56.89,56.89 V62.58 H62.58 V56.89 H56.89 Z M68.27,56.89 V62.58 H73.96 V56.89 H68.27 Z M79.64,56.89 V62.58 H85.33 V56.89 H79.64 Z M91.02,56.89 V62.58 H96.71 V56.89 H91.02 Z M102.40,56.89 V62.58 H108.09 V56.89 H102.40 Z M113.78,56.89 V62.58 H119.47 V56.89 H113.78 Z M125.16,56.89 V62.58 H130.84 V56.89 H125.16 Z M136.53,56.89 V62.58 H142.22 V56.89 H136.53 Z M147.91,56.89 V62.58 H153.60 V56.89 H147.91 Z M159.29,56.89 V62.58 H164.98 V56.89 H159.29 Z M170.67,56.89 V62.58 H176.36 V56.89 H170.67 Z M182.04,56.89 V62.58 H187.73 V56.89 H182.04 Z M193.42,56.89 V62.58 H199.11 V56.89 H193.42 Z M199.11,56.89 V62.58 H204.80 V56.89 H199.11 Z M204.80,56.89 V62.58 H210.49 V56.89 H204.80 Z M210.49,56.89 V62.58 H216.18 V56.89 H210.49 Z M216.18,56.89 V62.58 H221.87 V56.89 H216.18 Z M221.87,56.89 V62.58 H227.56 V56.89 H221.87 Z M227.56,56.89 V62.58 H233.24 V56.89 H227.56 Z M79.64,62.58 V68.27 H85.33 V62.58 H79.64 Z M108.09,62.58 V68.27 H113.78 V62.58 H108.09 Z M125.16,62.58 V68.27 H130.84 V62.58 H125.16 Z M136.53,62.58 V68.27 H142.22 V62.58 H136.53 Z M142.22,62.58 V68.27 H147.91 V62.58 H142.22 Z M147.91,62.58 V68.27 H153.60 V62.58 H147.91 Z M164.98,62.58 V68.27 H170.67 V62.58 H164.98 Z M170.67,62.58 V68.27 H176.36 V62.58 H170.67 Z M176.36,62.58 V68.27 H182.04 V62.58 H176.36 Z M182.04,62.58 V68.27 H187.73 V62.58 H182.04 Z M51.20,68.27 V73.96 H56.89 V68.27 H51.20 Z M56.89,68.27 V73.96 H62.58 V68.27 H56.89 Z M68.27,68.27 V73.96 H73.96 V68.27 H68.27 Z M73.96,68.27 V73.96 H79.64 V68.27 H73.96 Z M85.33,68.27 V73.96 H91.02 V68.27 H85.33 Z M91.02,68.27 V73.96 H96.71 V68.27 H91.02 Z M96.71,68.27 V73.96 H102.40 V68.27 H96.71 Z M108.09,68.27 V73.96 H113.78 V68.27 H108.09 Z M113.78,68.27 V73.96 H119.47 V68.27 H113.78 Z M130.84,68.27 V73.96 H136.53 V68.27 H130.84 Z M136.53,68.27 V73.96 H142.22 V68.27 H136.53 Z M147.91,68.27 V73.96 H153.60 V68.27 H147.91 Z M153.60,68.27 V73.96 H159.29 V68.27 H153.60 Z M159.29,68.27 V73.96 H164.98 V68.27 H159.29 Z M176.36,68.27 V73.96 H182.04 V68.27 H176.36 Z M182.04,68.27 V73.96 H187.73 V68.27 H182.04 Z M187.73,68.27 V73.96 H193.42 V68.27 H187.73 Z M199.11,68.27 V73.96 H204.80 V68.27 H199.11 Z M210.49,68.27 V73.96 H216.18 V68.27 H210.49 Z M227.56,68.27 V73.96 H233.24 V68.27 H227.56 Z M28.44,73.96 V79.64 H34.13 V73.96 H28.44 Z M34.13,73.96 V79.64 H39.82 V73.96 H34.13 Z M39.82,73.96 V79.64 H45.51 V73.96 H39.82 Z M45.51,73.96 V79.64 H51.20 V73.96 H45.51 Z M62.58,73.96 V79.64 H68.27 V73.96 H62.58 Z M68.27,73.96 V79.64 H73.96 V73.96 H68.27 Z M73.96,73.96 V79.64 H79.64 V73.96 H73.96 Z M79.64,73.96 V79.64 H85.33 V73.96 H79.64 Z M102.40,73.96 V79.64 H108.09 V73.96 H102.40 Z M108.09,73.96 V79.64 H113.78 V73.96 H108.09 Z M130.84,73.96 V79.64 H136.53 V73.96 H130.84 Z M136.53,73.96 V79.64 H142.22 V73.96 H136.53 Z M142.22,73.96 V79.64 H147.91 V73.96 H142.22 Z M147.91,73.96 V79.64 H153.60 V73.96 H147.91 Z M159.29,73.96 V79.64 H164.98 V73.96 H159.29 Z M164.98,73.96 V79.64 H170.67 V73.96 H164.98 Z M170.67,73.96 V79.64 H176.36 V73.96 H170.67 Z M182.04,73.96 V79.64 H187.73 V73.96 H182.04 Z M193.42,73.96 V79.64 H199.11 V73.96 H193.42 Z M199.11,73.96 V79.64 H204.80 V73.96 H199.11 Z M221.87,73.96 V79.64 H227.56 V73.96 H221.87 Z M45.51,79.64 V85.33 H51.20 V79.64 H45.51 Z M56.89,79.64 V85.33 H62.58 V79.64 H56.89 Z M68.27,79.64 V85.33 H73.96 V79.64 H68.27 Z M79.64,79.64 V85.33 H85.33 V79.64 H79.64 Z M96.71,79.64 V85.33 H102.40 V79.64 H96.71 Z M108.09,79.64 V85.33 H113.78 V79.64 H108.09 Z M113.78,79.64 V85.33 H119.47 V79.64 H113.78 Z M119.47,79.64 V85.33 H125.16 V79.64 H119.47 Z M125.16,79.64 V85.33 H130.84 V79.64 H125.16 Z M130.84,79.64 V85.33 H136.53 V79.64 H130.84 Z M142.22,79.64 V85.33 H147.91 V79.64 H142.22 Z M159.29,79.64 V85.33 H164.98 V79.64 H159.29 Z M164.98,79.64 V85.33 H170.67 V79.64 H164.98 Z M170.67,79.64 V85.33 H176.36 V79.64 H170.67 Z M187.73,79.64 V85.33 H193.42 V79.64 H187.73 Z M193.42,79.64 V85.33 H199.11 V79.64 H193.42 Z M204.80,79.64 V85.33 H210.49 V79.64 H204.80 Z M22.76,85.33 V91.02 H28.44 V85.33 H22.76 Z M28.44,85.33 V91.02 H34.13 V85.33 H28.44 Z M39.82,85.33 V91.02 H45.51 V85.33 H39.82 Z M45.51,85.33 V91.02 H51.20 V85.33 H45.51 Z M51.20,85.33 V91.02 H56.89 V85.33 H51.20 Z M62.58,85.33 V91.02 H68.27 V85.33 H62.58 Z M68.27,85.33 V91.02 H73.96 V85.33 H68.27 Z M73.96,85.33 V91.02 H79.64 V85.33 H73.96 Z M85.33,85.33 V91.02 H91.02 V85.33 H85.33 Z M91.02,85.33 V91.02 H96.71 V85.33 H91.02 Z M96.71,85.33 V91.02 H102.40 V85.33 H96.71 Z M102.40,85.33 V91.02 H108.09 V85.33 H102.40 Z M108.09,85.33 V91.02 H113.78 V85.33 H108.09 Z M130.84,85.33 V91.02 H136.53 V85.33 H130.84 Z M142.22,85.33 V91.02 H147.91 V85.33 H142.22 Z M153.60,85.33 V91.02 H159.29 V85.33 H153.60 Z M164.98,85.33 V91.02 H170.67 V85.33 H164.98 Z M176.36,85.33 V91.02 H182.04 V85.33 H176.36 Z M187.73,85.33 V91.02 H193.42 V85.33 H187.73 Z M193.42,85.33 V91.02 H199.11 V85.33 H193.42 Z M199.11,85.33 V91.02 H204.80 V85.33 H199.11 Z M210.49,85.33 V91.02 H216.18 V85.33 H210.49 Z M216.18,85.33 V91.02 H221.87 V85.33 H216.18 Z M22.76,91.02 V96.71 H28.44 V91.02 H22.76 Z M34.13,91.02 V96.71 H39.82 V91.02 H34.13 Z M56.89,91.02 V96.71 H62.58 V91.02 H56.89 Z M79.64,91.02 V96.71 H85.33 V91.02 H79.64 Z M85.33,91.02 V96.71 H91.02 V91.02 H85.33 Z M102.40,91.02 V96.71 H108.09 V91.02 H102.40 Z M113.78,91.02 V96.71 H119.47 V91.02 H113.78 Z M125.16,91.02 V96.71 H130.84 V91.02 H125.16 Z M130.84,91.02 V96.71 H136.53 V91.02 H130.84 Z M136.53,91.02 V96.71 H142.22 V91.02 H136.53 Z M142.22,91.02 V96.71 H147.91 V91.02 H142.22 Z M147.91,91.02 V96.71 H153.60 V91.02 H147.91 Z M164.98,91.02 V96.71 H170.67 V91.02 H164.98 Z M176.36,91.02 V96.71 H182.04 V91.02 H176.36 Z M182.04,91.02 V96.71 H187.73 V91.02 H182.04 Z M187.73,91.02 V96.71 H193.42 V91.02 H187.73 Z M193.42,91.02 V96.71 H199.11 V91.02 H193.42 Z M210.49,91.02 V96.71 H216.18 V91.02 H210.49 Z M216.18,91.02 V96.71 H221.87 V91.02 H216.18 Z M221.87,91.02 V96.71 H227.56 V91.02 H221.87 Z M39.82,96.71 V102.40 H45.51 V96.71 H39.82 Z M51.20,96.71 V102.40 H56.89 V96.71 H51.20 Z M68.27,96.71 V102.40 H73.96 V96.71 H68.27 Z M73.96,96.71 V102.40 H79.64 V96.71 H73.96 Z M85.33,96.71 V102.40 H91.02 V96.71 H85.33 Z M113.78,96.71 V102.40 H119.47 V96.71 H113.78 Z M119.47,96.71 V102.40 H125.16 V96.71 H119.47 Z M136.53,96.71 V102.40 H142.22 V96.71 H136.53 Z M147.91,96.71 V102.40 H153.60 V96.71 H147.91 Z M153.60,96.71 V102.40 H159.29 V96.71 H153.60 Z M182.04,96.71 V102.40 H187.73 V96.71 H182.04 Z M193.42,96.71 V102.40 H199.11 V96.71 H193.42 Z M199.11,96.71 V102.40 H204.80 V96.71 H199.11 Z M210.49,96.71 V102.40 H216.18 V96.71 H210.49 Z M221.87,96.71 V102.40 H227.56 V96.71 H221.87 Z M227.56,96.71 V102.40 H233.24 V96.71 H227.56 Z M22.76,102.40 V108.09 H28.44 V102.40 H22.76 Z M28.44,102.40 V108.09 H34.13 V102.40 H28.44 Z M45.51,102.40 V108.09 H51.20 V102.40 H45.51 Z M56.89,102.40 V108.09 H62.58 V102.40 H56.89 Z M62.58,102.40 V108.09 H68.27 V102.40 H62.58 Z M73.96,102.40 V108.09 H79.64 V102.40 H73.96 Z M79.64,102.40 V108.09 H85.33 V102.40 H79.64 Z M96.71,102.40 V108.09 H102.40 V102.40 H96.71 Z M102.40,102.40 V108.09 H108.09 V102.40 H102.40 Z M108.09,102.40 V108.09 H113.78 V102.40 H108.09 Z M119.47,102.40 V108.09 H125.16 V102.40 H119.47 Z M125.16,102.40 V108.09 H130.84 V102.40 H125.16 Z M130.84,102.40 V108.09 H136.53 V102.40 H130.84 Z M136.53,102.40 V108.09 H142.22 V102.40 H136.53 Z M142.22,102.40 V108.09 H147.91 V102.40 H142.22 Z M159.29,102.40 V108.09 H164.98 V102.40 H159.29 Z M164.98,102.40 V108.09 H170.67 V102.40 H164.98 Z M170.67,102.40 V108.09 H176.36 V102.40 H170.67 Z M176.36,102.40 V108.09 H182.04 V102.40 H176.36 Z M187.73,102.40 V108.09 H193.42 V102.40 H187.73 Z M45.51,108.09 V113.78 H51.20 V108.09 H45.51 Z M62.58,108.09 V113.78 H68.27 V108.09 H62.58 Z M73.96,108.09 V113.78 H79.64 V108.09 H73.96 Z M85.33,108.09 V113.78 H91.02 V108.09 H85.33 Z M108.09,108.09 V113.78 H113.78 V108.09 H108.09 Z M119.47,108.09 V113.78 H125.16 V108.09 H119.47 Z M125.16,108.09 V113.78 H130.84 V108.09 H125.16 Z M136.53,108.09 V113.78 H142.22 V108.09 H136.53 Z M153.60,108.09 V113.78 H159.29 V108.09 H153.60 Z M164.98,108.09 V113.78 H170.67 V108.09 H164.98 Z M176.36,108.09 V113.78 H182.04 V108.09 H176.36 Z M210.49,108.09 V113.78 H216.18 V108.09 H210.49 Z M216.18,108.09 V113.78 H221.87 V108.09 H216.18 Z M227.56,108.09 V113.78 H233.24 V108.09 H227.56 Z M28.44,113.78 V119.47 H34.13 V113.78 H28.44 Z M34.13,113.78 V119.47 H39.82 V113.78 H34.13 Z M45.51,113.78 V119.47 H51.20 V113.78 H45.51 Z M51.20,113.78 V119.47 H56.89 V113.78 H51.20 Z M56.89,113.78 V119.47 H62.58 V113.78 H56.89 Z M79.64,113.78 V119.47 H85.33 V113.78 H79.64 Z M96.71,113.78 V119.47 H102.40 V113.78 H96.71 Z M102.40,113.78 V119.47 H108.09 V113.78 H102.40 Z M119.47,113.78 V119.47 H125.16 V113.78 H119.47 Z M125.16,113.78 V119.47 H130.84 V113.78 H125.16 Z M147.91,113.78 V119.47 H153.60 V113.78 H147.91 Z M164.98,113.78 V119.47 H170.67 V113.78 H164.98 Z M187.73,113.78 V119.47 H193.42 V113.78 H187.73 Z M193.42,113.78 V119.47 H199.11 V113.78 H193.42 Z M204.80,113.78 V119.47 H210.49 V113.78 H204.80 Z M210.49,113.78 V119.47 H216.18 V113.78 H210.49 Z M221.87,113.78 V119.47 H227.56 V113.78 H221.87 Z M34.13,119.47 V125.16 H39.82 V119.47 H34.13 Z M45.51,119.47 V125.16 H51.20 V119.47 H45.51 Z M51.20,119.47 V125.16 H56.89 V119.47 H51.20 Z M68.27,119.47 V125.16 H73.96 V119.47 H68.27 Z M91.02,119.47 V125.16 H96.71 V119.47 H91.02 Z M96.71,119.47 V125.16 H102.40 V119.47 H96.71 Z M102.40,119.47 V125.16 H108.09 V119.47 H102.40 Z M108.09,119.47 V125.16 H113.78 V119.47 H108.09 Z M125.16,119.47 V125.16 H130.84 V119.47 H125.16 Z M130.84,119.47 V125.16 H136.53 V119.47 H130.84 Z M147.91,119.47 V125.16 H153.60 V119.47 H147.91 Z M153.60,119.47 V125.16 H159.29 V119.47 H153.60 Z M164.98,119.47 V125.16 H170.67 V119.47 H164.98 Z M176.36,119.47 V125.16 H182.04 V119.47 H176.36 Z M182.04,119.47 V125.16 H187.73 V119.47 H182.04 Z M199.11,119.47 V125.16 H204.80 V119.47 H199.11 Z M204.80,119.47 V125.16 H210.49 V119.47 H204.80 Z M210.49,119.47 V125.16 H216.18 V119.47 H210.49 Z M227.56,119.47 V125.16 H233.24 V119.47 H227.56 Z M28.44,125.16 V130.84 H34.13 V125.16 H28.44 Z M34.13,125.16 V130.84 H39.82 V125.16 H34.13 Z M51.20,125.16 V130.84 H56.89 V125.16 H51.20 Z M56.89,125.16 V130.84 H62.58 V125.16 H56.89 Z M79.64,125.16 V130.84 H85.33 V125.16 H79.64 Z M85.33,125.16 V130.84 H91.02 V125.16 H85.33 Z M91.02,125.16 V130.84 H96.71 V125.16 H91.02 Z M96.71,125.16 V130.84 H102.40 V125.16 H96.71 Z M102.40,125.16 V130.84 H108.09 V125.16 H102.40 Z M108.09,125.16 V130.84 H113.78 V125.16 H108.09 Z M113.78,125.16 V130.84 H119.47 V125.16 H113.78 Z M119.47,125.16 V130.84 H125.16 V125.16 H119.47 Z M125.16,125.16 V130.84 H130.84 V125.16 H125.16 Z M170.67,125.16 V130.84 H176.36 V125.16 H170.67 Z M193.42,125.16 V130.84 H199.11 V125.16 H193.42 Z M199.11,125.16 V130.84 H204.80 V125.16 H199.11 Z M204.80,125.16 V130.84 H210.49 V125.16 H204.80 Z M210.49,125.16 V130.84 H216.18 V125.16 H210.49 Z M216.18,125.16 V130.84 H221.87 V125.16 H216.18 Z M221.87,125.16 V130.84 H227.56 V125.16 H221.87 Z M227.56,125.16 V130.84 H233.24 V125.16 H227.56 Z M39.82,130.84 V136.53 H45.51 V130.84 H39.82 Z M51.20,130.84 V136.53 H56.89 V130.84 H51.20 Z M62.58,130.84 V136.53 H68.27 V130.84 H62.58 Z M73.96,130.84 V136.53 H79.64 V130.84 H73.96 Z M91.02,130.84 V136.53 H96.71 V130.84 H91.02 Z M96.71,130.84 V136.53 H102.40 V130.84 H96.71 Z M113.78,130.84 V136.53 H119.47 V130.84 H113.78 Z M119.47,130.84 V136.53 H125.16 V130.84 H119.47 Z M147.91,130.84 V136.53 H153.60 V130.84 H147.91 Z M170.67,130.84 V136.53 H176.36 V130.84 H170.67 Z M210.49,130.84 V136.53 H216.18 V130.84 H210.49 Z M216.18,130.84 V136.53 H221.87 V130.84 H216.18 Z M221.87,130.84 V136.53 H227.56 V130.84 H221.87 Z M22.76,136.53 V142.22 H28.44 V136.53 H22.76 Z M28.44,136.53 V142.22 H34.13 V136.53 H28.44 Z M51.20,136.53 V142.22 H56.89 V136.53 H51.20 Z M56.89,136.53 V142.22 H62.58 V136.53 H56.89 Z M73.96,136.53 V142.22 H79.64 V136.53 H73.96 Z M79.64,136.53 V142.22 H85.33 V136.53 H79.64 Z M102.40,136.53 V142.22 H108.09 V136.53 H102.40 Z M119.47,136.53 V142.22 H125.16 V136.53 H119.47 Z M136.53,136.53 V142.22 H142.22 V136.53 H136.53 Z M159.29,136.53 V142.22 H164.98 V136.53 H159.29 Z M164.98,136.53 V142.22 H170.67 V136.53 H164.98 Z M176.36,136.53 V142.22 H182.04 V136.53 H176.36 Z M187.73,136.53 V142.22 H193.42 V136.53 H187.73 Z M193.42,136.53 V142.22 H199.11 V136.53 H193.42 Z M199.11,136.53 V142.22 H204.80 V136.53 H199.11 Z M204.80,136.53 V142.22 H210.49 V136.53 H204.80 Z M221.87,136.53 V142.22 H227.56 V136.53 H221.87 Z M28.44,142.22 V147.91 H34.13 V142.22 H28.44 Z M51.20,142.22 V147.91 H56.89 V142.22 H51.20 Z M62.58,142.22 V147.91 H68.27 V142.22 H62.58 Z M73.96,142.22 V147.91 H79.64 V142.22 H73.96 Z M85.33,142.22 V147.91 H91.02 V142.22 H85.33 Z M91.02,142.22 V147.91 H96.71 V142.22 H91.02 Z M102.40,142.22 V147.91 H108.09 V142.22 H102.40 Z M119.47,142.22 V147.91 H125.16 V142.22 H119.47 Z M130.84,142.22 V147.91 H136.53 V142.22 H130.84 Z M136.53,142.22 V147.91 H142.22 V142.22 H136.53 Z M142.22,142.22 V147.91 H147.91 V142.22 H142.22 Z M153.60,142.22 V147.91 H159.29 V142.22 H153.60 Z M164.98,142.22 V147.91 H170.67 V142.22 H164.98 Z M176.36,142.22 V147.91 H182.04 V142.22 H176.36 Z M182.04,142.22 V147.91 H187.73 V142.22 H182.04 Z M193.42,142.22 V147.91 H199.11 V142.22 H193.42 Z M221.87,142.22 V147.91 H227.56 V142.22 H221.87 Z M227.56,142.22 V147.91 H233.24 V142.22 H227.56 Z M22.76,147.91 V153.60 H28.44 V147.91 H22.76 Z M28.44,147.91 V153.60 H34.13 V147.91 H28.44 Z M45.51,147.91 V153.60 H51.20 V147.91 H45.51 Z M56.89,147.91 V153.60 H62.58 V147.91 H56.89 Z M68.27,147.91 V153.60 H73.96 V147.91 H68.27 Z M73.96,147.91 V153.60 H79.64 V147.91 H73.96 Z M91.02,147.91 V153.60 H96.71 V147.91 H91.02 Z M113.78,147.91 V153.60 H119.47 V147.91 H113.78 Z M130.84,147.91 V153.60 H136.53 V147.91 H130.84 Z M136.53,147.91 V153.60 H142.22 V147.91 H136.53 Z M142.22,147.91 V153.60 H147.91 V147.91 H142.22 Z M153.60,147.91 V153.60 H159.29 V147.91 H153.60 Z M159.29,147.91 V153.60 H164.98 V147.91 H159.29 Z M170.67,147.91 V153.60 H176.36 V147.91 H170.67 Z M187.73,147.91 V153.60 H193.42 V147.91 H187.73 Z M199.11,147.91 V153.60 H204.80 V147.91 H199.11 Z M227.56,147.91 V153.60 H233.24 V147.91 H227.56 Z M45.51,153.60 V159.29 H51.20 V153.60 H45.51 Z M68.27,153.60 V159.29 H73.96 V153.60 H68.27 Z M73.96,153.60 V159.29 H79.64 V153.60 H73.96 Z M102.40,153.60 V159.29 H108.09 V153.60 H102.40 Z M108.09,153.60 V159.29 H113.78 V153.60 H108.09 Z M119.47,153.60 V159.29 H125.16 V153.60 H119.47 Z M136.53,153.60 V159.29 H142.22 V153.60 H136.53 Z M159.29,153.60 V159.29 H164.98 V153.60 H159.29 Z M170.67,153.60 V159.29 H176.36 V153.60 H170.67 Z M176.36,153.60 V159.29 H182.04 V153.60 H176.36 Z M187.73,153.60 V159.29 H193.42 V153.60 H187.73 Z M204.80,153.60 V159.29 H210.49 V153.60 H204.80 Z M39.82,159.29 V164.98 H45.51 V159.29 H39.82 Z M45.51,159.29 V164.98 H51.20 V159.29 H45.51 Z M56.89,159.29 V164.98 H62.58 V159.29 H56.89 Z M62.58,159.29 V164.98 H68.27 V159.29 H62.58 Z M68.27,159.29 V164.98 H73.96 V159.29 H68.27 Z M79.64,159.29 V164.98 H85.33 V159.29 H79.64 Z M91.02,159.29 V164.98 H96.71 V159.29 H91.02 Z M96.71,159.29 V164.98 H102.40 V159.29 H96.71 Z M108.09,159.29 V164.98 H113.78 V159.29 H108.09 Z M125.16,159.29 V164.98 H130.84 V159.29 H125.16 Z M136.53,159.29 V164.98 H142.22 V159.29 H136.53 Z M142.22,159.29 V164.98 H147.91 V159.29 H142.22 Z M147.91,159.29 V164.98 H153.60 V159.29 H147.91 Z M170.67,159.29 V164.98 H176.36 V159.29 H170.67 Z M176.36,159.29 V164.98 H182.04 V159.29 H176.36 Z M204.80,159.29 V164.98 H210.49 V159.29 H204.80 Z M210.49,159.29 V164.98 H216.18 V159.29 H210.49 Z M221.87,159.29 V164.98 H227.56 V159.29 H221.87 Z M28.44,164.98 V170.67 H34.13 V164.98 H28.44 Z M45.51,164.98 V170.67 H51.20 V164.98 H45.51 Z M51.20,164.98 V170.67 H56.89 V164.98 H51.20 Z M68.27,164.98 V170.67 H73.96 V164.98 H68.27 Z M73.96,164.98 V170.67 H79.64 V164.98 H73.96 Z M85.33,164.98 V170.67 H91.02 V164.98 H85.33 Z M91.02,164.98 V170.67 H96.71 V164.98 H91.02 Z M108.09,164.98 V170.67 H113.78 V164.98 H108.09 Z M119.47,164.98 V170.67 H125.16 V164.98 H119.47 Z M125.16,164.98 V170.67 H130.84 V164.98 H125.16 Z M136.53,164.98 V170.67 H142.22 V164.98 H136.53 Z M142.22,164.98 V170.67 H147.91 V164.98 H142.22 Z M153.60,164.98 V170.67 H159.29 V164.98 H153.60 Z M159.29,164.98 V170.67 H164.98 V164.98 H159.29 Z M176.36,164.98 V170.67 H182.04 V164.98 H176.36 Z M204.80,164.98 V170.67 H210.49 V164.98 H204.80 Z M216.18,164.98 V170.67 H221.87 V164.98 H216.18 Z M221.87,164.98 V170.67 H227.56 V164.98 H221.87 Z M227.56,164.98 V170.67 H233.24 V164.98 H227.56 Z M22.76,170.67 V176.36 H28.44 V170.67 H22.76 Z M39.82,170.67 V176.36 H45.51 V170.67 H39.82 Z M45.51,170.67 V176.36 H51.20 V170.67 H45.51 Z M56.89,170.67 V176.36 H62.58 V170.67 H56.89 Z M73.96,170.67 V176.36 H79.64 V170.67 H73.96 Z M79.64,170.67 V176.36 H85.33 V170.67 H79.64 Z M85.33,170.67 V176.36 H91.02 V170.67 H85.33 Z M91.02,170.67 V176.36 H96.71 V170.67 H91.02 Z M96.71,170.67 V176.36 H102.40 V170.67 H96.71 Z M102.40,170.67 V176.36 H108.09 V170.67 H102.40 Z M113.78,170.67 V176.36 H119.47 V170.67 H113.78 Z M130.84,170.67 V176.36 H136.53 V170.67 H130.84 Z M142.22,170.67 V176.36 H147.91 V170.67 H142.22 Z M159.29,170.67 V176.36 H164.98 V170.67 H159.29 Z M164.98,170.67 V176.36 H170.67 V170.67 H164.98 Z M170.67,170.67 V176.36 H176.36 V170.67 H170.67 Z M182.04,170.67 V176.36 H187.73 V170.67 H182.04 Z M193.42,170.67 V176.36 H199.11 V170.67 H193.42 Z M204.80,170.67 V176.36 H210.49 V170.67 H204.80 Z M216.18,170.67 V176.36 H221.87 V170.67 H216.18 Z M221.87,170.67 V176.36 H227.56 V170.67 H221.87 Z M227.56,170.67 V176.36 H233.24 V170.67 H227.56 Z M22.76,176.36 V182.04 H28.44 V176.36 H22.76 Z M28.44,176.36 V182.04 H34.13 V176.36 H28.44 Z M34.13,176.36 V182.04 H39.82 V176.36 H34.13 Z M39.82,176.36 V182.04 H45.51 V176.36 H39.82 Z M45.51,176.36 V182.04 H51.20 V176.36 H45.51 Z M51.20,176.36 V182.04 H56.89 V176.36 H51.20 Z M62.58,176.36 V182.04 H68.27 V176.36 H62.58 Z M68.27,176.36 V182.04 H73.96 V176.36 H68.27 Z M108.09,176.36 V182.04 H113.78 V176.36 H108.09 Z M153.60,176.36 V182.04 H159.29 V176.36 H153.60 Z M159.29,176.36 V182.04 H164.98 V176.36 H159.29 Z M176.36,176.36 V182.04 H182.04 V176.36 H176.36 Z M193.42,176.36 V182.04 H199.11 V176.36 H193.42 Z M199.11,176.36 V182.04 H204.80 V176.36 H199.11 Z M210.49,176.36 V182.04 H216.18 V176.36 H210.49 Z M221.87,176.36 V182.04 H227.56 V176.36 H221.87 Z M227.56,176.36 V182.04 H233.24 V176.36 H227.56 Z M39.82,182.04 V187.73 H45.51 V182.04 H39.82 Z M51.20,182.04 V187.73 H56.89 V182.04 H51.20 Z M56.89,182.04 V187.73 H62.58 V182.04 H56.89 Z M62.58,182.04 V187.73 H68.27 V182.04 H62.58 Z M79.64,182.04 V187.73 H85.33 V182.04 H79.64 Z M96.71,182.04 V187.73 H102.40 V182.04 H96.71 Z M108.09,182.04 V187.73 H113.78 V182.04 H108.09 Z M119.47,182.04 V187.73 H125.16 V182.04 H119.47 Z M125.16,182.04 V187.73 H130.84 V182.04 H125.16 Z M136.53,182.04 V187.73 H142.22 V182.04 H136.53 Z M142.22,182.04 V187.73 H147.91 V182.04 H142.22 Z M147.91,182.04 V187.73 H153.60 V182.04 H147.91 Z M164.98,182.04 V187.73 H170.67 V182.04 H164.98 Z M182.04,182.04 V187.73 H187.73 V182.04 H182.04 Z M187.73,182.04 V187.73 H193.42 V182.04 H187.73 Z M193.42,182.04 V187.73 H199.11 V182.04 H193.42 Z M199.11,182.04 V187.73 H204.80 V182.04 H199.11 Z M204.80,182.04 V187.73 H210.49 V182.04 H204.80 Z M210.49,182.04 V187.73 H216.18 V182.04 H210.49 Z M221.87,182.04 V187.73 H227.56 V182.04 H221.87 Z M227.56,182.04 V187.73 H233.24 V182.04 H227.56 Z M68.27,187.73 V193.42 H73.96 V187.73 H68.27 Z M79.64,187.73 V193.42 H85.33 V187.73 H79.64 Z M102.40,187.73 V193.42 H108.09 V187.73 H102.40 Z M108.09,187.73 V193.42 H113.78 V187.73 H108.09 Z M113.78,187.73 V193.42 H119.47 V187.73 H113.78 Z M125.16,187.73 V193.42 H130.84 V187.73 H125.16 Z M142.22,187.73 V193.42 H147.91 V187.73 H142.22 Z M153.60,187.73 V193.42 H159.29 V187.73 H153.60 Z M170.67,187.73 V193.42 H176.36 V187.73 H170.67 Z M182.04,187.73 V193.42 H187.73 V187.73 H182.04 Z M204.80,187.73 V193.42 H210.49 V187.73 H204.80 Z M210.49,187.73 V193.42 H216.18 V187.73 H210.49 Z M216.18,187.73 V193.42 H221.87 V187.73 H216.18 Z M221.87,187.73 V193.42 H227.56 V187.73 H221.87 Z M22.76,193.42 V199.11 H28.44 V193.42 H22.76 Z M28.44,193.42 V199.11 H34.13 V193.42 H28.44 Z M34.13,193.42 V199.11 H39.82 V193.42 H34.13 Z M39.82,193.42 V199.11 H45.51 V193.42 H39.82 Z M45.51,193.42 V199.11 H51.20 V193.42 H45.51 Z M51.20,193.42 V199.11 H56.89 V193.42 H51.20 Z M56.89,193.42 V199.11 H62.58 V193.42 H56.89 Z M73.96,193.42 V199.11 H79.64 V193.42 H73.96 Z M79.64,193.42 V199.11 H85.33 V193.42 H79.64 Z M91.02,193.42 V199.11 H96.71 V193.42 H91.02 Z M96.71,193.42 V199.11 H102.40 V193.42 H96.71 Z M102.40,193.42 V199.11 H108.09 V193.42 H102.40 Z M108.09,193.42 V199.11 H113.78 V193.42 H108.09 Z M113.78,193.42 V199.11 H119.47 V193.42 H113.78 Z M119.47,193.42 V199.11 H125.16 V193.42 H119.47 Z M125.16,193.42 V199.11 H130.84 V193.42 H125.16 Z M136.53,193.42 V199.11 H142.22 V193.42 H136.53 Z M142.22,193.42 V199.11 H147.91 V193.42 H142.22 Z M147.91,193.42 V199.11 H153.60 V193.42 H147.91 Z M159.29,193.42 V199.11 H164.98 V193.42 H159.29 Z M164.98,193.42 V199.11 H170.67 V193.42 H164.98 Z M170.67,193.42 V199.11 H176.36 V193.42 H170.67 Z M182.04,193.42 V199.11 H187.73 V193.42 H182.04 Z M193.42,193.42 V199.11 H199.11 V193.42 H193.42 Z M204.80,193.42 V199.11 H210.49 V193.42 H204.80 Z M227.56,193.42 V199.11 H233.24 V193.42 H227.56 Z M22.76,199.11 V204.80 H28.44 V199.11 H22.76 Z M56.89,199.11 V204.80 H62.58 V199.11 H56.89 Z M68.27,199.11 V204.80 H73.96 V199.11 H68.27 Z M73.96,199.11 V204.80 H79.64 V199.11 H73.96 Z M91.02,199.11 V204.80 H96.71 V199.11 H91.02 Z M102.40,199.11 V204.80 H108.09 V199.11 H102.40 Z M119.47,199.11 V204.80 H125.16 V199.11 H119.47 Z M136.53,199.11 V204.80 H142.22 V199.11 H136.53 Z M142.22,199.11 V204.80 H147.91 V199.11 H142.22 Z M147.91,199.11 V204.80 H153.60 V199.11 H147.91 Z M153.60,199.11 V204.80 H159.29 V199.11 H153.60 Z M159.29,199.11 V204.80 H164.98 V199.11 H159.29 Z M182.04,199.11 V204.80 H187.73 V199.11 H182.04 Z M204.80,199.11 V204.80 H210.49 V199.11 H204.80 Z M216.18,199.11 V204.80 H221.87 V199.11 H216.18 Z M22.76,204.80 V210.49 H28.44 V204.80 H22.76 Z M34.13,204.80 V210.49 H39.82 V204.80 H34.13 Z M39.82,204.80 V210.49 H45.51 V204.80 H39.82 Z M45.51,204.80 V210.49 H51.20 V204.80 H45.51 Z M56.89,204.80 V210.49 H62.58 V204.80 H56.89 Z M85.33,204.80 V210.49 H91.02 V204.80 H85.33 Z M102.40,204.80 V210.49 H108.09 V204.80 H102.40 Z M119.47,204.80 V210.49 H125.16 V204.80 H119.47 Z M125.16,204.80 V210.49 H130.84 V204.80 H125.16 Z M136.53,204.80 V210.49 H142.22 V204.80 H136.53 Z M153.60,204.80 V210.49 H159.29 V204.80 H153.60 Z M170.67,204.80 V210.49 H176.36 V204.80 H170.67 Z M182.04,204.80 V210.49 H187.73 V204.80 H182.04 Z M187.73,204.80 V210.49 H193.42 V204.80 H187.73 Z M193.42,204.80 V210.49 H199.11 V204.80 H193.42 Z M199.11,204.80 V210.49 H204.80 V204.80 H199.11 Z M204.80,204.80 V210.49 H210.49 V204.80 H204.80 Z M210.49,204.80 V210.49 H216.18 V204.80 H210.49 Z M216.18,204.80 V210.49 H221.87 V204.80 H216.18 Z M221.87,204.80 V210.49 H227.56 V204.80 H221.87 Z M227.56,204.80 V210.49 H233.24 V204.80 H227.56 Z M22.76,210.49 V216.18 H28.44 V210.49 H22.76 Z M34.13,210.49 V216.18 H39.82 V210.49 H34.13 Z M39.82,210.49 V216.18 H45.51 V210.49 H39.82 Z M45.51,210.49 V216.18 H51.20 V210.49 H45.51 Z M56.89,210.49 V216.18 H62.58 V210.49 H56.89 Z M79.64,210.49 V216.18 H85.33 V210.49 H79.64 Z M108.09,210.49 V216.18 H113.78 V210.49 H108.09 Z M113.78,210.49 V216.18 H119.47 V210.49 H113.78 Z M147.91,210.49 V216.18 H153.60 V210.49 H147.91 Z M164.98,210.49 V216.18 H170.67 V210.49 H164.98 Z M170.67,210.49 V216.18 H176.36 V210.49 H170.67 Z M199.11,210.49 V216.18 H204.80 V210.49 H199.11 Z M204.80,210.49 V216.18 H210.49 V210.49 H204.80 Z M22.76,216.18 V221.87 H28.44 V216.18 H22.76 Z M34.13,216.18 V221.87 H39.82 V216.18 H34.13 Z M39.82,216.18 V221.87 H45.51 V216.18 H39.82 Z M45.51,216.18 V221.87 H51.20 V216.18 H45.51 Z M56.89,216.18 V221.87 H62.58 V216.18 H56.89 Z M96.71,216.18 V221.87 H102.40 V216.18 H96.71 Z M102.40,216.18 V221.87 H108.09 V216.18 H102.40 Z M113.78,216.18 V221.87 H119.47 V216.18 H113.78 Z M125.16,216.18 V221.87 H130.84 V216.18 H125.16 Z M130.84,216.18 V221.87 H136.53 V216.18 H130.84 Z M147.91,216.18 V221.87 H153.60 V216.18 H147.91 Z M164.98,216.18 V221.87 H170.67 V216.18 H164.98 Z M182.04,216.18 V221.87 H187.73 V216.18 H182.04 Z M193.42,216.18 V221.87 H199.11 V216.18 H193.42 Z M199.11,216.18 V221.87 H204.80 V216.18 H199.11 Z M216.18,216.18 V221.87 H221.87 V216.18 H216.18 Z M22.76,221.87 V227.56 H28.44 V221.87 H22.76 Z M56.89,221.87 V227.56 H62.58 V221.87 H56.89 Z M96.71,221.87 V227.56 H102.40 V221.87 H96.71 Z M119.47,221.87 V227.56 H125.16 V221.87 H119.47 Z M125.16,221.87 V227.56 H130.84 V221.87 H125.16 Z M130.84,221.87 V227.56 H136.53 V221.87 H130.84 Z M136.53,221.87 V227.56 H142.22 V221.87 H136.53 Z M142.22,221.87 V227.56 H147.91 V221.87 H142.22 Z M147.91,221.87 V227.56 H153.60 V221.87 H147.91 Z M170.67,221.87 V227.56 H176.36 V221.87 H170.67 Z M176.36,221.87 V227.56 H182.04 V221.87 H176.36 Z M187.73,221.87 V227.56 H193.42 V221.87 H187.73 Z M204.80,221.87 V227.56 H210.49 V221.87 H204.80 Z M210.49,221.87 V227.56 H216.18 V221.87 H210.49 Z M216.18,221.87 V227.56 H221.87 V221.87 H216.18 Z M227.56,221.87 V227.56 H233.24 V221.87 H227.56 Z M22.76,227.56 V233.24 H28.44 V227.56 H22.76 Z M28.44,227.56 V233.24 H34.13 V227.56 H28.44 Z M34.13,227.56 V233.24 H39.82 V227.56 H34.13 Z M39.82,227.56 V233.24 H45.51 V227.56 H39.82 Z M45.51,227.56 V233.24 H51.20 V227.56 H45.51 Z M51.20,227.56 V233.24 H56.89 V227.56 H51.20 Z M56.89,227.56 V233.24 H62.58 V227.56 H56.89 Z M73.96,227.56 V233.24 H79.64 V227.56 H73.96 Z M79.64,227.56 V233.24 H85.33 V227.56 H79.64 Z M96.71,227.56 V233.24 H102.40 V227.56 H96.71 Z M102.40,227.56 V233.24 H108.09 V227.56 H102.40 Z M108.09,227.56 V233.24 H113.78 V227.56 H108.09 Z M113.78,227.56 V233.24 H119.47 V227.56 H113.78 Z M119.47,227.56 V233.24 H125.16 V227.56 H119.47 Z M125.16,227.56 V233.24 H130.84 V227.56 H125.16 Z M136.53,227.56 V233.24 H142.22 V227.56 H136.53 Z M142.22,227.56 V233.24 H147.91 V227.56 H142.22 Z M147.91,227.56 V233.24 H153.60 V227.56 H147.91 Z M164.98,227.56 V233.24 H170.67 V227.56 H164.98 Z M170.67,227.56 V233.24 H176.36 V227.56 H170.67 Z M176.36,227.56 V233.24 H182.04 V227.56 H176.36 Z M182.04,227.56 V233.24 H187.73 V227.56 H182.04 Z M187.73,227.56 V233.24 H193.42 V227.56 H187.73 Z M193.42,227.56 V233.24 H199.11 V227.56 H193.42 Z M216.18,227.56 V233.24 H221.87 V227.56 H216.18 Z M227.56,227.56 V233.24 H233.24 V227.56 H227.56 Z " /></svg>