<svg xmlns="http://www.w3.org/2000/svg" version="1.1" width="256" height="256">
  <rect x="0" y="0" width="256" height="256" style="fill:#ffffff;shape-rendering:crispEdges;"/>
  <path x="0" y="0" style="fill:#000000;shape-rendering:crispEdges;" d="M24.98,24.98 V31.22 H31.22 V24.98 H24.98 Z M31.22,24.98 V31.22 H37.46 V24.98 H31.22 Z M37.46,24.98 V31.22 H43.71 V24.98 H37.46 Z M43.71,24.98 V31.22 H49.95 V24.98 H43.71 Z M49.95,24.98 V31.22 H56.20 V24.98 H49.95 Z M56.20,24.98 V31.22 H62.44 V24.98 H56.20 Z M62.44,24.98 V31.22 H68.68 V24.98 H62.44 Z M74.93,24.98 V31.22 H81.17 V24.98 H74.93 Z M93.66,24.98 V31.22 H99.90 V24.98 H93.66 Z M99.90,24.98 V31.22 H106.15 V24.98 H99.90 Z M106.15,24.98 V31.22 H112.39 V24.98 H106.15 Z M137.37,24.98 V31.22 H143.61 V24.98 H137.37 Z M143.61,24.98 V31.22 H149.85 V24.98 H143.61 Z M149.85,24.98 V31.22 H156.10 V24.98 H149.85 Z M156.10,24.98 V31.22 H162.34 V24.98 H156.10 Z M174.83,24.98 V31.22 H181.07 V24.98 H174.83 Z M187.32,24.98 V31.22 H193.56 V24.98 H187.32 Z M193.56,24.98 V31.22 H199.80 V24.98 H193.56 Z M199.80,24.98 V31.22 H206.05 V24.98 H199.80 Z M206.05,24.98 V31.22 H212.29 V24.98 H206.05 Z M212.29,24.98 V31.22 H218.54 V24.98 H212.29 Z M218.54,24.98 V31.22 H224.78 V24.98 H218.54 Z M224.78,24.98 V31.22 H231.02 V24.98 H224.78 Z M24.98,31.22 V37.46 H31.22 V31.22 H24.98 Z M62.44,31.22 V37.46 H68.68 V31.22 H62.44 Z M87.41,31.22 V37.46 H93.66 V31.22 H87.41 Z M99.90,31.22 V37.46 H106.15 V31.22 H99.90 Z M131.12,31.22 V37.46 H137.37 V31.22 H131.12 Z M137.37,31.22 V37.46 H143.61 V31.22 H137.37 Z M149.85,31.22 V37.46 H156.10 V31.22 H149.85 Z M168.59,31.22 V37.46 H174.83 V31.22 H168.59 Z M187.32,31.22 V37.46 H193.56 V31.22 H187.32 Z M224.78,31.22 V37.46 H231.02 V31.22 H224.78 Z M24.98,37.46 V43.71 H31.22 V37.46 H24.98 Z M37.46,37.46 V43.71 H43.71 V37.46 H37.46 Z M43.71,37.46 V43.71 H49.95 V37.46 H43.71 Z M49.95,37.46 V43.71 H56.20 V37.46 H49.95 Z M62.44,37.46 V43.71 H68.68 V37.46 H62.44 Z M74.93,37.46 V43.71 H81.17 V37.46 H74.93 Z M81.17,37.46 V43.71 H87.41 V37.46 H81.17 Z M118.63,37.46 V43.71 H124.88 V37.46 H118.63 Z M124.88,37.46 V43.71 H131.12 V37.46 H124.88 Z M131.12,37.46 V43.71 H137.37 V37.46 H131.12 Z M149.85,37.46 V43.71 H156.10 V37.46 H149.85 Z M168.59,37.46 V43.71 H174.83 V37.46 H168.59 Z M187.32,37.46 V43.71 H193.56 V37.46 H187.32 Z M199.80,37.46 V43.71 H206.05 V37.46 H199.80 Z M206.05,37.46 V43.71 H212.29 V37.46 H206.05 Z M212.29,37.46 V43.71 H218.54 V37.46 H212.29 Z M224.78,37.46 V43.71 H231.02 V37.46 H224.78 Z M24.98,43.71 V49.95 H31.22 V43.71 H24.98 Z M37.46,43.71 V49.95 H43.71 V43.71 H37.46 Z M43.71,43.71 V49.95 H49.95 V43.71 H43.71 Z M49.95,43.71 V49.95 H56.20 V43.71 H49.95 Z M62.44,43.71 V49.95 H68.68 V43.71 H62.44 Z M74.93,43.71 V49.95 H81.17 V43.71 H74.93 Z M81.17,43.71 V49.95 H87.41 V43.71 H81.17 Z M99.90,43.71 V49.95 H106.15 V43.71 H99.90 Z M106.15,43.71 V49.95 H112.39 V43.71 H106.15 Z M124.88,43.71 V49.95 H131.12 V43.71 H124.88 Z M137.37,43.71 V49.95 H143.61 V43.71 H137.37 Z M143.61,43.71 V49.95 H149.85 V43.71 H143.61 Z M149.85,43.71 V49.95 H156.10 V43.71 H149.85 Z M156.10,43.71 V49.95 H162.34 V43.71 H156.10 Z M162.34,43.71 V49.95 H168.59 V43.71 H162.34 Z M187.32,43.71 V49.95 H193.56 V43.71 H187.32 Z M199.80,43.71 V49.95 H206.05 V43.71 H199.80 Z M206.05,43.71 V49.95 H212.29 V43.71 H206.05 Z M212.29,43.71 V49.95 H218.54 V43.71 H212.29 Z M224.78,43.71 V49.95 H231.02 V43.71 H224.78 Z M24.98,49.95 V56.20 H31.22 V49.95 H24.98 Z M37.46,49.95 V56.20 H43.71 V49.95 H37.46 Z M43.71,49.95 V56.20 H49.95 V49.95 H43.71 Z M49.95,49.95 V56.20 H56.20 V49.95 H49.95 Z M62.44,49.95 V56.20 H68.68 V49.95 H62.44 Z M112.39,49.95 V56.20 H118.63 V49.95 H112.39 Z M124.88,49.95 V56.20 H131.12 V49.95 H124.88 Z M137.37,49.95 V56.20 H143.61 V49.95 H137.37 Z M149.85,49.95 V56.20 H156.10 V49.95 H149.85 Z M156.10,49.95 V56.20 H162.34 V49.95 H156.10 Z M162.34,49.95 V56.20 H168.59 V49.95 H162.34 Z M168.59,49.95 V56.20 H174.83 V49.95 H168.59 Z M174.83,49.95 V56.20 H181.07 V49.95 H174.83 Z M187.32,49.95 V56.20 H193.56 V49.95 H187.32 Z M199.80,49.95 V56.20 H206.05 V49.95 H199.80 Z M206.05,49.95 V56.20 H212.29 V49.95 H206.05 Z M212.29,49.95 V56.20 H218.54 V49.95 H212.29 Z M224.78,49.95 V56.20 H231.02 V49.95 H224.78 Z M24.98,56.20 V62.44 H31.22 V56.20 H24.98 Z M62.44,56.20 V62.44 H68.68 V56.20 H62.44 Z M74.93,56.20 V62.44 H81.17 V56.20 H74.93 Z M81.17,56.20 V62.44 H87.41 V56.20 H81.17 Z M93.66,56.20 V62.44 H99.90 V56.20 H93.66 Z M106.15,56.20 V62.44 H112.39 V56.20 H106.15 Z M118.63,56.20 V62.44 H124.88 V56.20 H118.63 Z M137.37,56.20 V62.44 H143.61 V56.20 H137.37 Z M149.85,56.20 V62.44 H156.10 V56.20 H149.85 Z M162.34,56.20 V62.44 H168.59 V56.20 H162.34 Z M174.83,56.20 V62.44 H181.07 V56.20 H174.83 Z M187.32,56.20 V62.44 H193.56 V56.20 H187.32 Z M224.78,56.20 V62.44 H231.02 V56.20 H224.78 Z M24.98,62.44 V68.68 H31.22 V62.44 H24.98 Z M31.22,62.44 V68.68 H37.46 V62.44 H31.22 Z M37.46,62.44 V68.68 H43.71 V62.44 H37.46 Z M43.71,62.44 V68.68 H49.95 V62.44 H43.71 Z M49.95,62.44 V68.68 H56.20 V62.44 H49.95 Z M56.20,62.44 V68.68 H62.44 V62.44 H56.20 Z M62.44,62.44 V68.68 H68.68 V62.44 H62.44 Z M74.93,62.44 V68.68 H81.17 V62.44 H74.93 Z M87.41,62.44 V68.68 H93.66 V62.44 H87.41 Z M99.90,62.44 V68.68 H106.15 V62.44 H99.90 Z M112.39,62.44 V68.68 H118.63 V62.44 H112.39 Z M124.88,62.44 V68.68 H131.12 V62.44 H124.88 Z M137.37,62.44 V68.68 H143.61 V62.44 H137.37 Z M149.85,62.44 V68.68 H156.10 V62.44 H149.85 Z M162.34,62.44 V68.68 H168.59 V62.44 H162.34 Z M174.83,62.44 V68.68 H181.07 V62.44 H174.83 Z M187.32,62.44 V68.68 H193.56 V62.44 H187.32 Z M193.56,62.44 V68.68 H199.80 V62.44 H193.56 Z M199.80,62.44 V68.68 H206.05 V62.44 H199.80 Z M206.05,62.44 V68.68 H212.29 V62.44 H206.05 Z M212.29,62.44 V68.68 H218.54 V62.44 H212.29 Z M218.54,62.44 V68.68 H224.78 V62.44 H218.54 Z M224.78,62.44 V68.68 H231.02 V62.44 H224.78 Z M74.93,68.68 V74.93 H81.17 V68.68 H74.93 Z M87.41,68.68 V74.93 H93.66 V68.68 H87.41 Z M93.66,68.68 V74.93 H99.90 V68.68 H93.66 Z M99.90,68.68 V74.93 H106.15 V68.68 H99.90 Z M118.63,68.68 V74.93 H124.88 V68.68 H118.63 Z M131.12,68.68 V74.93 H137.37 V68.68 H131.12 Z M149.85,68.68 V74.93 H156.10 V68.68 H149.85 Z M156.10,68.68 V74.93 H162.34 V68.68 H156.10 Z M168.59,68.68 V74.93 H174.83 V68.68 H168.59 Z M174.83,68.68 V74.93 H181.07 V68.68 H174.83 Z M24.98,74.93 V81.17 H31.22 V74.93 H24.98 Z M31.22,74.93 V81.17 H37.46 V74.93 H31.22 Z M43.71,74.93 V81.17 H49.95 V74.93 H43.71 Z M62.44,74.93 V81.17 H68.68 V74.93 H62.44 Z M68.68,74.93 V81.17 H74.93 V74.93 H68.68 Z M93.66,74.93 V81.17 H99.90 V74.93 H93.66 Z M99.90,74.93 V81.17 H106.15 V74.93 H99.90 Z M118.63,74.93 V81.17 H124.88 V74.93 H118.63 Z M124.88,74.93 V81.17 H131.12 V74.93 H124.88 Z M137.37,74.93 V81.17 H143.61 V74.93 H137.37 Z M143.61,74.93 V81.17 H149.85 V74.93 H143.61 Z M149.85,74.93 V81.17 H156.10 V74.93 H149.85 Z M156.10,74.93 V81.17 H162.34 V74.93 H156.10 Z M162.34,74.93 V81.17 H168.59 V74.93 H162.34 Z M168.59,74.93 V81.17 H174.83 V74.93 H168.59 Z M174.83,74.93 V81.17 H181.07 V74.93 H174.83 Z M181.07,74.93 V81.17 H187.32 V74.93 H181.07 Z M187.32,74.93 V81.17 H193.56 V74.93 H187.32 Z M193.56,74.93 V81.17 H199.80 V74.93 H193.56 Z M206.05,74.93 V81.17 H212.29 V74.93 H206.05 Z M212.29,74.93 V81.17 H218.54 V74.93 H212.29 Z M224.78,74.93 V81.17 H231.02 V74.93 H224.78 Z M31.22,81.17 V87.41 H37.46 V81.17 H31.22 Z M37.46,81.17 V87.41 H43.71 V81.17 H37.46 Z M68.68,81.17 V87.41 H74.93 V81.17 H68.68 Z M74.93,81.17 V87.41 H81.17 V81.17 H74.93 Z M93.66,81.17 V87.41 H99.90 V81.17 H93.66 Z M99.90,81.17 V87.41 H106.15 V81.17 H99.90 Z M112.39,81.17 V87.41 H118.63 V81.17 H112.39 Z M118.63,81.17 V87.41 H124.88 V81.17 H118.63 Z M124.88,81.17 V87.41 H131.12 V81.17 H124.88 Z M131.12,81.17 V87.41 H137.37 V81.17 H131.12 Z M137.37,81.17 V87.41 H143.61 V81.17 H137.37 Z M168.59,81.17 V87.41 H174.83 V81.17 H168.59 Z M174.83,81.17 V87.41 H181.07 V81.17 H174.83 Z M181.07,81.17 V87.41 H187.32 V81.17 H181.07 Z M193.56,81.17 V87.41 H199.80 V81.17 H193.56 Z M206.05,81.17 V87.41 H212.29 V81.17 H206.05 Z M212.29,81.17 V87.41 H218.54 V81.17 H212.29 Z M218.54,81.17 V87.41 H224.78 V81.17 H218.54 Z M224.78,81.17 V87.41 H231.02 V81.17 H224.78 Z M24.98,87.41 V93.66 H31.22 V87.41 H24.98 Z M31.22,87.41 V93.66 H37.46 V87.41 H31.22 Z M37.46,87.41 V93.66 H43.71 V87.41 H37.46 Z M43.71,87.41 V93.66 H49.95 V87.41 H43.71 Z M49.95,87.41 V93.66 H56.20 V87.41 H49.95 Z M56.20,87.41 V93.66 H62.44 V87.41 H56.20 Z M62.44,87.41 V93.66 H68.68 V87.41 H62.44 Z M81.17,87.41 V93.66 H87.41 V87.41 H81.17 Z M87.41,87.41 V93.66 H93.66 V87.41 H87.41 Z M99.90,87.41 V93.66 H106.15 V87.41 H99.90 Z M118.63,87.41 V93.66 H124.88 V87.41 H118.63 Z M149.85,87.41 V93.66 H156.10 V87.41 H149.85 Z M156.10,87.41 V93.66 H162.34 V87.41 H156.10 Z M168.59,87.41 V93.66 H174.83 V87.41 H168.59 Z M181.07,87.41 V93.66 H187.32 V87.41 H181.07 Z M212.29,87.41 V93.66 H218.54 V87.41 H212.29 Z M218.54,87.41 V93.66 H224.78 V87.41 H218.54 Z M224.78,87.41 V93.66 H231.02 V87.41 H224.78 Z M24.98,93.66 V99.90 H31.22 V93.66 H24.98 Z M31.22,93.66 V99.90 H37.46 V93.66 H31.22 Z M37.46,93.66 V99.90 H43.71 V93.66 H37.46 Z M49.95,93.66 V99.90 H56.20 V93.66 H49.95 Z M68.68,93.66 V99.90 H74.93 V93.66 H68.68 Z M81.17,93.66 V99.90 H87.41 V93.66 H81.17 Z M93.66,93.66 V99.90 H99.90 V93.66 H93.66 Z M99.90,93.66 V99.90 H106.15 V93.66 H99.90 Z M131.12,93.66 V99.90 H137.37 V93.66 H131.12 Z M143.61,93.66 V99.90 H149.85 V93.66 H143.61 Z M149.85,93.66 V99.90 H156.10 V93.66 H149.85 Z M156.10,93.66 V99.90 H162.34 V93.66 H156.10 Z M162.34,93.66 V99.90 H168.59 V93.66 H162.34 Z M174.83,93.66 V99.90 H181.07 V93.66 H174.83 Z M193.56,93.66 V99.90 H199.80 V93.66 H193.56 Z M212.29,93.66 V99.90 H218.54 V93.66 H212.29 Z M49.95,99.90 V106.15 H56.20 V99.90 H49.95 Z M56.20,99.90 V106.15 H62.44 V99.90 H56.20 Z M62.44,99.90 V106.15 H68.68 V99.90 H62.44 Z M81.17,99.90 V106.15 H87.41 V99.90 H81.17 Z M99.90,99.90 V106.15 H106.15 V99.90 H99.90 Z M112.39,99.90 V106.15 H118.63 V99.90 H112.39 Z M131.12,99.90 V106.15 H137.37 V99.90 H131.12 Z M137.37,99.90 V106.15 H143.61 V99.90 H137.37 Z M218.54,99.90 V106.15 H224.78 V99.90 H218.54 Z M37.46,106.15 V112.39 H43.71 V106.15 H37.46 Z M49.95,106.15 V112.39 H56.20 V106.15 H49.95 Z M68.68,106.15 V112.39 H74.93 V106.15 H68.68 Z M81.17,106.15 V112.39 H87.41 V106.15 H81.17 Z M87.41,106.15 V112.39 H93.66 V106.15 H87.41 Z M106.15,106.15 V112.39 H112.39 V106.15 H106.15 Z M112.39,106.15 V112.39 H118.63 V106.15 H112.39 Z M124.88,106.15 V112.39 H131.12 V106.15 H124.88 Z M206.05,106.15 V112.39 H212.29 V106.15 H206.05 Z M212.29,106.15 V112.39 H218.54 V106.15 H212.29 Z M218.54,106.15 V112.39 H224.78 V106.15 H218.54 Z M224.78,106.15 V112.39 H231.02 V106.15 H224.78 Z M24.98,112.39 V118.63 H31.22 V112.39 H24.98 Z M31.22,112.39 V118.63 H37.46 V112.39 H31.22 Z M37.46,112.39 V118.63 H43.71 V112.39 H37.46 Z M62.44,112.39 V118.63 H68.68 V112.39 H62.44 Z M68.68,112.39 V118.63 H74.93 V112.39 H68.68 Z M74.93,112.39 V118.63 H81.17 V112.39 H74.93 Z M99.90,112.39 V118.63 H106.15 V112.39 H99.90 Z M106.15,112.39 V118.63 H112.39 V112.39 H106.15 Z M112.39,112.39 V118.63 H118.63 V112.39 H112.39 Z M131.12,112.39 V118.63 H137.37 V112.39 H131.12 Z M137.37,112.39 V118.63 H143.61 V112.39 H137.37 Z M143.61,112.39 V118.63 H149.85 V112.39 H143.61 Z M149.85,112.39 V118.63 H156.10 V112.39 H149.85 Z M156.10,112.39 V118.63 H162.34 V112.39 H156.10 Z M162.34,112.39 V118.63 H168.59 V112.39 H162.34 Z M168.59,112.39 V118.63 H174.83 V112.39 H168.59 Z M174.83,112.39 V118.63 H181.07 V112.39 H174.83 Z M181.07,112.39 V118.63 H187.32 V112.39 H181.07 Z M187.32,112.39 V118.63 H193.56 V112.39 H187.32 Z M199.80,112.39 V118.63 H206.05 V112.39 H199.80 Z M31.22,118.63 V124.88 H37.46 V118.63 H31.22 Z M37.46,118.63 V124.88 H43.71 V118.63 H37.46 Z M56.20,118.63 V124.88 H62.44 V118.63 H56.20 Z M68.68,118.63 V124.88 H74.93 V118.63 H68.68 Z M74.93,118.63 V124.88 H81.17 V118.63 H74.93 Z M81.17,118.63 V124.88 H87.41 V118.63 H81.17 Z M87.41,118.63 V124.88 H93.66 V118.63 H87.41 Z M118.63,118.63 V124.88 H124.88 V118.63 H118.63 Z M131.12,118.63 V124.88 H137.37 V118.63 H131.12 Z M143.61,118.63 V124.88 H149.85 V118.63 H143.61 Z M149.85,118.63 V124.88 H156.10 V118.63 H149.85 Z M156.10,118.63 V124.88 H162.34 V118.63 H156.10 Z M162.34,118.63 V124.88 H168.59 V118.63 H162.34 Z M168.59,118.63 V124.88 H174.83 V118.63 H168.59 Z M181.07,118.63 V124.88 H187.32 V118.63 H181.07 Z M187.32,118.63 V124.88 H193.56 V118.63 H187.32 Z M193.56,118.63 V124.88 H199.80 V118.63 H193.56 Z M199.80,118.63 V124.88 H206.05 V118.63 H199.80 Z M212.29,118.63 V124.88 H218.54 V118.63 H212.29 Z M37.46,124.88 V131.12 H43.71 V124.88 H37.46 Z M49.95,124.88 V131.12 H56.20 V124.88 H49.95 Z M56.20,124.88 V131.12 H62.44 V124.88 H56.20 Z M62.44,124.88 V131.12 H68.68 V124.88 H62.44 Z M68.68,124.88 V131.12 H74.93 V124.88 H68.68 Z M74.93,124.88 V131.12 H81.17 V124.88 H74.93 Z M87.41,124.88 V131.12 H93.66 V124.88 H87.41 Z M93.66,124.88 V131.12 H99.90 V124.88 H93.66 Z M99.90,124.88 V131.12 H106.15 V124.88 H99.90 Z M137.37,124.88 V131.12 H143.61 V124.88 H137.37 Z M143.61,124.88 V131.12 H149.85 V124.88 H143.61 Z M149.85,124.88 V131.12 H156.10 V124.88 H149.85 Z M156.10,124.88 V131.12 H162.34 V124.88 H156.10 Z M187.32,124.88 V131.12 H193.56 V124.88 H187.32 Z M193.56,124.88 V131.12 H199.80 V124.88 H193.56 Z M199.80,124.88 V131.12 H206.05 V124.88 H199.80 Z M206.05,124.88 V131.12 H212.29 V124.88 H206.05 Z M212.29,124.88 V131.12 H218.54 V124.88 H212.29 Z M224.78,124.88 V131.12 H231.02 V124.88 H224.78 Z M31.22,131.12 V137.37 H37.46 V131.12 H31.22 Z M49.95,131.12 V137.37 H56.20 V131.12 H49.95 Z M81.17,131.12 V137.37 H87.41 V131.12 H81.17 Z M93.66,131.12 V137.37 H99.90 V131.12 H93.66 Z M106.15,131.12 V137.37 H112.39 V131.12 H106.15 Z M112.39,131.12 V137.37 H118.63 V131.12 H112.39 Z M118.63,131.12 V137.37 H124.88 V131.12 H118.63 Z M124.88,131.12 V137.37 H131.12 V131.12 H124.88 Z M143.61,131.12 V137.37 H149.85 V131.12 H143.61 Z M162.34,131.12 V137.37 H168.59 V131.12 H162.34 Z M168.59,131.12 V137.37 H174.83 V131.12 H168.59 Z M174.83,131.12 V137.37 H181.07 V131.12 H174.83 Z M187.32,131.12 V137.37 H193.56 V131.12 H187.32 Z M193.56,131.12 V137.37 H199.80 V131.12 H193.56 Z M199.80,131.12 V137.37 H206.05 V131.12 H199.80 Z M212.29,131.12 V137.37 H218.54 V131.12 H212.29 Z M24.98,137.37 V143.61 H31.22 V137.37 H24.98 Z M37.46,137.37 V143.61 H43.71 V137.37 H37.46 Z M43.71,137.37 V143.61 H49.95 V137.37 H43.71 Z M49.95,137.37 V143.61 H56.20 V137.37 H49.95 Z M56.20,137.37 V143.61 H62.44 V137.37 H56.20 Z M62.44,137.37 V143.61 H68.68 V137.37 H62.44 Z M81.17,137.37 V143.61 H87.41 V137.37 H81.17 Z M87.41,137.37 V143.61 H93.66 V137.37 H87.41 Z M118.63,137.37 V143.61 H124.88 V137.37 H118.63 Z M137.37,137.37 V143.61 H143.61 V137.37 H137.37 Z M143.61,137.37 V143.61 H149.85 V137.37 H143.61 Z M162.34,137.37 V143.61 H168.59 V137.37 H162.34 Z M187.32,137.37 V143.61 H193.56 V137.37 H187.32 Z M193.56,137.37 V143.61 H199.80 V137.37 H193.56 Z M199.80,137.37 V143.61 H206.05 V137.37 H199.80 Z M218.54,137.37 V143.61 H224.78 V137.37 H218.54 Z M24.98,143.61 V149.85 H31.22 V143.61 H24.98 Z M31.22,143.61 V149.85 H37.46 V143.61 H31.22 Z M37.46,143.61 V149.85 H43.71 V143.61 H37.46 Z M68.68,143.61 V149.85 H74.93 V143.61 H68.68 Z M87.41,143.61 V149.85 H93.66 V143.61 H87.41 Z M93.66,143.61 V149.85 H99.90 V143.61 H93.66 Z M99.90,143.61 V149.85 H106.15 V143.61 H99.90 Z M112.39,143.61 V149.85 H118.63 V143.61 H112.39 Z M137.37,143.61 V149.85 H143.61 V143.61 H137.37 Z M143.61,143.61 V149.85 H149.85 V143.61 H143.61 Z M156.10,143.61 V149.85 H162.34 V143.61 H156.10 Z M162.34,143.61 V149.85 H168.59 V143.61 H162.34 Z M168.59,143.61 V149.85 H174.83 V143.61 H168.59 Z M181.07,143.61 V149.85 H187.32 V143.61 H181.07 Z M199.80,143.61 V149.85 H206.05 V143.61 H199.80 Z M212.29,143.61 V149.85 H218.54 V143.61 H212.29 Z M218.54,143.61 V149.85 H224.78 V143.61 H218.54 Z M24.98,149.85 V156.10 H31.22 V149.85 H24.98 Z M31.22,149.85 V156.10 H37.46 V149.85 H31.22 Z M62.44,149.85 V156.10 H68.68 V149.85 H62.44 Z M74.93,149.85 V156.10 H81.17 V149.85 H74.93 Z M87.41,149.85 V156.10 H93.66 V149.85 H87.41 Z M93.66,149.85 V156.10 H99.90 V149.85 H93.66 Z M106.15,149.85 V156.10 H112.39 V149.85 H106.15 Z M162.34,149.85 V156.10 H168.59 V149.85 H162.34 Z M168.59,149.85 V156.10 H174.83 V149.85 H168.59 Z M224.78,149.85 V156.10 H231.02 V149.85 H224.78 Z M24.98,156.10 V162.34 H31.22 V156.10 H24.98 Z M31.22,156.10 V162.34 H37.46 V156.10 H31.22 Z M37.46,156.10 V162.34 H43.71 V156.10 H37.46 Z M49.95,156.10 V162.34 H56.20 V156.10 H49.95 Z M56.20,156.10 V162.34 H62.44 V156.10 H56.20 Z M68.68,156.10 V162.34 H74.93 V156.10 H68.68 Z M74.93,156.10 V162.34 H81.17 V156.10 H74.93 Z M93.66,156.10 V162.34 H99.90 V156.10 H93.66 Z M99.90,156.10 V162.34 H106.15 V156.10 H99.90 Z M112.39,156.10 V162.34 H118.63 V156.10 H112.39 Z M124.88,156.10 V162.34 H131.12 V156.10 H124.88 Z M137.37,156.10 V162.34 H143.61 V156.10 H137.37 Z M143.61,156.10 V162.34 H149.85 V156.10 H143.61 Z M149.85,156.10 V162.34 H156.10 V156.10 H149.85 Z M156.10,156.10 V162.34 H162.34 V156.10 H156.10 Z M168.59,156.10 V162.34 H174.83 V156.10 H168.59 Z M181.07,156.10 V162.34 H187.32 V156.10 H181.07 Z M199.80,156.10 V162.34 H206.05 V156.10 H199.80 Z M212.29,156.10 V162.34 H218.54 V156.10 H212.29 Z M218.54,156.10 V162.34 H224.78 V156.10 H218.54 Z M224.78,156.10 V162.34 H231.02 V156.10 H224.78 Z M31.22,162.34 V168.59 H37.46 V162.34 H31.22 Z M43.71,162.34 V168.59 H49.95 V162.34 H43.71 Z M56.20,162.34 V168.59 H62.44 V162.34 H56.20 Z M62.44,162.34 V168.59 H68.68 V162.34 H62.44 Z M74.93,162.34 V168.59 H81.17 V162.34 H74.93 Z M81.17,162.34 V168.59 H87.41 V162.34 H81.17 Z M87.41,162.34 V168.59 H93.66 V162.34 H87.41 Z M106.15,162.34 V168.59 H112.39 V162.34 H106.15 Z M118.63,162.34 V168.59 H124.88 V162.34 H118.63 Z M124.88,162.34 V168.59 H131.12 V162.34 H124.88 Z M131.12,162.34 V168.59 H137.37 V162.34 H131.12 Z M143.61,162.34 V168.59 H149.85 V162.34 H143.61 Z M149.85,162.34 V168.59 H156.10 V162.34 H149.85 Z M156.10,162.34 V168.59 H162.34 V162.34 H156.10 Z M162.34,162.34 V168.59 H168.59 V162.34 H162.34 Z M168.59,162.34 V168.59 H174.83 V162.34 H168.59 Z M187.32,162.34 V168.59 H193.56 V162.34 H187.32 Z M199.80,162.34 V168.59 H206.05 V162.34 H199.80 Z M206.05,162.34 V168.59 H212.29 V162.34 H206.05 Z M224.78,162.34 V168.59 H231.02 V162.34 H224.78 Z M43.71,168.59 V174.83 H49.95 V168.59 H43.71 Z M49.95,168.59 V174.83 H56.20 V168.59 H49.95 Z M56.20,168.59 V174.83 H62.44 V168.59 H56.20 Z M74.93,168.59 V174.83 H81.17 V168.59 H74.93 Z M81.17,168.59 V174.83 H87.41 V168.59 H81.17 Z M93.66,168.59 V174.83 H99.90 V168.59 H93.66 Z M99.90,168.59 V174.83 H106.15 V168.59 H99.90 Z M106.15,168.59 V174.83 H112.39 V168.59 H106.15 Z M112.39,168.59 V174.83 H118.63 V168.59 H112.39 Z M118.63,168.59 V174.83 H124.88 V168.59 H118.63 Z M137.37,168.59 V174.83 H143.61 V168.59 H137.37 Z M149.85,168.59 V174.83 H156.10 V168.59 H149.85 Z M156.10,168.59 V174.83 H162.34 V168.59 H156.10 Z M181.07,168.59 V174.83 H187.32 V168.59 H181.07 Z M218.54,168.59 V174.83 H224.78 V168.59 H218.54 Z M24.98,174.83 V181.07 H31.22 V174.83 H24.98 Z M31.22,174.83 V181.07 H37.46 V174.83 H31.22 Z M43.71,174.83 V181.07 H49.95 V174.83 H43.71 Z M56.20,174.83 V181.07 H62.44 V174.83 H56.20 Z M62.44,174.83 V181.07 H68.68 V174.83 H62.44 Z M93.66,174.83 V181.07 H99.90 V174.83 H93.66 Z M118.63,174.83 V181.07 H124.88 V174.83 H118.63 Z M124.88,174.83 V181.07 H131.12 V174.83 H124.88 Z M137.37,174.83 V181.07 H143.61 V174.83 H137.37 Z M168.59,174.83 V181.07 H174.83 V174.83 H168.59 Z M174.83,174.83 V181.07 H181.07 V174.83 H174.83 Z M181.07,174.83 V181.07 H187.32 V174.83 H181.07 Z M187.32,174.83 V181.07 H193.56 V174.83 H187.32 Z M193.56,174.83 V181.07 H199.80 V174.83 H193.56 Z M199.80,174.83 V181.07 H206.05 V174.83 H199.80 Z M206.05,174.83 V181.07 H212.29 V174.83 H206.05 Z M218.54,174.83 V181.07 H224.78 V174.83 H218.54 Z M224.78,174.83 V181.07 H231.02 V174.83 H224.78 Z M81.17,181.07 V187.32 H87.41 V181.07 H81.17 Z M93.66,181.07 V187.32 H99.90 V181.07 H93.66 Z M99.90,181.07 V187.32 H106.15 V181.07 H99.90 Z M118.63,181.07 V187.32 H124.88 V181.07 H118.63 Z M131.12,181.07 V187.32 H137.37 V181.07 H131.12 Z M137.37,181.07 V187.32 H143.61 V181.07 H137.37 Z M143.61,181.07 V187.32 H149.85 V181.07 H143.61 Z M149.85,181.07 V187.32 H156.10 V181.07 H149.85 Z M162.34,181.07 V187.32 H168.59 V181.07 H162.34 Z M174.83,181.07 V187.32 H181.07 V181.07 H174.83 Z M199.80,181.07 V187.32 H206.05 V181.07 H199.80 Z M224.78,181.07 V187.32 H231.02 V181.07 H224.78 Z M24.98,187.32 V193.56 H31.22 V187.32 H24.98 Z M31.22,187.32 V193.56 H37.46 V187.32 H31.22 Z M37.46,187.32 V193.56 H43.71 V187.32 H37.46 Z M43.71,187.32 V193.56 H49.95 V187.32 H43.71 Z M49.95,187.32 V193.56 H56.20 V187.32 H49.95 Z M56.20,187.32 V193.56 H62.44 V187.32 H56.20 Z M62.44,187.32 V193.56 H68.68 V187.32 H62.44 Z M74.93,187.32 V193.56 H81.17 V187.32 H74.93 Z M87.41,187.32 V193.56 H93.66 V187.32 H87.41 Z M99.90,187.32 V193.56 H106.15 V187.32 H99.90 Z M112.39,187.32 V193.56 H118.63 V187.32 H112.39 Z M149.85,187.32 V193.56 H156.10 V187.32 H149.85 Z M162.34,187.32 V193.56 H168.59 V187.32 H162.34 Z M174.83,187.32 V193.56 H181.07 V187.32 H174.83 Z M187.32,187.32 V193.56 H193.56 V187.32 H187.32 Z M199.80,187.32 V193.56 H206.05 V187.32 H199.80 Z M206.05,187.32 V193.56 H212.29 V187.32 H206.05 Z M212.29,187.32 V193.56 H218.54 V187.32 H212.29 Z M224.78,187.32 V193.56 H231.02 V187.32 H224.78 Z M24.98,193.56 V199.80 H31.22 V193.56 H24.98 Z M62.44,193.56 V199.80 H68.68 V193.56 H62.44 Z M81.17,193.56 V199.80 H87.41 V193.56 H81.17 Z M112.39,193.56 V199.80 H118.63 V193.56 H112.39 Z M131.12,193.56 V199.80 H137.37 V193.56 H131.12 Z M149.85,193.56 V199.80 H156.10 V193.56 H149.85 Z M156.10,193.56 V199.80 H162.34 V193.56 H156.10 Z M168.59,193.56 V199.80 H174.83 V193.56 H168.59 Z M174.83,193.56 V199.80 H181.07 V193.56 H174.83 Z M199.80,193.56 V199.80 H206.05 V193.56 H199.80 Z M206.05,193.56 V199.80 H212.29 V193.56 H206.05 Z M212.29,193.56 V199.80 H218.54 V193.56 H212.29 Z M218.54,193.56 V199.80 H224.78 V193.56 H218.54 Z M224.78,193.56 V199.80 H231.02 V193.56 H224.78 Z M24.98,199.80 V206.05 H31.22 V199.80 H24.98 Z M37.46,199.80 V206.05 H43.71 V199.80 H37.46 Z M43.71,199.80 V206.05 H49.95 V199.80 H43.71 Z M49.95,199.80 V206.05 H56.20 V199.80 H49.95 Z M62.44,199.80 V206.05 H68.68 V199.80 H62.44 Z M81.17,199.80 V206.05 H87.41 V199.80 H81.17 Z M87.41,199.80 V206.05 H93.66 V199.80 H87.41 Z M93.66,199.80 V206.05 H99.90 V199.80 H93.66 Z M99.90,199.80 V206.05 H106.15 V199.80 H99.90 Z M106.15,199.80 V206.05 H112.39 V199.80 H106.15 Z M118.63,199.80 V206.05 H124.88 V199.80 H118.63 Z M124.88,199.80 V206.05 H131.12 V199.80 H124.88 Z M156.10,199.80 V206.05 H162.34 V199.80 H156.10 Z M174.83,199.80 V206.05 H181.07 V199.80 H174.83 Z M181.07,199.80 V206.05 H187.32 V199.80 H181.07 Z M187.32,199.80 V206.05 H193.56 V199.80 H187.32 Z M193.56,199.80 V206.05 H199.80 V199.80 H193.56 Z M199.80,199.80 V206.05 H206.05 V199.80 H199.80 Z M206.05,199.80 V206.05 H212.29 V199.80 H206.05 Z M212.29,199.80 V206.05 H218.54 V199.80 H212.29 Z M218.54,199.80 V206.05 H224.78 V199.80 H218.54 Z M24.98,206.05 V212.29 H31.22 V206.05 H24.98 Z M37.46,206.05 V212.29 H43.71 V206.05 H37.46 Z M43.71,206.05 V212.29 H49.95 V206.05 H43.71 Z M49.95,206.05 V212.29 H56.20 V206.05 H49.95 Z M62.44,206.05 V212.29 H68.68 V206.05 H62.44 Z M74.93,206.05 V212.29 H81.17 V206.05 H74.93 Z M99.90,206.05 V212.29 H106.15 V206.05 H99.90 Z M106.15,206.05 V212.29 H112.39 V206.05 H106.15 Z M131.12,206.05 V212.29 H137.37 V206.05 H131.12 Z M137.37,206.05 V212.29 H143.61 V206.05 H137.37 Z M206.05,206.05 V212.29 H212.29 V206.05 H206.05 Z M212.29,206.05 V212.29 H218.54 V206.05 H212.29 Z M24.98,212.29 V218.54 H31.22 V212.29 H24.98 Z M37.46,212.29 V218.54 H43.71 V212.29 H37.46 Z M43.71,212.29 V218.54 H49.95 V212.29 H43.71 Z M49.95,212.29 V218.54 H56.20 V212.29 H49.95 Z M62.44,212.29 V218.54 H68.68 V212.29 H62.44 Z M87.41,212.29 V218.54 H93.66 V212.29 H87.41 Z M93.66,212.29 V218.54 H99.90 V212.29 H93.66 Z M106.15,212.29 V218.54 H112.39 V212.29 H106.15 Z M124.88,212.29 V218.54 H131.12 V212.29 H124.88 Z M131.12,212.29 V218.54 H137.37 V212.29 H131.12 Z M143.61,212.29 V218.54 H149.85 V212.29 H143.61 Z M149.85,212.29 V218.54 H156.10 V212.29 H149.85 Z M156.10,212.29 V218.54 H162.34 V212.29 H156.10 Z M162.34,212.29 V218.54 H168.59 V212.29 H162.34 Z M168.59,212.29 V218.54 H174.83 V212.29 H168.59 Z M206.05,212.29 V218.54 H212.29 V212.29 H206.05 Z M212.29,212.29 V218.54 H218.54 V212.29 H212.29 Z M218.54,212.29 V218.54 H224.78 V212.29 H218.54 Z M224.78,212.29 V218.54 H231.02 V212.29 H224.78 Z M24.98,218.54 V224.78 H31.22 V218.54 H24.98 Z M62.44,218.54 V224.78 H68.68 V218.54 H62.44 Z M74.93,218.54 V224.78 H81.17 V218.54 H74.93 Z M87.41,218.54 V224.78 H93.66 V218.54 H87.41 Z M106.15,218.54 V224.78 H112.39 V218.54 H106.15 Z M112.39,218.54 V224.78 H118.63 V218.54 H112.39 Z M118.63,218.54 V224.78 H124.88 V218.54 H118.63 Z M124.88,218.54 V224.78 H131.12 V218.54 H124.88 Z M131.12,218.54 V224.78 H137.37 V218.54 H131.12 Z M149.85,218.54 V224.78 H156.10 V218.54 H149.85 Z M162.34,218.54 V224.78 H168.59 V218.54 H162.34 Z M187.32,218.54 V224.78 H193.56 V218.54 H187.32 Z M199.80,218.54 V224.78 H206.05 V218.54 H199.80 Z M24.98,224.78 V231.02 H31.22 V224.78 H24.98 Z M31.22,224.78 V231.02 H37.46 V224.78 H31.22 Z M37.46,224.78 V231.02 H43.71 V224.78 H37.46 Z M43.71,224.78 V231.02 H49.95 V224.78 H43.71 Z M49.95,224.78 V231.02 H56.20 V224.78 H49.95 Z M56.20,224.78 V231.02 H62.44 V224.78 H56.20 Z M62.44,224.78 V231.02 H68.68 V224.78 H62.44 Z M74.93,224.78 V231.02 H81.17 V224.78 H74.93 Z M81.17,224.78 V231.02 H87.41 V224.78 H81.17 Z M99.90,224.78 V231.02 H106.15 V224.78 H99.90 Z M112.39,224.78 V231.02 H118.63 V224.78 H112.39 Z M118.63,224.78 V231.02 H124.88 V224.78 H118.63 Z M137.37,224.78 V231.02 H143.61 V224.78 H137.37 Z M143.61,224.78 V231.02 H149.85 V224.78 H143.61 Z M149.85,224.78 V231.02 H156.10 V224.78 H149.85 Z M156.10,224.78 V231.02 H162.34 V224.78 H156.10 Z M168.59,224.78 V231.02 H174.83 V224.78 H168.59 Z M187.32,224.78 V231.02 H193.56 V224.78 H187.32 Z M193.56,224.78 V231.02 H199.80 V224.78 H193.56 Z M199.80,224.78 V231.02 H206.05 V224.78 H199.80 Z M206.05,224.78 V231.02 H212.29 V224.78 H206.05 Z M218.54,224.78 V231.02 H224.78 V224.78 H218.54 Z " /></svg>