<svg xmlns="http://www.w3.org/2000/svg" version="1.1" viewBox="0 0 256 256">
  <rect x="0" y="0" width="256" height="256" style="fill:#ffffff;shape-rendering:crispEdges;"/>
  <path x="0" y="0" style="fill:#000000;shape-rendering:crispEdges;" d="M22.76,22.76 V28.44 H28.44 V22.76 H22.76 Z M28.44,22.76 V28.44 H34.13 V22.76 H28.44 Z M34.13,22.76 V28.44 H39.82 V22.76 H34.13 Z M39.82,22.76 V28.44 H45.51 V22.76 H39.82 Z M45.51,22.76 V28.44 H51.20 V22.76 H45.51 Z M51.20,22.76 V28.44 H56.89 V22.76 H51.20 Z M56.89,22.76 V28.44 H62.58 V22.76 H56.89 Z M68.27,22.76 V28.44 H73.96 V22.76 H68.27 Z M73.96,22.76 V28.44 H79.64 V22.76 H73.96 Z M79.64,22.76 V28.44 H85.33 V22.76 H79.64 Z M96.71,22.76 V28.44 H102.40 V22.76 H96.71 Z M113.78,22.76 V28.44 H119.47 V22.76 H113.78 Z M119.47,22.76 V28.44 H125.16 V22.76 H119.47 Z M130.84,22.76 V28.44 H136.53 V22.76 H130.84 Z M142.22,22.76 V28.44 H147.91 V22.76 H142.22 Z M147.91,22.76 V28.44 H153.60 V22.76 H147.91 Z M153.60,22.76 V28.44 H159.29 V22.76 H153.60 Z M170.67,22.76 V28.44 H176.36 V22.76 H170.67 Z M182.04,22.76 V28.44 H187.73 V22.76 H182.04 Z M193.42,22.76 V28.44 H199.11 V22.76 H193.42 Z M199.11,22.76 V28.44 H204.80 V22.76 H199.11 Z M204.80,22.76 V28.44 H210.49 V22.76 H204.80 Z M210.49,22.76 V28.44 H216.18 V22.76 H210.49 Z M216.18,22.76 V28.44 H221.87 V22.76 H216.18 Z M221.87,22.76 V28.44 H227.56 V22.76 H221.87 Z M227.56,22.76 V28.44 H233.24 V22.76 H227.56 Z M22.76,28.44 V34.13 H28.44 V28.44 H22.76 Z M56.89,28.44 V34.13 H62.58 V28.44 H56.89 Z M125.16,28.44 V34.13 H130.84 V28.44 H125.16 Z M130.84,28.44 V34.13 H136.53 V28.44 H130.84 Z M136.53,28.44 V34.13 H142.22 V28.44 H136.53 Z M159.29,28.44 V34.13 H164.98 V28.44 H159.29 Z M176.36,28.44 V34.13 H182.04 V28.44 H176.36 Z M182.04,28.44 V34.13 H187.73 V28.44 H182.04 Z M193.42,28.44 V34.13 H199.11 V28.44 H193.42 Z M227.56,28.44 V34.13 H233.24 V28.44 H227.56 Z M22.76,34.13 V39.82 H28.44 V34.13 H22.76 Z M34.13,34.13 V39.82 H39.82 V34.13 H34.13 Z M39.82,34.13 V39.82 H45.51 V34.13 H39.82 Z M45.51,34.13 V39.82 H51.20 V34.13 H45.51 Z M56.89,34.13 V39.82 H62.58 V34.13 H56.89 Z M91.02,34.13 V39.82 H96.71 V34.13 H91.02 Z M96.71,34.13 V39.82 H102.40 V34.13 H96.71 Z M102.40,34.13 V39.82 H108.09 V34.13 H102.40 Z M108.09,34.13 V39.82 H113.78 V34.13 H108.09 Z M119.47,34.13 V39.82 H125.16 V34.13 H119.47 Z M136.53,34.13 V39.82 H142.22 V34.13 H136.53 Z M147.91,34.13 V39.82 H153.60 V34.13 H147.91 Z M153.60,34.13 V39.82 H159.29 V34.13 H153.60 Z M176.36,34.13 V39.82 H182.04 V34.13 H176.36 Z M193.42,34.13 V39.82 H199.11 V34.13 H193.42 Z M204.80,34.13 V39.82 H210.49 V34.13 H204.80 Z M210.49,34.13 V39.82 H216.18 V34.13 H210.49 Z M216.18,34.13 V39.82 H221.87 V34.13 H216.18 Z M227.56,34.13 V39.82 H233.24 V34.13 H227.56 Z M22.76,39.82 V45.51 H28.44 V39.82 H22.76 Z M34.13,39.82 V45.51 H39.82 V39.82 H34.13 Z M39.82,39.82 V45.51 H45.51 V39.82 H39.82 Z M45.51,39.82 V45.51 H51.20 V39.82 H45.51 Z M56.89,39.82 V45.51 H62.58 V39.82 H56.89 Z M68.27,39.82 V45.51 H73.96 V39.82 H68.27 Z M79.64,39.82 V45.51 H85.33 V39.82 H79.64 Z M91.02,39.82 V45.51 H96.71 V39.82 H91.02 Z M96.71,39.82 V45.51 H102.40 V39.82 H96.71 Z M102.40,39.82 V45.51 H108.09 V39.82 H102.40 Z M113.78,39.82 V45.51 H119.47 V39.82 H113.78 Z M119.47,39.82 V45.51 H125.16 V39.82 H119.47 Z M125.16,39.82 V45.51 H130.84 V39.82 H125.16 Z M153.60,39.82 V45.51 H159.29 V39.82 H153.60 Z M176.36,39.82 V45.51 H182.04 V39.82 H176.36 Z M193.42,39.82 V45.51 H199.11 V39.82 H193.42 Z M204.80,39.82 V45.51 H210.49 V39.82 H204.80 Z M210.49,39.82 V45.51 H216.18 V39.82 H210.49 Z M216.18,39.82 V45.51 H221.87 V39.82 H216.18 Z M227.56,39.82 V45.51 H233.24 V39.82 H227.56 Z M22.76,45.51 V51.20 H28.44 V45.51 H22.76 Z M34.13,45.51 V51.20 H39.82 V45.51 H34.13 Z M39.82,45.51 V51.20 H45.51 V45.51 H39.82 Z M45.51,45.51 V51.20 H51.20 V45.51 H45.51 Z M56.89,45.51 V51.20 H62.58 V45.51 H56.89 Z M73.96,45.51 V51.20 H79.64 V45.51 H73.96 Z M79.64,45.51 V51.20 H85.33 V45.51 H79.64 Z M85.33,45.51 V51.20 H91.02 V45.51 H85.33 Z M91.02,45.51 V51.20 H96.71 V45.51 H91.02 Z M108.09,45.51 V51.20 H113.78 V45.51 H108.09 Z M119.47,45.51 V51.20 H125.16 V45.51 H119.47 Z M136.53,45.51 V51.20 H142.22 V45.51 H136.53 Z M159.29,45.51 V51.20 H164.98 V45.51 H159.29 Z M164.98,45.51 V51.20 H170.67 V45.51 H164.98 Z M176.36,45.51 V51.20 H182.04 V45.51 H176.36 Z M193.42,45.51 V51.20 H199.11 V45.51 H193.42 Z M204.80,45.51 V51.20 H210.49 V45.51 H204.80 Z M210.49,45.51 V51.20 H216.18 V45.51 H210.49 Z M216.18,45.51 V51.20 H221.87 V45.51 H216.18 Z M227.56,45.51 V51.20 H233.24 V45.51 H227.56 Z M22.76,51.20 V56.89 H28.44 V51.20 H22.76 Z M56.89,51.20 V56.89 H62.58 V51.20 H56.89 Z M68.27,51.20 V56.89 H73.96 V51.20 H68.27 Z M73.96,51.20 V56.89 H79.64 V51.20 H73.96 Z M79.64,51.20 V56.89 H85.33 V51.20 H79.64 Z M85.33,51.20 V56.89 H91.02 V51.20 H85.33 Z M96.71,51.20 V56.89 H102.40 V51.20 H96.71 Z M102.40,51.20 V56.89 H108.09 V51.20 H102.40 Z M125.16,51.20 V56.89 H130.84 V51.20 H125.16 Z M130.84,51.20 V56.89 H136.53 V51.20 H130.84 Z M136.53,51.20 V56.89 H142.22 V51.20 H136.53 Z M147.91,51.20 V56.89 H153.60 V51.20 H147.91 Z M193.42,51.20 V56.89 H199.11 V51.20 H193.42 Z M227.56,51.20 V56.89 H233.24 V51.20 H227.56 Z M22.76,56.89 V62.58 H28.44 V56.89 H22.76 Z M28.44,56.89 V62.58 H34.13 V56.89 H28.44 Z M34.13,56.89 V62.58 H39.82 V56.89 H34.13 Z M39.82,56.89 V62.58 H45.51 V56.89 H39.82 Z M45.51,56.89 V62.58 H51.20 V56.89 H45.51 Z M51.20,56.89 V62.58 H56.89 V56.89 H51.20 Z M56.89,56.89 V62.58 H62.58 V56.89 H56.89 Z M68.27,56.89 V62.58 H73.96 V56.89 H68.27 Z M79.64,56.89 V62.58 H85.33 V56.89 H79.64 Z M91.02,56.89 V62.58 H96.71 V56.89 H91.02 Z M102.40,56.89 V62.58 H108.09 V56.89 H102.40 Z M113.78,56.89 V62.58 H119.47 V56.89 H113.78 Z M125.16,56.89 V62.58 H130.84 V56.89 H125.16 Z M136.53,56.89 V62.58 H142.22 V56.89 H136.53 Z M147.91,56.89 V62.58 H153.60 V56.89 H147.91 Z M159.29,56.89 V62.58 H164.98 V56.89 H159.29 Z M170.67,56.89 V62.58 H176.36 V56.89 H170.67 Z M182.04,56.89 V62.58 H187.73 V56.89 H182.04 Z M193.42,56.89 V62.58 H199.11 V56.89 H193.42 Z M199.11,56.89 V62.58 H204.80 V56.89 H199.11 Z M204.80,56.89 V62.58 H210.49 V56.89 H204.80 Z M210.49,56.89 V62.58 H216.18 V56.89 H210.49 Z M216.18,56.89 V62.58 H221.87 V56.89 H216.18 Z M221.87,56.89 V62.58 H227.56 V56.89 H221.87 Z M227.56,56.89 V62.58 H233.24 V56.89 H227.56 Z M79.64,62.58 V68.27 H85.33 V62.58 H79.64 Z M96.71,62.58 V68.27 H102.40 V62.58 H96.71 Z M102.40,62.58 V68.27 H108.09 V62.58 H102.40 Z M119.47,62.58 V68.27 H125.16 V62.58 H119.47 Z M136.53,62.58 V68.27 H142.22 V62.58 H136.53 Z M147.91,62.58 V68.27 H153.60 V62.58 H147.91 Z M153.60,62.58 V68.27 H159.29 V62.58 H153.60 Z M164.98,62.58 V68.27 H170.67 V62.58 H164.98 Z M170.67,62.58 V68.27 H176.36 V62.58 H170.67 Z M182.04,62.58 V68.27 H187.73 V62.58 H182.04 Z M51.20,68.27 V73.96 H56.89 V68.27 H51.20 Z M56.89,68.27 V73.96 H62.58 V68.27 H56.89 Z M68.27,68.27 V73.96 H73.96 V68.27 H68.27 Z M79.64,68.27 V73.96 H85.33 V68.27 H79.64 Z M91.02,68.27 V73.96 H96.71 V68.27 H91.02 Z M102.40,68.27 V73.96 H108.09 V68.27 H102.40 Z M113.78,68.27 V73.96 H119.47 V68.27 H113.78 Z M119.47,68.27 V73.96 H125.16 V68.27 H119.47 Z M130.84,68.27 V73.96 H136.53 V68.27 H130.84 Z M136.53,68.27 V73.96 H142.22 V68.27 H136.53 Z M142.22,68.27 V73.96 H147.91 V68.27 H142.22 Z M164.98,68.27 V73.96 H170.67 V68.27 H164.98 Z M176.36,68.27 V73.96 H182.04 V68.27 H176.36 Z M182.04,68.27 V73.96 H187.73 V68.27 H182.04 Z M187.73,68.27 V73.96 H193.42 V68.27 H187.73 Z M199.11,68.27 V73.96 H204.80 V68.27 H199.11 Z M210.49,68.27 V73.96 H216.18 V68.27 H210.49 Z M227.56,68.27 V73.96 H233.24 V68.27 H227.56 Z M28.44,73.96 V79.64 H34.13 V73.96 H28.44 Z M62.58,73.96 V79.64 H68.27 V73.96 H62.58 Z M68.27,73.96 V79.64 H73.96 V73.96 H68.27 Z M73.96,73.96 V79.64 H79.64 V73.96 H73.96 Z M91.02,73.96 V79.64 H96.71 V73.96 H91.02 Z M96.71,73.96 V79.64 H102.40 V73.96 H96.71 Z M102.40,73.96 V79.64 H108.09 V73.96 H102.40 Z M108.09,73.96 V79.64 H113.78 V73.96 H108.09 Z M113.78,73.96 V79.64 H119.47 V73.96 H113.78 Z M119.47,73.96 V79.64 H125.16 V73.96 H119.47 Z M125.16,73.96 V79.64 H130.84 V73.96 H125.16 Z M130.84,73.96 V79.64 H136.53 V73.96 H130.84 Z M136.53,73.96 V79.64 H142.22 V73.96 H136.53 Z M142.22,73.96 V79.64 H147.91 V73.96 H142.22 Z M147.91,73.96 V79.64 H153.60 V73.96 H147.91 Z M153.60,73.96 V79.64 H159.29 V73.96 H153.60 Z M182.04,73.96 V79.64 H187.73 V73.96 H182.04 Z M187.73,73.96 V79.64 H193.42 V73.96 H187.73 Z M193.42,73.96 V79.64 H199.11 V73.96 H193.42 Z M39.82,79.64 V85.33 H45.51 V79.64 H39.82 Z M56.89,79.64 V85.33 H62.58 V79.64 H56.89 Z M79.64,79.64 V85.33 H85.33 V79.64 H79.64 Z M91.02,79.64 V85.33 H96.71 V79.64 H91.02 Z M102.40,79.64 V85.33 H108.09 V79.64 H102.40 Z M113.78,79.64 V85.33 H119.47 V79.64 H113.78 Z M119.47,79.64 V85.33 H125.16 V79.64 H119.47 Z M130.84,79.64 V85.33 H136.53 V79.64 H130.84 Z M153.60,79.64 V85.33 H159.29 V79.64 H153.60 Z M176.36,79.64 V85.33 H182.04 V79.64 H176.36 Z M182.04,79.64 V85.33 H187.73 V79.64 H182.04 Z M199.11,79.64 V85.33 H204.80 V79.64 H199.11 Z M221.87,79.64 V85.33 H227.56 V79.64 H221.87 Z M227.56,79.64 V85.33 H233.24 V79.64 H227.56 Z M34.13,85.33 V91.02 H39.82 V85.33 H34.13 Z M45.51,85.33 V91.02 H51.20 V85.33 H45.51 Z M51.20,85.33 V91.02 H56.89 V85.33 H51.20 Z M68.27,85.33 V91.02 H73.96 V85.33 H68.27 Z M73.96,85.33 V91.02 H79.64 V85.33 H73.96 Z M79.64,85.33 V91.02 H85.33 V85.33 H79.64 Z M85.33,85.33 V91.02 H91.02 V85.33 H85.33 Z M91.02,85.33 V91.02 H96.71 V85.33 H91.02 Z M102.40,85.33 V91.02 H108.09 V85.33 H102.40 Z M113.78,85.33 V91.02 H119.47 V85.33 H113.78 Z M142.22,85.33 V91.02 H147.91 V85.33 H142.22 Z M147.91,85.33 V91.02 H153.60 V85.33 H147.91 Z M170.67,85.33 V91.02 H176.36 V85.33 H170.67 Z M176.36,85.33 V91.02 H182.04 V85.33 H176.36 Z M182.04,85.33 V91.02 H187.73 V85.33 H182.04 Z M187.73,85.33 V91.02 H193.42 V85.33 H187.73 Z M193.42,85.33 V91.02 H199.11 V85.33 H193.42 Z M210.49,85.33 V91.02 H216.18 V85.33 H210.49 Z M227.56,85.33 V91.02 H233.24 V85.33 H227.56 Z M22.76,91.02 V96.71 H28.44 V91.02 H22.76 Z M28.44,91.02 V96.71 H34.13 V91.02 H28.44 Z M34.13,91.02 V96.71 H39.82 V91.02 H34.13 Z M39.82,91.02 V96.71 H45.51 V91.02 H39.82 Z M45.51,91.02 V96.71 H51.20 V91.02 H45.51 Z M51.20,91.02 V96.71 H56.89 V91.02 H51.20 Z M56.89,91.02 V96.71 H62.58 V91.02 H56.89 Z M62.58,91.02 V96.71 H68.27 V91.02 H62.58 Z M68.27,91.02 V96.71 H73.96 V91.02 H68.27 Z M85.33,91.02 V96.71 H91.02 V91.02 H85.33 Z M91.02,91.02 V96.71 H96.71 V91.02 H91.02 Z M108.09,91.02 V96.71 H113.78 V91.02 H108.09 Z M113.78,91.02 V96.71 H119.47 V91.02 H113.78 Z M125.16,91.02 V96.71 H130.84 V91.02 H125.16 Z M136.53,91.02 V96.71 H142.22 V91.02 H136.53 Z M153.60,91.02 V96.71 H159.29 V91.02 H153.60 Z M182.04,91.02 V96.71 H187.73 V91.02 H182.04 Z M187.73,91.02 V96.71 H193.42 V91.02 H187.73 Z M193.42,91.02 V96.71 H199.11 V91.02 H193.42 Z M199.11,91.02 V96.71 H204.80 V91.02 H199.11 Z M204.80,91.02 V96.71 H210.49 V91.02 H204.80 Z M221.87,91.02 V96.71 H227.56 V91.02 H221.87 Z M28.44,96.71 V102.40 H34.13 V96.71 H28.44 Z M34.13,96.71 V102.40 H39.82 V96.71 H34.13 Z M45.51,96.71 V102.40 H51.20 V96.71 H45.51 Z M51.20,96.71 V102.40 H56.89 V96.71 H51.20 Z M73.96,96.71 V102.40 H79.64 V96.71 H73.96 Z M91.02,96.71 V102.40 H96.71 V96.71 H91.02 Z M102.40,96.71 V102.40 H108.09 V96.71 H102.40 Z M108.09,96.71 V102.40 H113.78 V96.71 H108.09 Z M125.16,96.71 V102.40 H130.84 V96.71 H125.16 Z M130.84,96.71 V102.40 H136.53 V96.71 H130.84 Z M136.53,96.71 V102.40 H142.22 V96.71 H136.53 Z M142.22,96.71 V102.40 H147.91 V96.71 H142.22 Z M159.29,96.71 V102.40 H164.98 V96.71 H159.29 Z M164.98,96.71 V102.40 H170.67 V96.71 H164.98 Z M176.36,96.71 V102.40 H182.04 V96.71 H176.36 Z M193.42,96.71 V102.40 H199.11 V96.71 H193.42 Z M204.80,96.71 V102.40 H210.49 V96.71 H204.80 Z M210.49,96.71 V102.40 H216.18 V96.71 H210.49 Z M221.87,96.71 V102.40 H227.56 V96.71 H221.87 Z M28.44,102.40 V108.09 H34.13 V102.40 H28.44 Z M56.89,102.40 V108.09 H62.58 V102.40 H56.89 Z M79.64,102.40 V108.09 H85.33 V102.40 H79.64 Z M85.33,102.40 V108.09 H91.02 V102.40 H85.33 Z M91.02,102.40 V108.09 H96.71 V102.40 H91.02 Z M96.71,102.40 V108.09 H102.40 V102.40 H96.71 Z M102.40,102.40 V108.09 H108.09 V102.40 H102.40 Z M119.47,102.40 V108.09 H125.16 V102.40 H119.47 Z M136.53,102.40 V108.09 H142.22 V102.40 H136.53 Z M164.98,102.40 V108.09 H170.67 V102.40 H164.98 Z M176.36,102.40 V108.09 H182.04 V102.40 H176.36 Z M204.80,102.40 V108.09 H210.49 V102.40 H204.80 Z M210.49,102.40 V108.09 H216.18 V102.40 H210.49 Z M22.76,108.09 V113.78 H28.44 V108.09 H22.76 Z M28.44,108.09 V113.78 H34.13 V108.09 H28.44 Z M34.13,108.09 V113.78 H39.82 V108.09 H34.13 Z M39.82,108.09 V113.78 H45.51 V108.09 H39.82 Z M73.96,108.09 V113.78 H79.64 V108.09 H73.96 Z M85.33,108.09 V113.78 H91.02 V108.09 H85.33 Z M119.47,108.09 V113.78 H125.16 V108.09 H119.47 Z M125.16,108.09 V113.78 H130.84 V108.09 H125.16 Z M136.53,108.09 V113.78 H142.22 V108.09 H136.53 Z M153.60,108.09 V113.78 H159.29 V108.09 H153.60 Z M159.29,108.09 V113.78 H164.98 V108.09 H159.29 Z M164.98,108.09 V113.78 H170.67 V108.09 H164.98 Z M176.36,108.09 V113.78 H182.04 V108.09 H176.36 Z M210.49,108.09 V113.78 H216.18 V108.09 H210.49 Z M216.18,108.09 V113.78 H221.87 V108.09 H216.18 Z M227.56,108.09 V113.78 H233.24 V108.09 H227.56 Z M22.76,113.78 V119.47 H28.44 V113.78 H22.76 Z M51.20,113.78 V119.47 H56.89 V113.78 H51.20 Z M56.89,113.78 V119.47 H62.58 V113.78 H56.89 Z M62.58,113.78 V119.47 H68.27 V113.78 H62.58 Z M79.64,113.78 V119.47 H85.33 V113.78 H79.64 Z M91.02,113.78 V119.47 H96.71 V113.78 H91.02 Z M119.47,113.78 V119.47 H125.16 V113.78 H119.47 Z M125.16,113.78 V119.47 H130.84 V113.78 H125.16 Z M136.53,113.78 V119.47 H142.22 V113.78 H136.53 Z M142.22,113.78 V119.47 H147.91 V113.78 H142.22 Z M164.98,113.78 V119.47 H170.67 V113.78 H164.98 Z M182.04,113.78 V119.47 H187.73 V113.78 H182.04 Z M204.80,113.78 V119.47 H210.49 V113.78 H204.80 Z M210.49,113.78 V119.47 H216.18 V113.78 H210.49 Z M221.87,113.78 V119.47 H227.56 V113.78 H221.87 Z M28.44,119.47 V125.16 H34.13 V119.47 H28.44 Z M34.13,119.47 V125.16 H39.82 V119.47 H34.13 Z M45.51,119.47 V125.16 H51.20 V119.47 H45.51 Z M51.20,119.47 V125.16 H56.89 V119.47 H51.20 Z M68.27,119.47 V125.16 H73.96 V119.47 H68.27 Z M91.02,119.47 V125.16 H96.71 V119.47 H91.02 Z M96.71,119.47 V125.16 H102.40 V119.47 H96.71 Z M102.40,119.47 V125.16 H108.09 V119.47 H102.40 Z M108.09,119.47 V125.16 H113.78 V119.47 H108.09 Z M130.84,119.47 V125.16 H136.53 V119.47 H130.84 Z M147.91,119.47 V125.16 H153.60 V119.47 H147.91 Z M153.60,119.47 V125.16 H159.29 V119.47 H153.60 Z M164.98,119.47 V125.16 H170.67 V119.47 H164.98 Z M176.36,119.47 V125.16 H182.04 V119.47 H176.36 Z M182.04,119.47 V125.16 H187.73 V119.47 H182.04 Z M199.11,119.47 V125.16 H204.80 V119.47 H199.11 Z M204.80,119.47 V125.16 H210.49 V119.47 H204.80 Z M210.49,119.47 V125.16 H216.18 V119.47 H210.49 Z M216.18,119.47 V125.16 H221.87 V119.47 H216.18 Z M227.56,119.47 V125.16 H233.24 V119.47 H227.56 Z M28.44,125.16 V130.84 H34.13 V125.16 H28.44 Z M51.20,125.16 V130.84 H56.89 V125.16 H51.20 Z M56.89,125.16 V130.84 H62.58 V125.16 H56.89 Z M79.64,125.16 V130.84 H85.33 V125.16 H79.64 Z M85.33,125.16 V130.84 H91.02 V125.16 H85.33 Z M91.02,125.16 V130.84 H96.71 V125.16 H91.02 Z M96.71,125.16 V130.84 H102.40 V125.16 H96.71 Z M102.40,125.16 V130.84 H108.09 V125.16 H102.40 Z M108.09,125.16 V130.84 H113.78 V125.16 H108.09 Z M113.78,125.16 V130.84 H119.47 V125.16 H113.78 Z M119.47,125.16 V130.84 H125.16 V125.16 H119.47 Z M125.16,125.16 V130.84 H130.84 V125.16 H125.16 Z M136.53,125.16 V130.84 H142.22 V125.16 H136.53 Z M142.22,125.16 V130.84 H147.91 V125.16 H142.22 Z M170.67,125.16 V130.84 H176.36 V125.16 H170.67 Z M193.42,125.16 V130.84 H199.11 V125.16 H193.42 Z M199.11,125.16 V130.84 H204.80 V125.16 H199.11 Z M204.80,125.16 V130.84 H210.49 V125.16 H204.80 Z M210.49,125.16 V130.84 H216.18 V125.16 H210.49 Z M227.56,125.16 V130.84 H233.24 V125.16 H227.56 Z M39.82,130.84 V136.53 H45.51 V130.84 H39.82 Z M51.20,130.84 V136.53 H56.89 V130.84 H51.20 Z M62.58,130.84 V136.53 H68.27 V130.84 H62.58 Z M73.96,130.84 V136.53 H79.64 V130.84 H73.96 Z M91.02,130.84 V136.53 H96.71 V130.84 H91.02 Z M96.71,130.84 V136.53 H102.40 V130.84 H96.71 Z M113.78,130.84 V136.53 H119.47 V130.84 H113.78 Z M119.47,130.84 V136.53 H125.16 V130.84 H119.47 Z M147.91,130.84 V136.53 H153.60 V130.84 H147.91 Z M153.60,130.84 V136.53 H159.29 V130.84 H153.60 Z M170.67,130.84 V136.53 H176.36 V130.84 H170.67 Z M199.11,130.84 V136.53 H204.80 V130.84 H199.11 Z M210.49,130.84 V136.53 H216.18 V130.84 H210.49 Z M216.18,130.84 V136.53 H221.87 V130.84 H216.18 Z M221.87,130.84 V136.53 H227.56 V130.84 H221.87 Z M22.76,136.53 V142.22 H28.44 V136.53 H22.76 Z M28.44,136.53 V142.22 H34.13 V136.53 H28.44 Z M39.82,136.53 V142.22 H45.51 V136.53 H39.82 Z M45.51,136.53 V142.22 H51.20 V136.53 H45.51 Z M56.89,136.53 V142.22 H62.58 V136.53 H56.89 Z M62.58,136.53 V142.22 H68.27 V136.53 H62.58 Z M73.96,136.53 V142.22 H79.64 V136.53 H73.96 Z M79.64,136.53 V142.22 H85.33 V136.53 H79.64 Z M119.47,136.53 V142.22 H125.16 V136.53 H119.47 Z M136.53,136.53 V142.22 H142.22 V136.53 H136.53 Z M153.60,136.53 V142.22 H159.29 V136.53 H153.60 Z M159.29,136.53 V142.22 H164.98 V136.53 H159.29 Z M164.98,136.53 V142.22 H170.67 V136.53 H164.98 Z M176.36,136.53 V142.22 H182.04 V136.53 H176.36 Z M182.04,136.53 V142.22 H187.73 V136.53 H182.04 Z M204.80,136.53 V142.22 H210.49 V136.53 H204.80 Z M221.87,136.53 V142.22 H227.56 V136.53 H221.87 Z M227.56,136.53 V142.22 H233.24 V136.53 H227.56 Z M51.20,142.22 V147.91 H56.89 V142.22 H51.20 Z M62.58,142.22 V147.91 H68.27 V142.22 H62.58 Z M73.96,142.22 V147.91 H79.64 V142.22 H73.96 Z M79.64,142.22 V147.91 H85.33 V142.22 H79.64 Z M85.33,142.22 V147.91 H91.02 V142.22 H85.33 Z M91.02,142.22 V147.91 H96.71 V142.22 H91.02 Z M102.40,142.22 V147.91 H108.09 V142.22 H102.40 Z M130.84,142.22 V147.91 H136.53 V142.22 H130.84 Z M136.53,142.22 V147.91 H142.22 V142.22 H136.53 Z M142.22,142.22 V147.91 H147.91 V142.22 H142.22 Z M153.60,142.22 V147.91 H159.29 V142.22 H153.60 Z M164.98,142.22 V147.91 H170.67 V142.22 H164.98 Z M170.67,142.22 V147.91 H176.36 V142.22 H170.67 Z M176.36,142.22 V147.91 H182.04 V142.22 H176.36 Z M182.04,142.22 V147.91 H187.73 V142.22 H182.04 Z M193.42,142.22 V147.91 H199.11 V142.22 H193.42 Z M221.87,142.22 V147.91 H227.56 V142.22 H221.87 Z M227.56,142.22 V147.91 H233.24 V142.22 H227.56 Z M22.76,147.91 V153.60 H28.44 V147.91 H22.76 Z M28.44,147.91 V153.60 H34.13 V147.91 H28.44 Z M34.13,147.91 V153.60 H39.82 V147.91 H34.13 Z M39.82,147.91 V153.60 H45.51 V147.91 H39.82 Z M56.89,147.91 V153.60 H62.58 V147.91 H56.89 Z M68.27,147.91 V153.60 H73.96 V147.91 H68.27 Z M73.96,147.91 V153.60 H79.64 V147.91 H73.96 Z M85.33,147.91 V153.60 H91.02 V147.91 H85.33 Z M91.02,147.91 V153.60 H96.71 V147.91 H91.02 Z M113.78,147.91 V153.60 H119.47 V147.91 H113.78 Z M125.16,147.91 V153.60 H130.84 V147.91 H125.16 Z M130.84,147.91 V153.60 H136.53 V147.91 H130.84 Z M136.53,147.91 V153.60 H142.22 V147.91 H136.53 Z M142.22,147.91 V153.60 H147.91 V147.91 H142.22 Z M153.60,147.91 V153.60 H159.29 V147.91 H153.60 Z M159.29,147.91 V153.60 H164.98 V147.91 H159.29 Z M187.73,147.91 V153.60 H193.42 V147.91 H187.73 Z M199.11,147.91 V153.60 H204.80 V147.91 H199.11 Z M45.51,153.60 V159.29 H51.20 V153.60 H45.51 Z M68.27,153.60 V159.29 H73.96 V153.60 H68.27 Z M73.96,153.60 V159.29 H79.64 V153.60 H73.96 Z M85.33,153.60 V159.29 H91.02 V153.60 H85.33 Z M102.40,153.60 V159.29 H108.09 V153.60 H102.40 Z M119.47,153.60 V159.29 H125.16 V153.60 H119.47 Z M130.84,153.60 V159.29 H136.53 V153.60 H130.84 Z M159.29,153.60 V159.29 H164.98 V153.60 H159.29 Z M170.67,153.60 V159.29 H176.36 V153.60 H170.67 Z M176.36,153.60 V159.29 H182.04 V153.60 H176.36 Z M187.73,153.60 V159.29 H193.42 V153.60 H187.73 Z M199.11,153.60 V159.29 H204.80 V153.60 H199.11 Z M204.80,153.60 V159.29 H210.49 V153.60 H204.80 Z M227.56,153.60 V159.29 H233.24 V153.60 H227.56 Z M39.82,159.29 V164.98 H45.51 V159.29 H39.82 Z M45.51,159.29 V164.98 H51.20 V159.29 H45.51 Z M56.89,159.29 V164.98 H62.58 V159.29 H56.89 Z M62.58,159.29 V164.98 H68.27 V159.29 H62.58 Z M68.27,159.29 V164.98 H73.96 V159.29 H68.27 Z M85.33,159.29 V164.98 H91.02 V159.29 H85.33 Z M91.02,159.29 V164.98 H96.71 V159.29 H91.02 Z M96.71,159.29 V164.98 H102.40 V159.29 H96.71 Z M108.09,159.29 V164.98 H113.78 V159.29 H108.09 Z M125.16,159.29 V164.98 H130.84 V159.29 H125.16 Z M147.91,159.29 V164.98 H153.60 V159.29 H147.91 Z M170.67,159.29 V164.98 H176.36 V159.29 H170.67 Z M176.36,159.29 V164.98 H182.04 V159.29 H176.36 Z M199.11,159.29 V164.98 H204.80 V159.29 H199.11 Z M216.18,159.29 V164.98 H221.87 V159.29 H216.18 Z M28.44,164.98 V170.67 H34.13 V164.98 H28.44 Z M45.51,164.98 V170.67 H51.20 V164.98 H45.51 Z M68.27,164.98 V170.67 H73.96 V164.98 H68.27 Z M73.96,164.98 V170.67 H79.64 V164.98 H73.96 Z M85.33,164.98 V170.67 H91.02 V164.98 H85.33 Z M91.02,164.98 V170.67 H96.71 V164.98 H91.02 Z M108.09,164.98 V170.67 H113.78 V164.98 H108.09 Z M119.47,164.98 V170.67 H125.16 V164.98 H119.47 Z M125.16,164.98 V170.67 H130.84 V164.98 H125.16 Z M136.53,164.98 V170.67 H142.22 V164.98 H136.53 Z M142.22,164.98 V170.67 H147.91 V164.98 H142.22 Z M153.60,164.98 V170.67 H159.29 V164.98 H153.60 Z M159.29,164.98 V170.67 H164.98 V164.98 H159.29 Z M176.36,164.98 V170.67 H182.04 V164.98 H176.36 Z M187.73,164.98 V170.67 H193.42 V164.98 H187.73 Z M193.42,164.98 V170.67 H199.11 V164.98 H193.42 Z M204.80,164.98 V170.67 H210.49 V164.98 H204.80 Z M210.49,164.98 V170.67 H216.18 V164.98 H210.49 Z M221.87,164.98 V170.67 H227.56 V164.98 H221.87 Z M227.56,164.98 V170.67 H233.24 V164.98 H227.56 Z M34.13,170.67 V176.36 H39.82 V170.67 H34.13 Z M51.20,170.67 V176.36 H56.89 V170.67 H51.20 Z M56.89,170.67 V176.36 H62.58 V170.67 H56.89 Z M68.27,170.67 V176.36 H73.96 V170.67 H68.27 Z M85.33,170.67 V176.36 H91.02 V170.67 H85.33 Z M102.40,170.67 V176.36 H108.09 V170.67 H102.40 Z M119.47,170.67 V176.36 H125.16 V170.67 H119.47 Z M142.22,170.67 V176.36 H147.91 V170.67 H142.22 Z M147.91,170.67 V176.36 H153.60 V170.67 H147.91 Z M153.60,170.67 V176.36 H159.29 V170.67 H153.60 Z M159.29,170.67 V176.36 H164.98 V170.67 H159.29 Z M164.98,170.67 V176.36 H170.67 V170.67 H164.98 Z M170.67,170.67 V176.36 H176.36 V170.67 H170.67 Z M176.36,170.67 V176.36 H182.04 V170.67 H176.36 Z M187.73,170.67 V176.36 H193.42 V170.67 H187.73 Z M193.42,170.67 V176.36 H199.11 V170.67 H193.42 Z M210.49,170.67 V176.36 H216.18 V170.67 H210.49 Z M216.18,170.67 V176.36 H221.87 V170.67 H216.18 Z M221.87,170.67 V176.36 H227.56 V170.67 H221.87 Z M227.56,170.67 V176.36 H233.24 V170.67 H227.56 Z M22.76,176.36 V182.04 H28.44 V176.36 H22.76 Z M28.44,176.36 V182.04 H34.13 V176.36 H28.44 Z M39.82,176.36 V182.04 H45.51 V176.36 H39.82 Z M45.51,176.36 V182.04 H51.20 V176.36 H45.51 Z M51.20,176.36 V182.04 H56.89 V176.36 H51.20 Z M62.58,176.36 V182.04 H68.27 V176.36 H62.58 Z M68.27,176.36 V182.04 H73.96 V176.36 H68.27 Z M108.09,176.36 V182.04 H113.78 V176.36 H108.09 Z M130.84,176.36 V182.04 H136.53 V176.36 H130.84 Z M187.73,176.36 V182.04 H193.42 V176.36 H187.73 Z M193.42,176.36 V182.04 H199.11 V176.36 H193.42 Z M210.49,176.36 V182.04 H216.18 V176.36 H210.49 Z M216.18,176.36 V182.04 H221.87 V176.36 H216.18 Z M221.87,176.36 V182.04 H227.56 V176.36 H221.87 Z M227.56,176.36 V182.04 H233.24 V176.36 H227.56 Z M22.76,182.04 V187.73 H28.44 V182.04 H22.76 Z M28.44,182.04 V187.73 H34.13 V182.04 H28.44 Z M34.13,182.04 V187.73 H39.82 V182.04 H34.13 Z M39.82,182.04 V187.73 H45.51 V182.04 H39.82 Z M56.89,182.04 V187.73 H62.58 V182.04 H56.89 Z M62.58,182.04 V187.73 H68.27 V182.04 H62.58 Z M79.64,182.04 V187.73 H85.33 V182.04 H79.64 Z M85.33,182.04 V187.73 H91.02 V182.04 H85.33 Z M96.71,182.04 V187.73 H102.40 V182.04 H96.71 Z M113.78,182.04 V187.73 H119.47 V182.04 H113.78 Z M130.84,182.04 V187.73 H136.53 V182.04 H130.84 Z M136.53,182.04 V187.73 H142.22 V182.04 H136.53 Z M142.22,182.04 V187.73 H147.91 V182.04 H142.22 Z M164.98,182.04 V187.73 H170.67 V182.04 H164.98 Z M182.04,182.04 V187.73 H187.73 V182.04 H182.04 Z M187.73,182.04 V187.73 H193.42 V182.04 H187.73 Z M193.42,182.04 V187.73 H199.11 V182.04 H193.42 Z M199.11,182.04 V187.73 H204.80 V182.04 H199.11 Z M204.80,182.04 V187.73 H210.49 V182.04 H204.80 Z M210.49,182.04 V187.73 H216.18 V182.04 H210.49 Z M221.87,182.04 V187.73 H227.56 V182.04 H221.87 Z M227.56,182.04 V187.73 H233.24 V182.04 H227.56 Z M68.27,187.73 V193.42 H73.96 V187.73 H68.27 Z M73.96,187.73 V193.42 H79.64 V187.73 H73.96 Z M79.64,187.73 V193.42 H85.33 V187.73 H79.64 Z M102.40,187.73 V193.42 H108.09 V187.73 H102.40 Z M113.78,187.73 V193.42 H119.47 V187.73 H113.78 Z M130.84,187.73 V193.42 H136.53 V187.73 H130.84 Z M136.53,187.73 V193.42 H142.22 V187.73 H136.53 Z M153.60,187.73 V193.42 H159.29 V187.73 H153.60 Z M159.29,187.73 V193.42 H164.98 V187.73 H159.29 Z M164.98,187.73 V193.42 H170.67 V187.73 H164.98 Z M170.67,187.73 V193.42 H176.36 V187.73 H170.67 Z M182.04,187.73 V193.42 H187.73 V187.73 H182.04 Z M204.80,187.73 V193.42 H210.49 V187.73 H204.80 Z M221.87,187.73 V193.42 H227.56 V187.73 H221.87 Z M227.56,187.73 V193.42 H233.24 V187.73 H227.56 Z M22.76,193.42 V199.11 H28.44 V193.42 H22.76 Z M28.44,193.42 V199.11 H34.13 V193.42 H28.44 Z M34.13,193.42 V199.11 H39.82 V193.42 H34.13 Z M39.82,193.42 V199.11 H45.51 V193.42 H39.82 Z M45.51,193.42 V199.11 H51.20 V193.42 H45.51 Z M51.20,193.42 V199.11 H56.89 V193.42 H51.20 Z M56.89,193.42 V199.11 H62.58 V193.42 H56.89 Z M73.96,193.42 V199.11 H79.64 V193.42 H73.96 Z M79.64,193.42 V199.11 H85.33 V193.42 H79.64 Z M85.33,193.42 V199.11 H91.02 V193.42 H85.33 Z M91.02,193.42 V199.11 H96.71 V193.42 H91.02 Z M96.71,193.42 V199.11 H102.40 V193.42 H96.71 Z M102.40,193.42 V199.11 H108.09 V193.42 H102.40 Z M108.09,193.42 V199.11 H113.78 V193.42 H108.09 Z M113.78,193.42 V199.11 H119.47 V193.42 H113.78 Z M119.47,193.42 V199.11 H125.16 V193.42 H119.47 Z M125.16,193.42 V199.11 H130.84 V193.42 H125.16 Z M130.84,193.42 V199.11 H136.53 V193.42 H130.84 Z M136.53,193.42 V199.11 H142.22 V193.42 H136.53 Z M142.22,193.42 V199.11 H147.91 V193.42 H142.22 Z M147.91,193.42 V199.11 H153.60 V193.42 H147.91 Z M159.29,193.42 V199.11 H164.98 V193.42 H159.29 Z M164.98,193.42 V199.11 H170.67 V193.42 H164.98 Z M170.67,193.42 V199.11 H176.36 V193.42 H170.67 Z M182.04,193.42 V199.11 H187.73 V193.42 H182.04 Z M193.42,193.42 V199.11 H199.11 V193.42 H193.42 Z M204.80,193.42 V199.11 H210.49 V193.42 H204.80 Z M227.56,193.42 V199.11 H233.24 V193.42 H227.56 Z M22.76,199.11 V204.80 H28.44 V199.11 H22.76 Z M56.89,199.11 V204.80 H62.58 V199.11 H56.89 Z M68.27,199.11 V204.80 H73.96 V199.11 H68.27 Z M79.64,199.11 V204.80 H85.33 V199.11 H79.64 Z M96.71,199.11 V204.80 H102.40 V199.11 H96.71 Z M108.09,199.11 V204.80 H113.78 V199.11 H108.09 Z M119.47,199.11 V204.80 H125.16 V199.11 H119.47 Z M125.16,199.11 V204.80 H130.84 V199.11 H125.16 Z M136.53,199.11 V204.80 H142.22 V199.11 H136.53 Z M142.22,199.11 V204.80 H147.91 V199.11 H142.22 Z M159.29,199.11 V204.80 H164.98 V199.11 H159.29 Z M176.36,199.11 V204.80 H182.04 V199.11 H176.36 Z M182.04,199.11 V204.80 H187.73 V199.11 H182.04 Z M204.80,199.11 V204.80 H210.49 V199.11 H204.80 Z M216.18,199.11 V204.80 H221.87 V199.11 H216.18 Z M221.87,199.11 V204.80 H227.56 V199.11 H221.87 Z M227.56,199.11 V204.80 H233.24 V199.11 H227.56 Z M22.76,204.80 V210.49 H28.44 V204.80 H22.76 Z M34.13,204.80 V210.49 H39.82 V204.80 H34.13 Z M39.82,204.80 V210.49 H45.51 V204.80 H39.82 Z M45.51,204.80 V210.49 H51.20 V204.80 H45.51 Z M56.89,204.80 V210.49 H62.58 V204.80 H56.89 Z M85.33,204.80 V210.49 H91.02 V204.80 H85.33 Z M119.47,204.80 V210.49 H125.16 V204.80 H119.47 Z M125.16,204.80 V210.49 H130.84 V204.80 H125.16 Z M130.84,204.80 V210.49 H136.53 V204.80 H130.84 Z M136.53,204.80 V210.49 H142.22 V204.80 H136.53 Z M147.91,204.80 V210.49 H153.60 V204.80 H147.91 Z M153.60,204.80 V210.49 H159.29 V204.80 H153.60 Z M182.04,204.80 V210.49 H187.73 V204.80 H182.04 Z M187.73,204.80 V210.49 H193.42 V204.80 H187.73 Z M193.42,204.80 V210.49 H199.11 V204.80 H193.42 Z M199.11,204.80 V210.49 H204.80 V204.80 H199.11 Z M204.80,204.80 V210.49 H210.49 V204.80 H204.80 Z M210.49,204.80 V210.49 H216.18 V204.80 H210.49 Z M216.18,204.80 V210.49 H221.87 V204.80 H216.18 Z M227.56,204.80 V210.49 H233.24 V204.80 H227.56 Z M22.76,210.49 V216.18 H28.44 V210.49 H22.76 Z M34.13,210.49 V216.18 H39.82 V210.49 H34.13 Z M39.82,210.49 V216.18 H45.51 V210.49 H39.82 Z M45.51,210.49 V216.18 H51.20 V210.49 H45.51 Z M56.89,210.49 V216.18 H62.58 V210.49 H56.89 Z M73.96,210.49 V216.18 H79.64 V210.49 H73.96 Z M85.33,210.49 V216.18 H91.02 V210.49 H85.33 Z M91.02,210.49 V216.18 H96.71 V210.49 H91.02 Z M102.40,210.49 V216.18 H108.09 V210.49 H102.40 Z M119.47,210.49 V216.18 H125.16 V210.49 H119.47 Z M130.84,210.49 V216.18 H136.53 V210.49 H130.84 Z M136.53,210.49 V216.18 H142.22 V210.49 H136.53 Z M153.60,210.49 V216.18 H159.29 V210.49 H153.60 Z M159.29,210.49 V216.18 H164.98 V210.49 H159.29 Z M176.36,210.49 V216.18 H182.04 V210.49 H176.36 Z M182.04,210.49 V216.18 H187.73 V210.49 H182.04 Z M187.73,210.49 V216.18 H193.42 V210.49 H187.73 Z M199.11,210.49 V216.18 H204.80 V210.49 H199.11 Z M204.80,210.49 V216.18 H210.49 V210.49 H204.80 Z M221.87,210.49 V216.18 H227.56 V210.49 H221.87 Z M227.56,210.49 V216.18 H233.24 V210.49 H227.56 Z M22.76,216.18 V221.87 H28.44 V216.18 H22.76 Z M34.13,216.18 V221.87 H39.82 V216.18 H34.13 Z M39.82,216.18 V221.87 H45.51 V216.18 H39.82 Z M45.51,216.18 V221.87 H51.20 V216.18 H45.51 Z M56.89,216.18 V221.87 H62.58 V216.18 H56.89 Z M79.64,216.18 V221.87 H85.33 V216.18 H79.64 Z M96.71,216.18 V221.87 H102.40 V216.18 H96.71 Z M102.40,216.18 V221.87 H108.09 V216.18 H102.40 Z M113.78,216.18 V221.87 H119.47 V216.18 H113.78 Z M130.84,216.18 V221.87 H136.53 V216.18 H130.84 Z M164.98,216.18 V221.87 H170.67 V216.18 H164.98 Z M170.67,216.18 V221.87 H176.36 V216.18 H170.67 Z M182.04,216.18 V221.87 H187.73 V216.18 H182.04 Z M199.11,216.18 V221.87 H204.80 V216.18 H199.11 Z M22.76,221.87 V227.56 H28.44 V221.87 H22.76 Z M56.89,221.87 V227.56 H62.58 V221.87 H56.89 Z M102.40,221.87 V227.56 H108.09 V221.87 H102.40 Z M119.47,221.87 V227.56 H125.16 V221.87 H119.47 Z M125.16,221.87 V227.56 H130.84 V221.87 H125.16 Z M130.84,221.87 V227.56 H136.53 V221.87 H130.84 Z M136.53,221.87 V227.56 H142.22 V221.87 H136.53 Z M142.22,221.87 V227.56 H147.91 V221.87 H142.22 Z M147.91,221.87 V227.56 H153.60 V221.87 H147.91 Z M153.60,221.87 V227.56 H159.29 V221.87 H153.60 Z M170.67,221.87 V227.56 H176.36 V221.87 H170.67 Z M176.36,221.87 V227.56 H182.04 V221.87 H176.36 Z M187.73,221.87 V227.56 H193.42 V221.87 H187.73 Z M204.80,221.87 V227.56 H210.49 V221.87 H204.80 Z M210.49,221.87 V227.56 H216.18 V221.87 H210.49 Z M216.18,221.87 V227.56 H221.87 V221.87 H216.18 Z M227.56,221.87 V227.56 H233.24 V221.87 H227.56 Z M22.76,227.56 V233.24 H28.44 V227.56 H22.76 Z M28.44,227.56 V233.24 H34.13 V227.56 H28.44 Z M34.13,227.56 V233.24 H39.82 V227.56 H34.13 Z M39.82,227.56 V233.24 H45.51 V227.56 H39.82 Z M45.51,227.56 V233.24 H51.20 V227.56 H45.51 Z M51.20,227.56 V233.24 H56.89 V227.56 H51.20 Z M56.89,227.56 V233.24 H62.58 V227.56 H56.89 Z M73.96,227.56 V233.24 H79.64 V227.56 H73.96 Z M79.64,227.56 V233.24 H85.33 V227.56 H79.64 Z M96.71,227.56 V233.24 H102.40 V227.56 H96.71 Z M102.40,227.56 V233.24 H108.09 V227.56 H102.40 Z M113.78,227.56 V233.24 H119.47 V227.56 H113.78 Z M119.47,227.56 V233.24 H125.16 V227.56 H119.47 Z M125.16,227.56 V233.24 H130.84 V227.56 H125.16 Z M136.53,227.56 V233.24 H142.22 V227.56 H136.53 Z M142.22,227.56 V233.24 H147.91 V227.56 H142.22 Z M147.91,227.56 V233.24 H153.60 V227.56 H147.91 Z M159.29,227.56 V233.24 H164.98 V227.56 H159.29 Z M164.98,227.56 V233.24 H170.67 V227.56 H164.98 Z M170.67,227.56 V233.24 H176.36 V227.56 H170.67 Z M176.36,227.56 V233.24 H182.04 V227.56 H176.36 Z M182.04,227.56 V233.24 H187.73 V227.56 H182.04 Z M187.73,227.56 V233.24 H193.42 V227.56 H187.73 Z M193.42,227.56 V233.24 H199.11 V227.56 H193.42 Z M199.11,227.56 V233.24 H204.80 V227.56 H199.11 Z M204.80,227.56 V233.24 H210.49 V227.56 H204.80 Z M216.18,227.56 V233.24 H221.87 V227.56 H216.18 Z M227.56,227.56 V233.24 H233.24 V227.56 H227.56 Z " /></svg>