<svg xmlns="http://www.w3.org/2000/svg" version="1.1" viewBox="0 0 256 256">
  <rect x="0" y="0" width="256" height="256" style="fill:#ffffff;shape-rendering:crispEdges;"/>
  <path x="0" y="0" style="fill:#000000;shape-rendering:crispEdges;" d="M20.90,20.90 V26.12 H26.12 V20.90 H20.90 Z M26.12,20.90 V26.12 H31.35 V20.90 H26.12 Z M31.35,20.90 V26.12 H36.57 V20.90 H31.35 Z M36.57,20.90 V26.12 H41.80 V20.90 H36.57 Z M41.80,20.90 V26.12 H47.02 V20.90 H41.80 Z M47.02,20.90 V26.12 H52.24 V20.90 H47.02 Z M52.24,20.90 V26.12 H57.47 V20.90 H52.24 Z M62.69,20.90 V26.12 H67.92 V20.90 H62.69 Z M67.92,20.90 V26.12 H73.14 V20.90 H67.92 Z M78.37,20.90 V26.12 H83.59 V20.90 H78.37 Z M83.59,20.90 V26.12 H88.82 V20.90 H83.59 Z M88.82,20.90 V26.12 H94.04 V20.90 H88.82 Z M99.27,20.90 V26.12 H104.49 V20.90 H99.27 Z M109.71,20.90 V26.12 H114.94 V20.90 H109.71 Z M120.16,20.90 V26.12 H125.39 V20.90 H120.16 Z M125.39,20.90 V26.12 H130.61 V20.90 H125.39 Z M130.61,20.90 V26.12 H135.84 V20.90 H130.61 Z M135.84,20.90 V26.12 H141.06 V20.90 H135.84 Z M146.29,20.90 V26.12 H151.51 V20.90 H146.29 Z M156.73,20.90 V26.12 H161.96 V20.90 H156.73 Z M161.96,20.90 V26.12 H167.18 V20.90 H161.96 Z M167.18,20.90 V26.12 H172.41 V20.90 H167.18 Z M177.63,20.90 V26.12 H182.86 V20.90 H177.63 Z M188.08,20.90 V26.12 H193.31 V20.90 H188.08 Z M198.53,20.90 V26.12 H203.76 V20.90 H198.53 Z M203.76,20.90 V26.12 H208.98 V20.90 H203.76 Z M208.98,20.90 V26.12 H214.20 V20.90 H208.98 Z M214.20,20.90 V26.12 H219.43 V20.90 H214.20 Z M219.43,20.90 V26.12 H224.65 V20.90 H219.43 Z M224.65,20.90 V26.12 H229.88 V20.90 H224.65 Z M229.88,20.90 V26.12 H235.10 V20.90 H229.88 Z M20.90,26.12 V31.35 H26.12 V26.12 H20.90 Z M52.24,26.12 V31.35 H57.47 V26.12 H52.24 Z M73.14,26.12 V31.35 H78.37 V26.12 H73.14 Z M78.37,26.12 V31.35 H83.59 V26.12 H78.37 Z M83.59,26.12 V31.35 H88.82 V26.12 H83.59 Z M94.04,26.12 V31.35 H99.27 V26.12 H94.04 Z M99.27,26.12 V31.35 H104.49 V26.12 H99.27 Z M125.39,26.12 V31.35 H130.61 V26.12 H125.39 Z M135.84,26.12 V31.35 H141.06 V26.12 H135.84 Z M141.06,26.12 V31.35 H146.29 V26.12 H141.06 Z M146.29,26.12 V31.35 H151.51 V26.12 H146.29 Z M151.51,26.12 V31.35 H156.73 V26.12 H151.51 Z M156.73,26.12 V31.35 H161.96 V26.12 H156.73 Z M198.53,26.12 V31.35 H203.76 V26.12 H198.53 Z M229.88,26.12 V31.35 H235.10 V26.12 H229.88 Z M20.90,31.35 V36.57 H26.12 V31.35 H20.90 Z M31.35,31.35 V36.57 H36.57 V31.35 H31.35 Z M36.57,31.35 V36.57 H41.80 V31.35 H36.57 Z M41.80,31.35 V36.57 H47.02 V31.35 H41.80 Z M52.24,31.35 V36.57 H57.47 V31.35 H52.24 Z M88.82,31.35 V36.57 H94.04 V31.35 H88.82 Z M99.27,31.35 V36.57 H104.49 V31.35 H99.27 Z M104.49,31.35 V36.57 H109.71 V31.35 H104.49 Z M114.94,31.35 V36.57 H120.16 V31.35 H114.94 Z M130.61,31.35 V36.57 H135.84 V31.35 H130.61 Z M135.84,31.35 V36.57 H141.06 V31.35 H135.84 Z M141.06,31.35 V36.57 H146.29 V31.35 H141.06 Z M156.73,31.35 V36.57 H161.96 V31.35 H156.73 Z M167.18,31.35 V36.57 H172.41 V31.35 H167.18 Z M172.41,31.35 V36.57 H177.63 V31.35 H172.41 Z M182.86,31.35 V36.57 H188.08 V31.35 H182.86 Z M188.08,31.35 V36.57 H193.31 V31.35 H188.08 Z M198.53,31.35 V36.57 H203.76 V31.35 H198.53 Z M208.98,31.35 V36.57 H214.20 V31.35 H208.98 Z M214.20,31.35 V36.57 H219.43 V31.35 H214.20 Z M219.43,31.35 V36.57 H224.65 V31.35 H219.43 Z M229.88,31.35 V36.57 H235.10 V31.35 H229.88 Z M20.90,36.57 V41.80 H26.12 V36.57 H20.90 Z M31.35,36.57 V41.80 H36.57 V36.57 H31.35 Z M36.57,36.57 V41.80 H41.80 V36.57 H36.57 Z M41.80,36.57 V41.80 H47.02 V36.57 H41.80 Z M52.24,36.57 V41.80 H57.47 V36.57 H52.24 Z M62.69,36.57 V41.80 H67.92 V36.57 H62.69 Z M67.92,36.57 V41.80 H73.14 V36.57 H67.92 Z M73.14,36.57 V41.80 H78.37 V36.57 H73.14 Z M94.04,36.57 V41.80 H99.27 V36.57 H94.04 Z M114.94,36.57 V41.80 H120.16 V36.57 H114.94 Z M120.16,36.57 V41.80 H125.39 V36.57 H120.16 Z M125.39,36.57 V41.80 H130.61 V36.57 H125.39 Z M130.61,36.57 V41.80 H135.84 V36.57 H130.61 Z M141.06,36.57 V41.80 H146.29 V36.57 H141.06 Z M146.29,36.57 V41.80 H151.51 V36.57 H146.29 Z M151.51,36.57 V41.80 H156.73 V36.57 H151.51 Z M156.73,36.57 V41.80 H161.96 V36.57 H156.73 Z M161.96,36.57 V41.80 H167.18 V36.57 H161.96 Z M172.41,36.57 V41.80 H177.63 V36.57 H172.41 Z M177.63,36.57 V41.80 H182.86 V36.57 H177.63 Z M198.53,36.57 V41.80 H203.76 V36.57 H198.53 Z M208.98,36.57 V41.80 H214.20 V36.57 H208.98 Z M214.20,36.57 V41.80 H219.43 V36.57 H214.20 Z M219.43,36.57 V41.80 H224.65 V36.57 H219.43 Z M229.88,36.57 V41.80 H235.10 V36.57 H229.88 Z M20.90,41.80 V47.02 H26.12 V41.80 H20.90 Z M31.35,41.80 V47.02 H36.57 V41.80 H31.35 Z M36.57,41.80 V47.02 H41.80 V41.80 H36.57 Z M41.80,41.80 V47.02 H47.02 V41.80 H41.80 Z M52.24,41.80 V47.02 H57.47 V41.80 H52.24 Z M67.92,41.80 V47.02 H73.14 V41.80 H67.92 Z M73.14,41.80 V47.02 H78.37 V41.80 H73.14 Z M94.04,41.80 V47.02 H99.27 V41.80 H94.04 Z M114.94,41.80 V47.02 H120.16 V41.80 H114.94 Z M125.39,41.80 V47.02 H130.61 V41.80 H125.39 Z M135.84,41.80 V47.02 H141.06 V41.80 H135.84 Z M141.06,41.80 V47.02 H146.29 V41.80 H141.06 Z M156.73,41.80 V47.02 H161.96 V41.80 H156.73 Z M188.08,41.80 V47.02 H193.31 V41.80 H188.08 Z M198.53,41.80 V47.02 H203.76 V41.80 H198.53 Z M208.98,41.80 V47.02 H214.20 V41.80 H208.98 Z M214.20,41.80 V47.02 H219.43 V41.80 H214.20 Z M219.43,41.80 V47.02 H224.65 V41.80 H219.43 Z M229.88,41.80 V47.02 H235.10 V41.80 H229.88 Z M20.90,47.02 V52.24 H26.12 V47.02 H20.90 Z M52.24,47.02 V52.24 H57.47 V47.02 H52.24 Z M62.69,47.02 V52.24 H67.92 V47.02 H62.69 Z M67.92,47.02 V52.24 H73.14 V47.02 H67.92 Z M83.59,47.02 V52.24 H88.82 V47.02 H83.59 Z M88.82,47.02 V52.24 H94.04 V47.02 H88.82 Z M94.04,47.02 V52.24 H99.27 V47.02 H94.04 Z M99.27,47.02 V52.24 H104.49 V47.02 H99.27 Z M104.49,47.02 V52.24 H109.71 V47.02 H104.49 Z M109.71,47.02 V52.24 H114.94 V47.02 H109.71 Z M125.39,47.02 V52.24 H130.61 V47.02 H125.39 Z M135.84,47.02 V52.24 H141.06 V47.02 H135.84 Z M146.29,47.02 V52.24 H151.51 V47.02 H146.29 Z M167.18,47.02 V52.24 H172.41 V47.02 H167.18 Z M177.63,47.02 V52.24 H182.86 V47.02 H177.63 Z M198.53,47.02 V52.24 H203.76 V47.02 H198.53 Z M229.88,47.02 V52.24 H235.10 V47.02 H229.88 Z M20.90,52.24 V57.47 H26.12 V52.24 H20.90 Z M26.12,52.24 V57.47 H31.35 V52.24 H26.12 Z M31.35,52.24 V57.47 H36.57 V52.24 H31.35 Z M36.57,52.24 V57.47 H41.80 V52.24 H36.57 Z M41.80,52.24 V57.47 H47.02 V52.24 H41.80 Z M47.02,52.24 V57.47 H52.24 V52.24 H47.02 Z M52.24,52.24 V57.47 H57.47 V52.24 H52.24 Z M62.69,52.24 V57.47 H67.92 V52.24 H62.69 Z M73.14,52.24 V57.47 H78.37 V52.24 H73.14 Z M83.59,52.24 V57.47 H88.82 V52.24 H83.59 Z M94.04,52.24 V57.47 H99.27 V52.24 H94.04 Z M104.49,52.24 V57.47 H109.71 V52.24 H104.49 Z M114.94,52.24 V57.47 H120.16 V52.24 H114.94 Z M125.39,52.24 V57.47 H130.61 V52.24 H125.39 Z M135.84,52.24 V57.47 H141.06 V52.24 H135.84 Z M146.29,52.24 V57.47 H151.51 V52.24 H146.29 Z M156.73,52.24 V57.47 H161.96 V52.24 H156.73 Z M167.18,52.24 V57.47 H172.41 V52.24 H167.18 Z M177.63,52.24 V57.47 H182.86 V52.24 H177.63 Z M188.08,52.24 V57.47 H193.31 V52.24 H188.08 Z M198.53,52.24 V57.47 H203.76 V52.24 H198.53 Z M203.76,52.24 V57.47 H208.98 V52.24 H203.76 Z M208.98,52.24 V57.47 H214.20 V52.24 H208.98 Z M214.20,52.24 V57.47 H219.43 V52.24 H214.20 Z M219.43,52.24 V57.47 H224.65 V52.24 H219.43 Z M224.65,52.24 V57.47 H229.88 V52.24 H224.65 Z M229.88,52.24 V57.47 H235.10 V52.24 H229.88 Z M67.92,57.47 V62.69 H73.14 V57.47 H67.92 Z M73.14,57.47 V62.69 H78.37 V57.47 H73.14 Z M78.37,57.47 V62.69 H83.59 V57.47 H78.37 Z M83.59,57.47 V62.69 H88.82 V57.47 H83.59 Z M94.04,57.47 V62.69 H99.27 V57.47 H94.04 Z M130.61,57.47 V62.69 H135.84 V57.47 H130.61 Z M151.51,57.47 V62.69 H156.73 V57.47 H151.51 Z M161.96,57.47 V62.69 H167.18 V57.47 H161.96 Z M167.18,57.47 V62.69 H172.41 V57.47 H167.18 Z M172.41,57.47 V62.69 H177.63 V57.47 H172.41 Z M47.02,62.69 V67.92 H52.24 V62.69 H47.02 Z M52.24,62.69 V67.92 H57.47 V62.69 H52.24 Z M62.69,62.69 V67.92 H67.92 V62.69 H62.69 Z M73.14,62.69 V67.92 H78.37 V62.69 H73.14 Z M83.59,62.69 V67.92 H88.82 V62.69 H83.59 Z M99.27,62.69 V67.92 H104.49 V62.69 H99.27 Z M109.71,62.69 V67.92 H114.94 V62.69 H109.71 Z M114.94,62.69 V67.92 H120.16 V62.69 H114.94 Z M125.39,62.69 V67.92 H130.61 V62.69 H125.39 Z M141.06,62.69 V67.92 H146.29 V62.69 H141.06 Z M146.29,62.69 V67.92 H151.51 V62.69 H146.29 Z M182.86,62.69 V67.92 H188.08 V62.69 H182.86 Z M193.31,62.69 V67.92 H198.53 V62.69 H193.31 Z M203.76,62.69 V67.92 H208.98 V62.69 H203.76 Z M214.20,62.69 V67.92 H219.43 V62.69 H214.20 Z M229.88,62.69 V67.92 H235.10 V62.69 H229.88 Z M20.90,67.92 V73.14 H26.12 V67.92 H20.90 Z M26.12,67.92 V73.14 H31.35 V67.92 H26.12 Z M41.80,67.92 V73.14 H47.02 V67.92 H41.80 Z M88.82,67.92 V73.14 H94.04 V67.92 H88.82 Z M99.27,67.92 V73.14 H104.49 V67.92 H99.27 Z M125.39,67.92 V73.14 H130.61 V67.92 H125.39 Z M151.51,67.92 V73.14 H156.73 V67.92 H151.51 Z M156.73,67.92 V73.14 H161.96 V67.92 H156.73 Z M161.96,67.92 V73.14 H167.18 V67.92 H161.96 Z M172.41,67.92 V73.14 H177.63 V67.92 H172.41 Z M182.86,67.92 V73.14 H188.08 V67.92 H182.86 Z M193.31,67.92 V73.14 H198.53 V67.92 H193.31 Z M203.76,67.92 V73.14 H208.98 V67.92 H203.76 Z M214.20,67.92 V73.14 H219.43 V67.92 H214.20 Z M224.65,67.92 V73.14 H229.88 V67.92 H224.65 Z M229.88,67.92 V73.14 H235.10 V67.92 H229.88 Z M20.90,73.14 V78.37 H26.12 V73.14 H20.90 Z M26.12,73.14 V78.37 H31.35 V73.14 H26.12 Z M52.24,73.14 V78.37 H57.47 V73.14 H52.24 Z M78.37,73.14 V78.37 H83.59 V73.14 H78.37 Z M88.82,73.14 V78.37 H94.04 V73.14 H88.82 Z M104.49,73.14 V78.37 H109.71 V73.14 H104.49 Z M114.94,73.14 V78.37 H120.16 V73.14 H114.94 Z M146.29,73.14 V78.37 H151.51 V73.14 H146.29 Z M161.96,73.14 V78.37 H167.18 V73.14 H161.96 Z M172.41,73.14 V78.37 H177.63 V73.14 H172.41 Z M182.86,73.14 V78.37 H188.08 V73.14 H182.86 Z M198.53,73.14 V78.37 H203.76 V73.14 H198.53 Z M203.76,73.14 V78.37 H208.98 V73.14 H203.76 Z M214.20,73.14 V78.37 H219.43 V73.14 H214.20 Z M219.43,73.14 V78.37 H224.65 V73.14 H219.43 Z M229.88,73.14 V78.37 H235.10 V73.14 H229.88 Z M20.90,78.37 V83.59 H26.12 V78.37 H20.90 Z M26.12,78.37 V83.59 H31.35 V78.37 H26.12 Z M36.57,78.37 V83.59 H41.80 V78.37 H36.57 Z M41.80,78.37 V83.59 H47.02 V78.37 H41.80 Z M57.47,78.37 V83.59 H62.69 V78.37 H57.47 Z M62.69,78.37 V83.59 H67.92 V78.37 H62.69 Z M73.14,78.37 V83.59 H78.37 V78.37 H73.14 Z M78.37,78.37 V83.59 H83.59 V78.37 H78.37 Z M94.04,78.37 V83.59 H99.27 V78.37 H94.04 Z M104.49,78.37 V83.59 H109.71 V78.37 H104.49 Z M109.71,78.37 V83.59 H114.94 V78.37 H109.71 Z M120.16,78.37 V83.59 H125.39 V78.37 H120.16 Z M125.39,78.37 V83.59 H130.61 V78.37 H125.39 Z M130.61,78.37 V83.59 H135.84 V78.37 H130.61 Z M141.06,78.37 V83.59 H146.29 V78.37 H141.06 Z M146.29,78.37 V83.59 H151.51 V78.37 H146.29 Z M151.51,78.37 V83.59 H156.73 V78.37 H151.51 Z M177.63,78.37 V83.59 H182.86 V78.37 H177.63 Z M188.08,78.37 V83.59 H193.31 V78.37 H188.08 Z M203.76,78.37 V83.59 H208.98 V78.37 H203.76 Z M224.65,78.37 V83.59 H229.88 V78.37 H224.65 Z M229.88,78.37 V83.59 H235.10 V78.37 H229.88 Z M20.90,83.59 V88.82 H26.12 V83.59 H20.90 Z M47.02,83.59 V88.82 H52.24 V83.59 H47.02 Z M52.24,83.59 V88.82 H57.47 V83.59 H52.24 Z M57.47,83.59 V88.82 H62.69 V83.59 H57.47 Z M83.59,83.59 V88.82 H88.82 V83.59 H83.59 Z M88.82,83.59 V88.82 H94.04 V83.59 H88.82 Z M94.04,83.59 V88.82 H99.27 V83.59 H94.04 Z M104.49,83.59 V88.82 H109.71 V83.59 H104.49 Z M120.16,83.59 V88.82 H125.39 V83.59 H120.16 Z M130.61,83.59 V88.82 H135.84 V83.59 H130.61 Z M135.84,83.59 V88.82 H141.06 V83.59 H135.84 Z M141.06,83.59 V88.82 H146.29 V83.59 H141.06 Z M156.73,83.59 V88.82 H161.96 V83.59 H156.73 Z M161.96,83.59 V88.82 H167.18 V83.59 H161.96 Z M167.18,83.59 V88.82 H172.41 V83.59 H167.18 Z M177.63,83.59 V88.82 H182.86 V83.59 H177.63 Z M219.43,83.59 V88.82 H224.65 V83.59 H219.43 Z M224.65,83.59 V88.82 H229.88 V83.59 H224.65 Z M20.90,88.82 V94.04 H26.12 V88.82 H20.90 Z M26.12,88.82 V94.04 H31.35 V88.82 H26.12 Z M31.35,88.82 V94.04 H36.57 V88.82 H31.35 Z M36.57,88.82 V94.04 H41.80 V88.82 H36.57 Z M47.02,88.82 V94.04 H52.24 V88.82 H47.02 Z M78.37,88.82 V94.04 H83.59 V88.82 H78.37 Z M88.82,88.82 V94.04 H94.04 V88.82 H88.82 Z M99.27,88.82 V94.04 H104.49 V88.82 H99.27 Z M104.49,88.82 V94.04 H109.71 V88.82 H104.49 Z M130.61,88.82 V94.04 H135.84 V88.82 H130.61 Z M146.29,88.82 V94.04 H151.51 V88.82 H146.29 Z M167.18,88.82 V94.04 H172.41 V88.82 H167.18 Z M172.41,88.82 V94.04 H177.63 V88.82 H172.41 Z M182.86,88.82 V94.04 H188.08 V88.82 H182.86 Z M193.31,88.82 V94.04 H198.53 V88.82 H193.31 Z M198.53,88.82 V94.04 H203.76 V88.82 H198.53 Z M203.76,88.82 V94.04 H208.98 V88.82 H203.76 Z M214.20,88.82 V94.04 H219.43 V88.82 H214.20 Z M20.90,94.04 V99.27 H26.12 V94.04 H20.90 Z M26.12,94.04 V99.27 H31.35 V94.04 H26.12 Z M31.35,94.04 V99.27 H36.57 V94.04 H31.35 Z M41.80,94.04 V99.27 H47.02 V94.04 H41.80 Z M52.24,94.04 V99.27 H57.47 V94.04 H52.24 Z M57.47,94.04 V99.27 H62.69 V94.04 H57.47 Z M62.69,94.04 V99.27 H67.92 V94.04 H62.69 Z M83.59,94.04 V99.27 H88.82 V94.04 H83.59 Z M94.04,94.04 V99.27 H99.27 V94.04 H94.04 Z M104.49,94.04 V99.27 H109.71 V94.04 H104.49 Z M109.71,94.04 V99.27 H114.94 V94.04 H109.71 Z M114.94,94.04 V99.27 H120.16 V94.04 H114.94 Z M125.39,94.04 V99.27 H130.61 V94.04 H125.39 Z M130.61,94.04 V99.27 H135.84 V94.04 H130.61 Z M135.84,94.04 V99.27 H141.06 V94.04 H135.84 Z M156.73,94.04 V99.27 H161.96 V94.04 H156.73 Z M208.98,94.04 V99.27 H214.20 V94.04 H208.98 Z M214.20,94.04 V99.27 H219.43 V94.04 H214.20 Z M224.65,94.04 V99.27 H229.88 V94.04 H224.65 Z M229.88,94.04 V99.27 H235.10 V94.04 H229.88 Z M26.12,99.27 V104.49 H31.35 V99.27 H26.12 Z M31.35,99.27 V104.49 H36.57 V99.27 H31.35 Z M36.57,99.27 V104.49 H41.80 V99.27 H36.57 Z M47.02,99.27 V104.49 H52.24 V99.27 H47.02 Z M57.47,99.27 V104.49 H62.69 V99.27 H57.47 Z M78.37,99.27 V104.49 H83.59 V99.27 H78.37 Z M88.82,99.27 V104.49 H94.04 V99.27 H88.82 Z M94.04,99.27 V104.49 H99.27 V99.27 H94.04 Z M99.27,99.27 V104.49 H104.49 V99.27 H99.27 Z M104.49,99.27 V104.49 H109.71 V99.27 H104.49 Z M120.16,99.27 V104.49 H125.39 V99.27 H120.16 Z M130.61,99.27 V104.49 H135.84 V99.27 H130.61 Z M135.84,99.27 V104.49 H141.06 V99.27 H135.84 Z M141.06,99.27 V104.49 H146.29 V99.27 H141.06 Z M146.29,99.27 V104.49 H151.51 V99.27 H146.29 Z M156.73,99.27 V104.49 H161.96 V99.27 H156.73 Z M172.41,99.27 V104.49 H177.63 V99.27 H172.41 Z M177.63,99.27 V104.49 H182.86 V99.27 H177.63 Z M188.08,99.27 V104.49 H193.31 V99.27 H188.08 Z M203.76,99.27 V104.49 H208.98 V99.27 H203.76 Z M214.20,99.27 V104.49 H219.43 V99.27 H214.20 Z M224.65,99.27 V104.49 H229.88 V99.27 H224.65 Z M229.88,99.27 V104.49 H235.10 V99.27 H229.88 Z M20.90,104.49 V109.71 H26.12 V104.49 H20.90 Z M26.12,104.49 V109.71 H31.35 V104.49 H26.12 Z M31.35,104.49 V109.71 H36.57 V104.49 H31.35 Z M52.24,104.49 V109.71 H57.47 V104.49 H52.24 Z M62.69,104.49 V109.71 H67.92 V104.49 H62.69 Z M78.37,104.49 V109.71 H83.59 V104.49 H78.37 Z M114.94,104.49 V109.71 H120.16 V104.49 H114.94 Z M120.16,104.49 V109.71 H125.39 V104.49 H120.16 Z M125.39,104.49 V109.71 H130.61 V104.49 H125.39 Z M135.84,104.49 V109.71 H141.06 V104.49 H135.84 Z M182.86,104.49 V109.71 H188.08 V104.49 H182.86 Z M188.08,104.49 V109.71 H193.31 V104.49 H188.08 Z M203.76,104.49 V109.71 H208.98 V104.49 H203.76 Z M219.43,104.49 V109.71 H224.65 V104.49 H219.43 Z M224.65,104.49 V109.71 H229.88 V104.49 H224.65 Z M229.88,104.49 V109.71 H235.10 V104.49 H229.88 Z M20.90,109.71 V114.94 H26.12 V109.71 H20.90 Z M36.57,109.71 V114.94 H41.80 V109.71 H36.57 Z M47.02,109.71 V114.94 H52.24 V109.71 H47.02 Z M57.47,109.71 V114.94 H62.69 V109.71 H57.47 Z M73.14,109.71 V114.94 H78.37 V109.71 H73.14 Z M99.27,109.71 V114.94 H104.49 V109.71 H99.27 Z M120.16,109.71 V114.94 H125.39 V109.71 H120.16 Z M125.39,109.71 V114.94 H130.61 V109.71 H125.39 Z M151.51,109.71 V114.94 H156.73 V109.71 H151.51 Z M156.73,109.71 V114.94 H161.96 V109.71 H156.73 Z M161.96,109.71 V114.94 H167.18 V109.71 H161.96 Z M167.18,109.71 V114.94 H172.41 V109.71 H167.18 Z M182.86,109.71 V114.94 H188.08 V109.71 H182.86 Z M188.08,109.71 V114.94 H193.31 V109.71 H188.08 Z M198.53,109.71 V114.94 H203.76 V109.71 H198.53 Z M203.76,109.71 V114.94 H208.98 V109.71 H203.76 Z M219.43,109.71 V114.94 H224.65 V109.71 H219.43 Z M20.90,114.94 V120.16 H26.12 V114.94 H20.90 Z M26.12,114.94 V120.16 H31.35 V114.94 H26.12 Z M31.35,114.94 V120.16 H36.57 V114.94 H31.35 Z M36.57,114.94 V120.16 H41.80 V114.94 H36.57 Z M41.80,114.94 V120.16 H47.02 V114.94 H41.80 Z M52.24,114.94 V120.16 H57.47 V114.94 H52.24 Z M57.47,114.94 V120.16 H62.69 V114.94 H57.47 Z M67.92,114.94 V120.16 H73.14 V114.94 H67.92 Z M73.14,114.94 V120.16 H78.37 V114.94 H73.14 Z M88.82,114.94 V120.16 H94.04 V114.94 H88.82 Z M94.04,114.94 V120.16 H99.27 V114.94 H94.04 Z M99.27,114.94 V120.16 H104.49 V114.94 H99.27 Z M109.71,114.94 V120.16 H114.94 V114.94 H109.71 Z M114.94,114.94 V120.16 H120.16 V114.94 H114.94 Z M120.16,114.94 V120.16 H125.39 V114.94 H120.16 Z M125.39,114.94 V120.16 H130.61 V114.94 H125.39 Z M130.61,114.94 V120.16 H135.84 V114.94 H130.61 Z M135.84,114.94 V120.16 H141.06 V114.94 H135.84 Z M156.73,114.94 V120.16 H161.96 V114.94 H156.73 Z M161.96,114.94 V120.16 H167.18 V114.94 H161.96 Z M167.18,114.94 V120.16 H172.41 V114.94 H167.18 Z M172.41,114.94 V120.16 H177.63 V114.94 H172.41 Z M177.63,114.94 V120.16 H182.86 V114.94 H177.63 Z M182.86,114.94 V120.16 H188.08 V114.94 H182.86 Z M219.43,114.94 V120.16 H224.65 V114.94 H219.43 Z M224.65,114.94 V120.16 H229.88 V114.94 H224.65 Z M229.88,114.94 V120.16 H235.10 V114.94 H229.88 Z M20.90,120.16 V125.39 H26.12 V120.16 H20.90 Z M41.80,120.16 V125.39 H47.02 V120.16 H41.80 Z M47.02,120.16 V125.39 H52.24 V120.16 H47.02 Z M57.47,120.16 V125.39 H62.69 V120.16 H57.47 Z M73.14,120.16 V125.39 H78.37 V120.16 H73.14 Z M78.37,120.16 V125.39 H83.59 V120.16 H78.37 Z M83.59,120.16 V125.39 H88.82 V120.16 H83.59 Z M99.27,120.16 V125.39 H104.49 V120.16 H99.27 Z M104.49,120.16 V125.39 H109.71 V120.16 H104.49 Z M109.71,120.16 V125.39 H114.94 V120.16 H109.71 Z M130.61,120.16 V125.39 H135.84 V120.16 H130.61 Z M135.84,120.16 V125.39 H141.06 V120.16 H135.84 Z M141.06,120.16 V125.39 H146.29 V120.16 H141.06 Z M146.29,120.16 V125.39 H151.51 V120.16 H146.29 Z M151.51,120.16 V125.39 H156.73 V120.16 H151.51 Z M161.96,120.16 V125.39 H167.18 V120.16 H161.96 Z M167.18,120.16 V125.39 H172.41 V120.16 H167.18 Z M172.41,120.16 V125.39 H177.63 V120.16 H172.41 Z M177.63,120.16 V125.39 H182.86 V120.16 H177.63 Z M182.86,120.16 V125.39 H188.08 V120.16 H182.86 Z M188.08,120.16 V125.39 H193.31 V120.16 H188.08 Z M198.53,120.16 V125.39 H203.76 V120.16 H198.53 Z M224.65,120.16 V125.39 H229.88 V120.16 H224.65 Z M26.12,125.39 V130.61 H31.35 V125.39 H26.12 Z M36.57,125.39 V130.61 H41.80 V125.39 H36.57 Z M52.24,125.39 V130.61 H57.47 V125.39 H52.24 Z M62.69,125.39 V130.61 H67.92 V125.39 H62.69 Z M67.92,125.39 V130.61 H73.14 V125.39 H67.92 Z M78.37,125.39 V130.61 H83.59 V125.39 H78.37 Z M94.04,125.39 V130.61 H99.27 V125.39 H94.04 Z M104.49,125.39 V130.61 H109.71 V125.39 H104.49 Z M125.39,125.39 V130.61 H130.61 V125.39 H125.39 Z M130.61,125.39 V130.61 H135.84 V125.39 H130.61 Z M135.84,125.39 V130.61 H141.06 V125.39 H135.84 Z M141.06,125.39 V130.61 H146.29 V125.39 H141.06 Z M151.51,125.39 V130.61 H156.73 V125.39 H151.51 Z M156.73,125.39 V130.61 H161.96 V125.39 H156.73 Z M161.96,125.39 V130.61 H167.18 V125.39 H161.96 Z M167.18,125.39 V130.61 H172.41 V125.39 H167.18 Z M177.63,125.39 V130.61 H182.86 V125.39 H177.63 Z M182.86,125.39 V130.61 H188.08 V125.39 H182.86 Z M193.31,125.39 V130.61 H198.53 V125.39 H193.31 Z M214.20,125.39 V130.61 H219.43 V125.39 H214.20 Z M219.43,125.39 V130.61 H224.65 V125.39 H219.43 Z M224.65,125.39 V130.61 H229.88 V125.39 H224.65 Z M229.88,125.39 V130.61 H235.10 V125.39 H229.88 Z M26.12,130.61 V135.84 H31.35 V130.61 H26.12 Z M36.57,130.61 V135.84 H41.80 V130.61 H36.57 Z M57.47,130.61 V135.84 H62.69 V130.61 H57.47 Z M62.69,130.61 V135.84 H67.92 V130.61 H62.69 Z M67.92,130.61 V135.84 H73.14 V130.61 H67.92 Z M78.37,130.61 V135.84 H83.59 V130.61 H78.37 Z M83.59,130.61 V135.84 H88.82 V130.61 H83.59 Z M88.82,130.61 V135.84 H94.04 V130.61 H88.82 Z M99.27,130.61 V135.84 H104.49 V130.61 H99.27 Z M114.94,130.61 V135.84 H120.16 V130.61 H114.94 Z M141.06,130.61 V135.84 H146.29 V130.61 H141.06 Z M156.73,130.61 V135.84 H161.96 V130.61 H156.73 Z M161.96,130.61 V135.84 H167.18 V130.61 H161.96 Z M167.18,130.61 V135.84 H172.41 V130.61 H167.18 Z M182.86,130.61 V135.84 H188.08 V130.61 H182.86 Z M188.08,130.61 V135.84 H193.31 V130.61 H188.08 Z M193.31,130.61 V135.84 H198.53 V130.61 H193.31 Z M203.76,130.61 V135.84 H208.98 V130.61 H203.76 Z M214.20,130.61 V135.84 H219.43 V130.61 H214.20 Z M219.43,130.61 V135.84 H224.65 V130.61 H219.43 Z M224.65,130.61 V135.84 H229.88 V130.61 H224.65 Z M20.90,135.84 V141.06 H26.12 V135.84 H20.90 Z M26.12,135.84 V141.06 H31.35 V135.84 H26.12 Z M41.80,135.84 V141.06 H47.02 V135.84 H41.80 Z M47.02,135.84 V141.06 H52.24 V135.84 H47.02 Z M52.24,135.84 V141.06 H57.47 V135.84 H52.24 Z M88.82,135.84 V141.06 H94.04 V135.84 H88.82 Z M99.27,135.84 V141.06 H104.49 V135.84 H99.27 Z M104.49,135.84 V141.06 H109.71 V135.84 H104.49 Z M120.16,135.84 V141.06 H125.39 V135.84 H120.16 Z M135.84,135.84 V141.06 H141.06 V135.84 H135.84 Z M141.06,135.84 V141.06 H146.29 V135.84 H141.06 Z M151.51,135.84 V141.06 H156.73 V135.84 H151.51 Z M156.73,135.84 V141.06 H161.96 V135.84 H156.73 Z M161.96,135.84 V141.06 H167.18 V135.84 H161.96 Z M172.41,135.84 V141.06 H177.63 V135.84 H172.41 Z M193.31,135.84 V141.06 H198.53 V135.84 H193.31 Z M203.76,135.84 V141.06 H208.98 V135.84 H203.76 Z M208.98,135.84 V141.06 H214.20 V135.84 H208.98 Z M224.65,135.84 V141.06 H229.88 V135.84 H224.65 Z M229.88,135.84 V141.06 H235.10 V135.84 H229.88 Z M20.90,141.06 V146.29 H26.12 V141.06 H20.90 Z M26.12,141.06 V146.29 H31.35 V141.06 H26.12 Z M36.57,141.06 V146.29 H41.80 V141.06 H36.57 Z M41.80,141.06 V146.29 H47.02 V141.06 H41.80 Z M67.92,141.06 V146.29 H73.14 V141.06 H67.92 Z M78.37,141.06 V146.29 H83.59 V141.06 H78.37 Z M88.82,141.06 V146.29 H94.04 V141.06 H88.82 Z M104.49,141.06 V146.29 H109.71 V141.06 H104.49 Z M109.71,141.06 V146.29 H114.94 V141.06 H109.71 Z M120.16,141.06 V146.29 H125.39 V141.06 H120.16 Z M125.39,141.06 V146.29 H130.61 V141.06 H125.39 Z M141.06,141.06 V146.29 H146.29 V141.06 H141.06 Z M146.29,141.06 V146.29 H151.51 V141.06 H146.29 Z M151.51,141.06 V146.29 H156.73 V141.06 H151.51 Z M156.73,141.06 V146.29 H161.96 V141.06 H156.73 Z M161.96,141.06 V146.29 H167.18 V141.06 H161.96 Z M182.86,141.06 V146.29 H188.08 V141.06 H182.86 Z M188.08,141.06 V146.29 H193.31 V141.06 H188.08 Z M193.31,141.06 V146.29 H198.53 V141.06 H193.31 Z M203.76,141.06 V146.29 H208.98 V141.06 H203.76 Z M208.98,141.06 V146.29 H214.20 V141.06 H208.98 Z M219.43,141.06 V146.29 H224.65 V141.06 H219.43 Z M229.88,141.06 V146.29 H235.10 V141.06 H229.88 Z M36.57,146.29 V151.51 H41.80 V146.29 H36.57 Z M47.02,146.29 V151.51 H52.24 V146.29 H47.02 Z M52.24,146.29 V151.51 H57.47 V146.29 H52.24 Z M57.47,146.29 V151.51 H62.69 V146.29 H57.47 Z M62.69,146.29 V151.51 H67.92 V146.29 H62.69 Z M67.92,146.29 V151.51 H73.14 V146.29 H67.92 Z M78.37,146.29 V151.51 H83.59 V146.29 H78.37 Z M83.59,146.29 V151.51 H88.82 V146.29 H83.59 Z M88.82,146.29 V151.51 H94.04 V146.29 H88.82 Z M94.04,146.29 V151.51 H99.27 V146.29 H94.04 Z M99.27,146.29 V151.51 H104.49 V146.29 H99.27 Z M109.71,146.29 V151.51 H114.94 V146.29 H109.71 Z M151.51,146.29 V151.51 H156.73 V146.29 H151.51 Z M156.73,146.29 V151.51 H161.96 V146.29 H156.73 Z M161.96,146.29 V151.51 H167.18 V146.29 H161.96 Z M188.08,146.29 V151.51 H193.31 V146.29 H188.08 Z M193.31,146.29 V151.51 H198.53 V146.29 H193.31 Z M198.53,146.29 V151.51 H203.76 V146.29 H198.53 Z M208.98,146.29 V151.51 H214.20 V146.29 H208.98 Z M214.20,146.29 V151.51 H219.43 V146.29 H214.20 Z M219.43,146.29 V151.51 H224.65 V146.29 H219.43 Z M224.65,146.29 V151.51 H229.88 V146.29 H224.65 Z M20.90,151.51 V156.73 H26.12 V151.51 H20.90 Z M26.12,151.51 V156.73 H31.35 V151.51 H26.12 Z M31.35,151.51 V156.73 H36.57 V151.51 H31.35 Z M36.57,151.51 V156.73 H41.80 V151.51 H36.57 Z M47.02,151.51 V156.73 H52.24 V151.51 H47.02 Z M62.69,151.51 V156.73 H67.92 V151.51 H62.69 Z M73.14,151.51 V156.73 H78.37 V151.51 H73.14 Z M78.37,151.51 V156.73 H83.59 V151.51 H78.37 Z M83.59,151.51 V156.73 H88.82 V151.51 H83.59 Z M88.82,151.51 V156.73 H94.04 V151.51 H88.82 Z M99.27,151.51 V156.73 H104.49 V151.51 H99.27 Z M109.71,151.51 V156.73 H114.94 V151.51 H109.71 Z M141.06,151.51 V156.73 H146.29 V151.51 H141.06 Z M151.51,151.51 V156.73 H156.73 V151.51 H151.51 Z M161.96,151.51 V156.73 H167.18 V151.51 H161.96 Z M172.41,151.51 V156.73 H177.63 V151.51 H172.41 Z M224.65,151.51 V156.73 H229.88 V151.51 H224.65 Z M229.88,151.51 V156.73 H235.10 V151.51 H229.88 Z M20.90,156.73 V161.96 H26.12 V156.73 H20.90 Z M26.12,156.73 V161.96 H31.35 V156.73 H26.12 Z M36.57,156.73 V161.96 H41.80 V156.73 H36.57 Z M41.80,156.73 V161.96 H47.02 V156.73 H41.80 Z M47.02,156.73 V161.96 H52.24 V156.73 H47.02 Z M52.24,156.73 V161.96 H57.47 V156.73 H52.24 Z M62.69,156.73 V161.96 H67.92 V156.73 H62.69 Z M78.37,156.73 V161.96 H83.59 V156.73 H78.37 Z M99.27,156.73 V161.96 H104.49 V156.73 H99.27 Z M109.71,156.73 V161.96 H114.94 V156.73 H109.71 Z M114.94,156.73 V161.96 H120.16 V156.73 H114.94 Z M120.16,156.73 V161.96 H125.39 V156.73 H120.16 Z M130.61,156.73 V161.96 H135.84 V156.73 H130.61 Z M135.84,156.73 V161.96 H141.06 V156.73 H135.84 Z M161.96,156.73 V161.96 H167.18 V156.73 H161.96 Z M172.41,156.73 V161.96 H177.63 V156.73 H172.41 Z M188.08,156.73 V161.96 H193.31 V156.73 H188.08 Z M193.31,156.73 V161.96 H198.53 V156.73 H193.31 Z M203.76,156.73 V161.96 H208.98 V156.73 H203.76 Z M224.65,156.73 V161.96 H229.88 V156.73 H224.65 Z M20.90,161.96 V167.18 H26.12 V161.96 H20.90 Z M26.12,161.96 V167.18 H31.35 V161.96 H26.12 Z M41.80,161.96 V167.18 H47.02 V161.96 H41.80 Z M47.02,161.96 V167.18 H52.24 V161.96 H47.02 Z M62.69,161.96 V167.18 H67.92 V161.96 H62.69 Z M78.37,161.96 V167.18 H83.59 V161.96 H78.37 Z M83.59,161.96 V167.18 H88.82 V161.96 H83.59 Z M88.82,161.96 V167.18 H94.04 V161.96 H88.82 Z M99.27,161.96 V167.18 H104.49 V161.96 H99.27 Z M125.39,161.96 V167.18 H130.61 V161.96 H125.39 Z M141.06,161.96 V167.18 H146.29 V161.96 H141.06 Z M146.29,161.96 V167.18 H151.51 V161.96 H146.29 Z M172.41,161.96 V167.18 H177.63 V161.96 H172.41 Z M177.63,161.96 V167.18 H182.86 V161.96 H177.63 Z M188.08,161.96 V167.18 H193.31 V161.96 H188.08 Z M203.76,161.96 V167.18 H208.98 V161.96 H203.76 Z M208.98,161.96 V167.18 H214.20 V161.96 H208.98 Z M224.65,161.96 V167.18 H229.88 V161.96 H224.65 Z M31.35,167.18 V172.41 H36.57 V167.18 H31.35 Z M41.80,167.18 V172.41 H47.02 V167.18 H41.80 Z M52.24,167.18 V172.41 H57.47 V167.18 H52.24 Z M67.92,167.18 V172.41 H73.14 V167.18 H67.92 Z M88.82,167.18 V172.41 H94.04 V167.18 H88.82 Z M104.49,167.18 V172.41 H109.71 V167.18 H104.49 Z M109.71,167.18 V172.41 H114.94 V167.18 H109.71 Z M125.39,167.18 V172.41 H130.61 V167.18 H125.39 Z M146.29,167.18 V172.41 H151.51 V167.18 H146.29 Z M172.41,167.18 V172.41 H177.63 V167.18 H172.41 Z M177.63,167.18 V172.41 H182.86 V167.18 H177.63 Z M188.08,167.18 V172.41 H193.31 V167.18 H188.08 Z M193.31,167.18 V172.41 H198.53 V167.18 H193.31 Z M208.98,167.18 V172.41 H214.20 V167.18 H208.98 Z M219.43,167.18 V172.41 H224.65 V167.18 H219.43 Z M224.65,167.18 V172.41 H229.88 V167.18 H224.65 Z M20.90,172.41 V177.63 H26.12 V172.41 H20.90 Z M26.12,172.41 V177.63 H31.35 V172.41 H26.12 Z M31.35,172.41 V177.63 H36.57 V172.41 H31.35 Z M36.57,172.41 V177.63 H41.80 V172.41 H36.57 Z M47.02,172.41 V177.63 H52.24 V172.41 H47.02 Z M57.47,172.41 V177.63 H62.69 V172.41 H57.47 Z M73.14,172.41 V177.63 H78.37 V172.41 H73.14 Z M83.59,172.41 V177.63 H88.82 V172.41 H83.59 Z M94.04,172.41 V177.63 H99.27 V172.41 H94.04 Z M99.27,172.41 V177.63 H104.49 V172.41 H99.27 Z M104.49,172.41 V177.63 H109.71 V172.41 H104.49 Z M109.71,172.41 V177.63 H114.94 V172.41 H109.71 Z M120.16,172.41 V177.63 H125.39 V172.41 H120.16 Z M135.84,172.41 V177.63 H141.06 V172.41 H135.84 Z M146.29,172.41 V177.63 H151.51 V172.41 H146.29 Z M151.51,172.41 V177.63 H156.73 V172.41 H151.51 Z M156.73,172.41 V177.63 H161.96 V172.41 H156.73 Z M161.96,172.41 V177.63 H167.18 V172.41 H161.96 Z M167.18,172.41 V177.63 H172.41 V172.41 H167.18 Z M177.63,172.41 V177.63 H182.86 V172.41 H177.63 Z M182.86,172.41 V177.63 H188.08 V172.41 H182.86 Z M193.31,172.41 V177.63 H198.53 V172.41 H193.31 Z M198.53,172.41 V177.63 H203.76 V172.41 H198.53 Z M219.43,172.41 V177.63 H224.65 V172.41 H219.43 Z M224.65,172.41 V177.63 H229.88 V172.41 H224.65 Z M229.88,172.41 V177.63 H235.10 V172.41 H229.88 Z M31.35,177.63 V182.86 H36.57 V177.63 H31.35 Z M36.57,177.63 V182.86 H41.80 V177.63 H36.57 Z M41.80,177.63 V182.86 H47.02 V177.63 H41.80 Z M52.24,177.63 V182.86 H57.47 V177.63 H52.24 Z M57.47,177.63 V182.86 H62.69 V177.63 H57.47 Z M94.04,177.63 V182.86 H99.27 V177.63 H94.04 Z M109.71,177.63 V182.86 H114.94 V177.63 H109.71 Z M114.94,177.63 V182.86 H120.16 V177.63 H114.94 Z M120.16,177.63 V182.86 H125.39 V177.63 H120.16 Z M135.84,177.63 V182.86 H141.06 V177.63 H135.84 Z M141.06,177.63 V182.86 H146.29 V177.63 H141.06 Z M146.29,177.63 V182.86 H151.51 V177.63 H146.29 Z M151.51,177.63 V182.86 H156.73 V177.63 H151.51 Z M161.96,177.63 V182.86 H167.18 V177.63 H161.96 Z M172.41,177.63 V182.86 H177.63 V177.63 H172.41 Z M177.63,177.63 V182.86 H182.86 V177.63 H177.63 Z M182.86,177.63 V182.86 H188.08 V177.63 H182.86 Z M198.53,177.63 V182.86 H203.76 V177.63 H198.53 Z M203.76,177.63 V182.86 H208.98 V177.63 H203.76 Z M208.98,177.63 V182.86 H214.20 V177.63 H208.98 Z M219.43,177.63 V182.86 H224.65 V177.63 H219.43 Z M224.65,177.63 V182.86 H229.88 V177.63 H224.65 Z M20.90,182.86 V188.08 H26.12 V182.86 H20.90 Z M47.02,182.86 V188.08 H52.24 V182.86 H47.02 Z M73.14,182.86 V188.08 H78.37 V182.86 H73.14 Z M83.59,182.86 V188.08 H88.82 V182.86 H83.59 Z M88.82,182.86 V188.08 H94.04 V182.86 H88.82 Z M99.27,182.86 V188.08 H104.49 V182.86 H99.27 Z M109.71,182.86 V188.08 H114.94 V182.86 H109.71 Z M120.16,182.86 V188.08 H125.39 V182.86 H120.16 Z M135.84,182.86 V188.08 H141.06 V182.86 H135.84 Z M146.29,182.86 V188.08 H151.51 V182.86 H146.29 Z M151.51,182.86 V188.08 H156.73 V182.86 H151.51 Z M182.86,182.86 V188.08 H188.08 V182.86 H182.86 Z M198.53,182.86 V188.08 H203.76 V182.86 H198.53 Z M224.65,182.86 V188.08 H229.88 V182.86 H224.65 Z M20.90,188.08 V193.31 H26.12 V188.08 H20.90 Z M41.80,188.08 V193.31 H47.02 V188.08 H41.80 Z M47.02,188.08 V193.31 H52.24 V188.08 H47.02 Z M52.24,188.08 V193.31 H57.47 V188.08 H52.24 Z M57.47,188.08 V193.31 H62.69 V188.08 H57.47 Z M67.92,188.08 V193.31 H73.14 V188.08 H67.92 Z M83.59,188.08 V193.31 H88.82 V188.08 H83.59 Z M88.82,188.08 V193.31 H94.04 V188.08 H88.82 Z M94.04,188.08 V193.31 H99.27 V188.08 H94.04 Z M104.49,188.08 V193.31 H109.71 V188.08 H104.49 Z M120.16,188.08 V193.31 H125.39 V188.08 H120.16 Z M125.39,188.08 V193.31 H130.61 V188.08 H125.39 Z M130.61,188.08 V193.31 H135.84 V188.08 H130.61 Z M141.06,188.08 V193.31 H146.29 V188.08 H141.06 Z M146.29,188.08 V193.31 H151.51 V188.08 H146.29 Z M156.73,188.08 V193.31 H161.96 V188.08 H156.73 Z M161.96,188.08 V193.31 H167.18 V188.08 H161.96 Z M177.63,188.08 V193.31 H182.86 V188.08 H177.63 Z M188.08,188.08 V193.31 H193.31 V188.08 H188.08 Z M193.31,188.08 V193.31 H198.53 V188.08 H193.31 Z M198.53,188.08 V193.31 H203.76 V188.08 H198.53 Z M203.76,188.08 V193.31 H208.98 V188.08 H203.76 Z M208.98,188.08 V193.31 H214.20 V188.08 H208.98 Z M214.20,188.08 V193.31 H219.43 V188.08 H214.20 Z M224.65,188.08 V193.31 H229.88 V188.08 H224.65 Z M229.88,188.08 V193.31 H235.10 V188.08 H229.88 Z M62.69,193.31 V198.53 H67.92 V193.31 H62.69 Z M83.59,193.31 V198.53 H88.82 V193.31 H83.59 Z M88.82,193.31 V198.53 H94.04 V193.31 H88.82 Z M120.16,193.31 V198.53 H125.39 V193.31 H120.16 Z M125.39,193.31 V198.53 H130.61 V193.31 H125.39 Z M130.61,193.31 V198.53 H135.84 V193.31 H130.61 Z M146.29,193.31 V198.53 H151.51 V193.31 H146.29 Z M151.51,193.31 V198.53 H156.73 V193.31 H151.51 Z M182.86,193.31 V198.53 H188.08 V193.31 H182.86 Z M188.08,193.31 V198.53 H193.31 V193.31 H188.08 Z M208.98,193.31 V198.53 H214.20 V193.31 H208.98 Z M214.20,193.31 V198.53 H219.43 V193.31 H214.20 Z M229.88,193.31 V198.53 H235.10 V193.31 H229.88 Z M20.90,198.53 V203.76 H26.12 V198.53 H20.90 Z M26.12,198.53 V203.76 H31.35 V198.53 H26.12 Z M31.35,198.53 V203.76 H36.57 V198.53 H31.35 Z M36.57,198.53 V203.76 H41.80 V198.53 H36.57 Z M41.80,198.53 V203.76 H47.02 V198.53 H41.80 Z M47.02,198.53 V203.76 H52.24 V198.53 H47.02 Z M52.24,198.53 V203.76 H57.47 V198.53 H52.24 Z M67.92,198.53 V203.76 H73.14 V198.53 H67.92 Z M78.37,198.53 V203.76 H83.59 V198.53 H78.37 Z M83.59,198.53 V203.76 H88.82 V198.53 H83.59 Z M88.82,198.53 V203.76 H94.04 V198.53 H88.82 Z M94.04,198.53 V203.76 H99.27 V198.53 H94.04 Z M99.27,198.53 V203.76 H104.49 V198.53 H99.27 Z M109.71,198.53 V203.76 H114.94 V198.53 H109.71 Z M114.94,198.53 V203.76 H120.16 V198.53 H114.94 Z M125.39,198.53 V203.76 H130.61 V198.53 H125.39 Z M130.61,198.53 V203.76 H135.84 V198.53 H130.61 Z M135.84,198.53 V203.76 H141.06 V198.53 H135.84 Z M146.29,198.53 V203.76 H151.51 V198.53 H146.29 Z M156.73,198.53 V203.76 H161.96 V198.53 H156.73 Z M161.96,198.53 V203.76 H167.18 V198.53 H161.96 Z M172.41,198.53 V203.76 H177.63 V198.53 H172.41 Z M188.08,198.53 V203.76 H193.31 V198.53 H188.08 Z M198.53,198.53 V203.76 H203.76 V198.53 H198.53 Z M208.98,198.53 V203.76 H214.20 V198.53 H208.98 Z M214.20,198.53 V203.76 H219.43 V198.53 H214.20 Z M224.65,198.53 V203.76 H229.88 V198.53 H224.65 Z M20.90,203.76 V208.98 H26.12 V203.76 H20.90 Z M52.24,203.76 V208.98 H57.47 V203.76 H52.24 Z M62.69,203.76 V208.98 H67.92 V203.76 H62.69 Z M67.92,203.76 V208.98 H73.14 V203.76 H67.92 Z M94.04,203.76 V208.98 H99.27 V203.76 H94.04 Z M104.49,203.76 V208.98 H109.71 V203.76 H104.49 Z M109.71,203.76 V208.98 H114.94 V203.76 H109.71 Z M120.16,203.76 V208.98 H125.39 V203.76 H120.16 Z M125.39,203.76 V208.98 H130.61 V203.76 H125.39 Z M146.29,203.76 V208.98 H151.51 V203.76 H146.29 Z M151.51,203.76 V208.98 H156.73 V203.76 H151.51 Z M177.63,203.76 V208.98 H182.86 V203.76 H177.63 Z M188.08,203.76 V208.98 H193.31 V203.76 H188.08 Z M208.98,203.76 V208.98 H214.20 V203.76 H208.98 Z M224.65,203.76 V208.98 H229.88 V203.76 H224.65 Z M229.88,203.76 V208.98 H235.10 V203.76 H229.88 Z M20.90,208.98 V214.20 H26.12 V208.98 H20.90 Z M31.35,208.98 V214.20 H36.57 V208.98 H31.35 Z M36.57,208.98 V214.20 H41.80 V208.98 H36.57 Z M41.80,208.98 V214.20 H47.02 V208.98 H41.80 Z M52.24,208.98 V214.20 H57.47 V208.98 H52.24 Z M99.27,208.98 V214.20 H104.49 V208.98 H99.27 Z M114.94,208.98 V214.20 H120.16 V208.98 H114.94 Z M188.08,208.98 V214.20 H193.31 V208.98 H188.08 Z M193.31,208.98 V214.20 H198.53 V208.98 H193.31 Z M198.53,208.98 V214.20 H203.76 V208.98 H198.53 Z M203.76,208.98 V214.20 H208.98 V208.98 H203.76 Z M208.98,208.98 V214.20 H214.20 V208.98 H208.98 Z M214.20,208.98 V214.20 H219.43 V208.98 H214.20 Z M219.43,208.98 V214.20 H224.65 V208.98 H219.43 Z M229.88,208.98 V214.20 H235.10 V208.98 H229.88 Z M20.90,214.20 V219.43 H26.12 V214.20 H20.90 Z M31.35,214.20 V219.43 H36.57 V214.20 H31.35 Z M36.57,214.20 V219.43 H41.80 V214.20 H36.57 Z M41.80,214.20 V219.43 H47.02 V214.20 H41.80 Z M52.24,214.20 V219.43 H57.47 V214.20 H52.24 Z M67.92,214.20 V219.43 H73.14 V214.20 H67.92 Z M73.14,214.20 V219.43 H78.37 V214.20 H73.14 Z M83.59,214.20 V219.43 H88.82 V214.20 H83.59 Z M94.04,214.20 V219.43 H99.27 V214.20 H94.04 Z M99.27,214.20 V219.43 H104.49 V214.20 H99.27 Z M114.94,214.20 V219.43 H120.16 V214.20 H114.94 Z M125.39,214.20 V219.43 H130.61 V214.20 H125.39 Z M130.61,214.20 V219.43 H135.84 V214.20 H130.61 Z M141.06,214.20 V219.43 H146.29 V214.20 H141.06 Z M146.29,214.20 V219.43 H151.51 V214.20 H146.29 Z M151.51,214.20 V219.43 H156.73 V214.20 H151.51 Z M177.63,214.20 V219.43 H182.86 V214.20 H177.63 Z M182.86,214.20 V219.43 H188.08 V214.20 H182.86 Z M188.08,214.20 V219.43 H193.31 V214.20 H188.08 Z M198.53,214.20 V219.43 H203.76 V214.20 H198.53 Z M214.20,214.20 V219.43 H219.43 V214.20 H214.20 Z M219.43,214.20 V219.43 H224.65 V214.20 H219.43 Z M229.88,214.20 V219.43 H235.10 V214.20 H229.88 Z M20.90,219.43 V224.65 H26.12 V219.43 H20.90 Z M31.35,219.43 V224.65 H36.57 V219.43 H31.35 Z M36.57,219.43 V224.65 H41.80 V219.43 H36.57 Z M41.80,219.43 V224.65 H47.02 V219.43 H41.80 Z M52.24,219.43 V224.65 H57.47 V219.43 H52.24 Z M67.92,219.43 V224.65 H73.14 V219.43 H67.92 Z M73.14,219.43 V224.65 H78.37 V219.43 H73.14 Z M78.37,219.43 V224.65 H83.59 V219.43 H78.37 Z M88.82,219.43 V224.65 H94.04 V219.43 H88.82 Z M114.94,219.43 V224.65 H120.16 V219.43 H114.94 Z M125.39,219.43 V224.65 H130.61 V219.43 H125.39 Z M130.61,219.43 V224.65 H135.84 V219.43 H130.61 Z M141.06,219.43 V224.65 H146.29 V219.43 H141.06 Z M172.41,219.43 V224.65 H177.63 V219.43 H172.41 Z M177.63,219.43 V224.65 H182.86 V219.43 H177.63 Z M188.08,219.43 V224.65 H193.31 V219.43 H188.08 Z M203.76,219.43 V224.65 H208.98 V219.43 H203.76 Z M219.43,219.43 V224.65 H224.65 V219.43 H219.43 Z M229.88,219.43 V224.65 H235.10 V219.43 H229.88 Z M20.90,224.65 V229.88 H26.12 V224.65 H20.90 Z M52.24,224.65 V229.88 H57.47 V224.65 H52.24 Z M67.92,224.65 V229.88 H73.14 V224.65 H67.92 Z M73.14,224.65 V229.88 H78.37 V224.65 H73.14 Z M78.37,224.65 V229.88 H83.59 V224.65 H78.37 Z M88.82,224.65 V229.88 H94.04 V224.65 H88.82 Z M99.27,224.65 V229.88 H104.49 V224.65 H99.27 Z M114.94,224.65 V229.88 H120.16 V224.65 H114.94 Z M120.16,224.65 V229.88 H125.39 V224.65 H120.16 Z M130.61,224.65 V229.88 H135.84 V224.65 H130.61 Z M135.84,224.65 V229.88 H141.06 V224.65 H135.84 Z M151.51,224.65 V229.88 H156.73 V224.65 H151.51 Z M156.73,224.65 V229.88 H161.96 V224.65 H156.73 Z M161.96,224.65 V229.88 H167.18 V224.65 H161.96 Z M172.41,224.65 V229.88 H177.63 V224.65 H172.41 Z M177.63,224.65 V229.88 H182.86 V224.65 H177.63 Z M182.86,224.65 V229.88 H188.08 V224.65 H182.86 Z M198.53,224.65 V229.88 H203.76 V224.65 H198.53 Z M203.76,224.65 V229.88 H208.98 V224.65 H203.76 Z M208.98,224.65 V229.88 H214.20 V224.65 H208.98 Z M219.43,224.65 V229.88 H224.65 V224.65 H219.43 Z M224.65,224.65 V229.88 H229.88 V224.65 H224.65 Z M229.88,224.65 V229.88 H235.10 V224.65 H229.88 Z M20.90,229.88 V235.10 H26.12 V229.88 H20.90 Z M26.12,229.88 V235.10 H31.35 V229.88 H26.12 Z M31.35,229.88 V235.10 H36.57 V229.88 H31.35 Z M36.57,229.88 V235.10 H41.80 V229.88 H36.57 Z M41.80,229.88 V235.10 H47.02 V229.88 H41.80 Z M47.02,229.88 V235.10 H52.24 V229.88 H47.02 Z M52.24,229.88 V235.10 H57.47 V229.88 H52.24 Z M78.37,229.88 V235.10 H83.59 V229.88 H78.37 Z M83.59,229.88 V235.10 H88.82 V229.88 H83.59 Z M94.04,229.88 V235.10 H99.27 V229.88 H94.04 Z M104.49,229.88 V235.10 H109.71 V229.88 H104.49 Z M109.71,229.88 V235.10 H114.94 V229.88 H109.71 Z M114.94,229.88 V235.10 H120.16 V229.88 H114.94 Z M120.16,229.88 V235.10 H125.39 V229.88 H120.16 Z M130.61,229.88 V235.10 H135.84 V229.88 H130.61 Z M141.06,229.88 V235.10 H146.29 V229.88 H141.06 Z M156.73,229.88 V235.10 H161.96 V229.88 H156.73 Z M161.96,229.88 V235.10 H167.18 V229.88 H161.96 Z M167.18,229.88 V235.10 H172.41 V229.88 H167.18 Z M172.41,229.88 V235.10 H177.63 V229.88 H172.41 Z M177.63,229.88 V235.10 H182.86 V229.88 H177.63 Z M182.86,229.88 V235.10 H188.08 V229.88 H182.86 Z M193.31,229.88 V235.10 H198.53 V229.88 H193.31 Z M203.76,229.88 V235.10 H208.98 V229.88 H203.76 Z M208.98,229.88 V235.10 H214.20 V229.88 H208.98 Z M214.20,229.88 V235.10 H219.43 V229.88 H214.20 Z M219.43,229.88 V235.10 H224.65 V229.88 H219.43 Z " /></svg>